<svg width="25" height="24" viewBox="0 0 25 24" fill="none" xmlns="http://www.w3.org/2000/svg">
<path d="M9.05193 6.76744C8.71552 6.76744 8.43655 6.48279 8.43655 6.13953V3.62791C8.43655 3.28465 8.71552 3 9.05193 3C9.38834 3 9.66732 3.28465 9.66732 3.62791V6.13953C9.66732 6.48279 9.38834 6.76744 9.05193 6.76744Z" fill="#858D9A"/>
<path d="M15.616 6.76744C15.2796 6.76744 15.0007 6.48279 15.0007 6.13953V3.62791C15.0007 3.28465 15.2796 3 15.616 3C15.9524 3 16.2314 3.28465 16.2314 3.62791V6.13953C16.2314 6.48279 15.9524 6.76744 15.616 6.76744Z" fill="#858D9A"/>
<path d="M9.46219 14.0931C9.35552 14.0931 9.24886 14.068 9.15039 14.0261C9.04373 13.9843 8.96168 13.9257 8.87963 13.8503C8.73193 13.6912 8.64168 13.4819 8.64168 13.2559C8.64168 13.1471 8.66629 13.0382 8.70732 12.9378C8.74834 12.8373 8.80578 12.7452 8.87963 12.6615C8.96168 12.5861 9.04373 12.5275 9.15039 12.4857C9.44578 12.3601 9.81501 12.4271 10.0448 12.6615C10.1924 12.8205 10.2827 13.0382 10.2827 13.2559C10.2827 13.3061 10.2745 13.3647 10.2663 13.4233C10.2581 13.4736 10.2417 13.5238 10.2171 13.574C10.2007 13.6243 10.176 13.6745 10.1432 13.7247C10.1186 13.7666 10.0776 13.8085 10.0448 13.8503C9.88886 14.001 9.67552 14.0931 9.46219 14.0931Z" fill="#858D9A"/>
<path d="M12.334 14.0929C12.2273 14.0929 12.1207 14.0678 12.0222 14.026C11.9155 13.9841 11.8335 13.9255 11.7514 13.8501C11.6037 13.6911 11.5135 13.4818 11.5135 13.2557C11.5135 13.1469 11.5381 13.0381 11.5791 12.9376C11.6201 12.8371 11.6776 12.745 11.7514 12.6613C11.8335 12.586 11.9155 12.5274 12.0222 12.4855C12.3176 12.3515 12.6868 12.4269 12.9165 12.6613C13.0642 12.8204 13.1545 13.0381 13.1545 13.2557C13.1545 13.306 13.1463 13.3646 13.1381 13.4232C13.1299 13.4734 13.1135 13.5236 13.0889 13.5739C13.0724 13.6241 13.0478 13.6743 13.015 13.7246C12.9904 13.7664 12.9494 13.8083 12.9165 13.8501C12.7607 14.0008 12.5473 14.0929 12.334 14.0929Z" fill="#858D9A"/>
<path d="M15.2058 14.0929C15.0991 14.0929 14.9924 14.0678 14.894 14.026C14.7873 13.9841 14.7053 13.9255 14.6232 13.8501C14.5904 13.8083 14.5576 13.7664 14.5248 13.7246C14.4919 13.6743 14.4673 13.6241 14.4509 13.5739C14.4263 13.5236 14.4099 13.4734 14.4017 13.4232C14.3935 13.3646 14.3853 13.306 14.3853 13.2557C14.3853 13.0381 14.4755 12.8204 14.6232 12.6613C14.7053 12.586 14.7873 12.5274 14.894 12.4855C15.1976 12.3515 15.5586 12.4269 15.7883 12.6613C15.936 12.8204 16.0263 13.0381 16.0263 13.2557C16.0263 13.306 16.0181 13.3646 16.0099 13.4232C16.0017 13.4734 15.9853 13.5236 15.9607 13.5739C15.9442 13.6241 15.9196 13.6743 15.8868 13.7246C15.8622 13.7664 15.8212 13.8083 15.7883 13.8501C15.6324 14.0008 15.4191 14.0929 15.2058 14.0929Z" fill="#858D9A"/>
<path d="M9.46219 17.0232C9.35552 17.0232 9.24886 16.9981 9.15039 16.9563C9.05193 16.9144 8.96168 16.8557 8.87963 16.7804C8.73193 16.6213 8.64168 16.4036 8.64168 16.186C8.64168 16.0771 8.66629 15.9683 8.70732 15.8678C8.74834 15.759 8.80578 15.667 8.87963 15.5916C9.18322 15.2819 9.74116 15.2819 10.0448 15.5916C10.1924 15.7507 10.2827 15.9683 10.2827 16.186C10.2827 16.4036 10.1924 16.6213 10.0448 16.7804C9.88886 16.9311 9.67552 17.0232 9.46219 17.0232Z" fill="#858D9A"/>
<path d="M12.334 17.0232C12.1207 17.0232 11.9073 16.9311 11.7514 16.7804C11.6037 16.6213 11.5135 16.4036 11.5135 16.186C11.5135 16.0771 11.5381 15.9683 11.5791 15.8678C11.6201 15.759 11.6776 15.667 11.7514 15.5916C12.055 15.2819 12.613 15.2819 12.9165 15.5916C12.9904 15.667 13.0478 15.759 13.0889 15.8678C13.1299 15.9683 13.1545 16.0771 13.1545 16.186C13.1545 16.4036 13.0642 16.6213 12.9165 16.7804C12.7607 16.9311 12.5473 17.0232 12.334 17.0232Z" fill="#858D9A"/>
<path d="M15.2058 17.0232C14.9924 17.0232 14.7791 16.9311 14.6232 16.7804C14.5494 16.705 14.4919 16.6129 14.4509 16.5041C14.4099 16.4036 14.3853 16.2948 14.3853 16.186C14.3853 16.0771 14.4099 15.9683 14.4509 15.8678C14.4919 15.759 14.5494 15.6669 14.6232 15.5915C14.8119 15.399 15.0991 15.3069 15.3617 15.3655C15.4191 15.3739 15.4683 15.3906 15.5176 15.4157C15.5668 15.4325 15.616 15.4576 15.6653 15.4911C15.7063 15.5162 15.7473 15.5581 15.7883 15.5915C15.936 15.7506 16.0263 15.9683 16.0263 16.186C16.0263 16.4036 15.936 16.6213 15.7883 16.7804C15.6324 16.9311 15.4191 17.0232 15.2058 17.0232Z" fill="#858D9A"/>
<path d="M19.3083 10.1915H5.35963C5.02322 10.1915 4.74424 9.90684 4.74424 9.56359C4.74424 9.22033 5.02322 8.93568 5.35963 8.93568H19.3083C19.6448 8.93568 19.9237 9.22033 19.9237 9.56359C19.9237 9.90684 19.6448 10.1915 19.3083 10.1915Z" fill="#858D9A"/>
<path d="M15.616 21H9.05193C6.05706 21 4.33398 19.2419 4.33398 16.186V9.06977C4.33398 6.01395 6.05706 4.25581 9.05193 4.25581H15.616C18.6109 4.25581 20.334 6.01395 20.334 9.06977V16.186C20.334 19.2419 18.6109 21 15.616 21ZM9.05193 5.51163C6.70527 5.51163 5.56475 6.67535 5.56475 9.06977V16.186C5.56475 18.5805 6.70527 19.7442 9.05193 19.7442H15.616C17.9627 19.7442 19.1032 18.5805 19.1032 16.186V9.06977C19.1032 6.67535 17.9627 5.51163 15.616 5.51163H9.05193Z" fill="#858D9A"/>
</svg>
