<svg width="30" height="30" viewBox="0 0 30 30" fill="none" xmlns="http://www.w3.org/2000/svg">
<path fill-rule="evenodd" clip-rule="evenodd" d="M9.97998 5C9.97998 4.30965 10.5396 3.75 11.23 3.75H12.412C13.6659 3.75 14.8367 4.37662 15.5322 5.41987L16.5479 6.94337C16.7797 7.2911 17.17 7.5 17.588 7.5H23.9072C25.9041 7.5 27.5226 9.07644 27.5036 11.1065C27.5015 11.33 27.5 11.5149 27.5 11.64V18.36C27.5 18.9747 27.4856 19.5479 27.4515 20.08C27.4074 20.7689 26.8131 21.2916 26.1241 21.2475C25.4352 21.2032 24.9125 20.609 24.9566 19.92C24.9864 19.4555 25 18.938 25 18.36V11.64C25 11.5011 25.0016 11.3044 25.0037 11.083C25.0094 10.4759 24.5476 10 23.9072 10H17.588C16.3341 10 15.1632 9.37339 14.4677 8.33013L13.4521 6.80663C13.2202 6.45888 12.83 6.25 12.412 6.25H11.23C10.5396 6.25 9.97998 5.69035 9.97998 5Z" fill="#121212" fill-opacity="0.6"/>
<path fill-rule="evenodd" clip-rule="evenodd" d="M4.63389 2.86611C4.14572 2.37796 3.35428 2.37796 2.86611 2.86611C2.37796 3.35427 2.37796 4.14572 2.86611 4.63389L3.88789 5.65565C3.45785 6.1679 3.15151 6.77841 2.94134 7.47486C2.6003 8.60487 2.5 9.99872 2.5 11.64V18.36C2.5 19.7555 2.57315 20.9622 2.79833 21.9755C3.02666 23.0029 3.42761 23.9064 4.1356 24.6144C4.8436 25.3224 5.74705 25.7234 6.77449 25.9516C7.78772 26.1769 8.99446 26.25 10.39 26.25H19.61C21.3077 26.25 22.7795 26.1466 23.9761 25.7439L25.3661 27.1339C25.8542 27.622 26.6458 27.622 27.1339 27.1339C27.622 26.6458 27.622 25.8542 27.1339 25.3661L4.63389 2.86611Z" fill="#121212" fill-opacity="0.6"/>
</svg>
