<svg width="14" height="14" viewBox="0 0 14 14" fill="none" xmlns="http://www.w3.org/2000/svg">
<g id="Group 164">
<g id="info">
<mask id="mask0_1394_12525" style="mask-type:alpha" maskUnits="userSpaceOnUse" x="0" y="0" width="14" height="14">
<rect id="Bounding box" width="14" height="14" fill="#D9D9D9"/>
</mask>
<g mask="url(#mask0_1394_12525)">
<path id="info_2" d="M6.41675 9.91667H7.58342V6.41667H6.41675V9.91667ZM7.00008 5.25001C7.16536 5.25001 7.3039 5.1941 7.41571 5.0823C7.52751 4.97049 7.58342 4.83195 7.58342 4.66667C7.58342 4.50139 7.52751 4.36285 7.41571 4.25105C7.3039 4.13924 7.16536 4.08334 7.00008 4.08334C6.8348 4.08334 6.69626 4.13924 6.58446 4.25105C6.47265 4.36285 6.41675 4.50139 6.41675 4.66667C6.41675 4.83195 6.47265 4.97049 6.58446 5.0823C6.69626 5.1941 6.8348 5.25001 7.00008 5.25001ZM7.00008 12.8333C6.19314 12.8333 5.4348 12.6802 4.72508 12.374C4.01536 12.0677 3.398 11.6521 2.873 11.1271C2.348 10.6021 1.93237 9.98473 1.62612 9.27501C1.31987 8.56528 1.16675 7.80695 1.16675 7.00001C1.16675 6.19306 1.31987 5.43473 1.62612 4.72501C1.93237 4.01528 2.348 3.39792 2.873 2.87292C3.398 2.34792 4.01536 1.9323 4.72508 1.62605C5.4348 1.3198 6.19314 1.16667 7.00008 1.16667C7.80703 1.16667 8.56536 1.3198 9.27508 1.62605C9.9848 1.9323 10.6022 2.34792 11.1272 2.87292C11.6522 3.39792 12.0678 4.01528 12.374 4.72501C12.6803 5.43473 12.8334 6.19306 12.8334 7.00001C12.8334 7.80695 12.6803 8.56528 12.374 9.27501C12.0678 9.98473 11.6522 10.6021 11.1272 11.1271C10.6022 11.6521 9.9848 12.0677 9.27508 12.374C8.56536 12.6802 7.80703 12.8333 7.00008 12.8333Z" fill="#121212"/>
</g>
</g>
</g>
</svg>
