<svg width="14" height="14" viewBox="0 0 14 14" fill="none" xmlns="http://www.w3.org/2000/svg">
<g id="Group 164">
<g id="border_color">
<mask id="mask0_1440_6108" style="mask-type:alpha" maskUnits="userSpaceOnUse" x="0" y="0" width="14" height="14">
<rect id="Bounding box" width="14" height="14" fill="#D9D9D9"/>
</mask>
<g mask="url(#mask0_1440_6108)">
<path id="border_color_2" d="M1.1665 14V11.6667H12.8332V14H1.1665ZM2.33317 10.5V8.02082L8.8665 1.50207C8.97345 1.39513 9.09741 1.31249 9.23838 1.25416C9.37935 1.19582 9.52762 1.16666 9.68317 1.16666C9.83873 1.16666 9.98942 1.19582 10.1353 1.25416C10.2811 1.31249 10.4123 1.39999 10.529 1.51666L11.3311 2.33332C11.4478 2.44027 11.5328 2.56666 11.5863 2.71249C11.6398 2.85832 11.6665 3.00902 11.6665 3.16457C11.6665 3.31041 11.6398 3.45381 11.5863 3.59478C11.5328 3.73575 11.4478 3.86457 11.3311 3.98124L4.81234 10.5H2.33317ZM9.68317 3.96666L10.4998 3.14999L9.68317 2.33332L8.8665 3.14999L9.68317 3.96666Z" fill="#121212"/>
</g>
</g>
</g>
</svg>
