<svg width="16" height="16" viewBox="0 0 16 16" fill="none" xmlns="http://www.w3.org/2000/svg">
<mask id="mask0_7040_5636" style="mask-type:alpha" maskUnits="userSpaceOnUse" x="0" y="0" width="16" height="16">
<rect width="16" height="16" fill="#D9D9D9"/>
</mask>
<g mask="url(#mask0_7040_5636)">
<path d="M8.00065 14.6666C7.07843 14.6666 6.21176 14.4916 5.40065 14.1416C4.58954 13.7916 3.88398 13.3166 3.28398 12.7166C2.68398 12.1166 2.20898 11.4111 1.85898 10.6C1.50898 9.78887 1.33398 8.9222 1.33398 7.99998C1.33398 7.07776 1.50898 6.21109 1.85898 5.39998C2.20898 4.58887 2.68398 3.88331 3.28398 3.28331C3.88398 2.68331 4.58954 2.20831 5.40065 1.85831C6.21176 1.50831 7.07843 1.33331 8.00065 1.33331C8.72287 1.33331 9.40621 1.43887 10.0507 1.64998C10.6951 1.86109 11.2895 2.15554 11.834 2.53331L10.8673 3.51665C10.4451 3.24998 9.9951 3.04165 9.51732 2.89165C9.03954 2.74165 8.53398 2.66665 8.00065 2.66665C6.52287 2.66665 5.26454 3.18609 4.22565 4.22498C3.18676 5.26387 2.66732 6.5222 2.66732 7.99998C2.66732 9.47776 3.18676 10.7361 4.22565 11.775C5.26454 12.8139 6.52287 13.3333 8.00065 13.3333C8.35621 13.3333 8.70065 13.3 9.03398 13.2333C9.36732 13.1666 9.68954 13.0722 10.0007 12.95L11.0007 13.9666C10.5451 14.1889 10.0673 14.3611 9.56732 14.4833C9.06732 14.6055 8.5451 14.6666 8.00065 14.6666ZM12.6673 13.3333V11.3333H10.6673V9.99998H12.6673V7.99998H14.0007V9.99998H16.0007V11.3333H14.0007V13.3333H12.6673ZM7.06732 11.0666L4.23398 8.23331L5.16732 7.29998L7.06732 9.19998L13.734 2.51665L14.6673 3.44998L7.06732 11.0666Z" fill="#121212"/>
</g>
</svg>
