<svg width="15" height="14" viewBox="0 0 15 14" fill="none" xmlns="http://www.w3.org/2000/svg">
<path d="M2.25 13.75C1.8375 13.75 1.48438 13.6031 1.19063 13.3094C0.896875 13.0156 0.75 12.6625 0.75 12.25V1.75C0.75 1.3375 0.896875 0.984375 1.19063 0.690625C1.48438 0.396875 1.8375 0.25 2.25 0.25H9V1.75H2.25V12.25H12.75V5.5H14.25V12.25C14.25 12.6625 14.1031 13.0156 13.8094 13.3094C13.5156 13.6031 13.1625 13.75 12.75 13.75H2.25ZM11.25 4.75V3.25H9.75V1.75H11.25V0.25H12.75V1.75H14.25V3.25H12.75V4.75H11.25ZM3 10.75H12L9.1875 7L6.9375 10L5.25 7.75L3 10.75Z" fill="#121212"/>
</svg>
