<svg width="16" height="17" viewBox="0 0 16 17" fill="none" xmlns="http://www.w3.org/2000/svg">
<mask id="mask0_4951_5899" style="mask-type:alpha" maskUnits="userSpaceOnUse" x="0" y="0" width="16" height="17">
<rect y="0.5" width="16" height="16" fill="#D9D9D9"/>
</mask>
<g mask="url(#mask0_4951_5899)">
<path d="M7.33594 11.8359H8.66927V9.16927H11.3359V7.83594H8.66927V5.16927H7.33594V7.83594H4.66927V9.16927H7.33594V11.8359ZM8.0026 15.1693C7.08038 15.1693 6.21372 14.9943 5.4026 14.6443C4.59149 14.2943 3.88594 13.8193 3.28594 13.2193C2.68594 12.6193 2.21094 11.9137 1.86094 11.1026C1.51094 10.2915 1.33594 9.42483 1.33594 8.5026C1.33594 7.58038 1.51094 6.71372 1.86094 5.9026C2.21094 5.09149 2.68594 4.38594 3.28594 3.78594C3.88594 3.18594 4.59149 2.71094 5.4026 2.36094C6.21372 2.01094 7.08038 1.83594 8.0026 1.83594C8.92483 1.83594 9.79149 2.01094 10.6026 2.36094C11.4137 2.71094 12.1193 3.18594 12.7193 3.78594C13.3193 4.38594 13.7943 5.09149 14.1443 5.9026C14.4943 6.71372 14.6693 7.58038 14.6693 8.5026C14.6693 9.42483 14.4943 10.2915 14.1443 11.1026C13.7943 11.9137 13.3193 12.6193 12.7193 13.2193C12.1193 13.8193 11.4137 14.2943 10.6026 14.6443C9.79149 14.9943 8.92483 15.1693 8.0026 15.1693Z" fill="white"/>
</g>
</svg>
