<svg width="11" height="12" viewBox="0 0 11 12" fill="none" xmlns="http://www.w3.org/2000/svg">
<path d="M1.41667 11.25C1.09583 11.25 0.821181 11.1358 0.592708 10.9073C0.364236 10.6788 0.25 10.4042 0.25 10.0833V1.91667C0.25 1.59583 0.364236 1.32118 0.592708 1.09271C0.821181 0.864236 1.09583 0.75 1.41667 0.75H6.66667V3.66667H7.83333V4.83333H10.75V10.0833C10.75 10.4042 10.6358 10.6788 10.4073 10.9073C10.1788 11.1358 9.90417 11.25 9.58333 11.25H1.41667ZM2 8.91667H9L6.8125 6L5.0625 8.33333L3.75 6.58333L2 8.91667ZM8.41667 4.25V3.08333H7.25V1.91667H8.41667V0.75H9.58333V1.91667H10.75V3.08333H9.58333V4.25H8.41667Z" fill="#D9D9D9"/>
</svg>
