<svg width="20" height="20" viewBox="0 0 20 20" fill="none" xmlns="http://www.w3.org/2000/svg">
<path d="M16.4572 9.62912L16.4572 9.62914C16.5032 9.67738 16.5398 9.73483 16.5649 9.79828C16.5899 9.86173 16.6029 9.92984 16.6029 9.9987C16.6029 10.0676 16.5899 10.1357 16.5649 10.1991C16.5398 10.2626 16.5032 10.32 16.4572 10.3683L16.4572 10.3683L11.4573 15.618C11.3646 15.7154 11.2394 15.7695 11.1096 15.7695C10.9797 15.7695 10.8545 15.7154 10.7618 15.618C10.6689 15.5205 10.6162 15.3876 10.6162 15.2484C10.6162 15.1092 10.6689 14.9763 10.7618 14.8788L14.8137 10.6251L14.9143 10.5195L14.7685 10.5195L3.88757 10.5195C3.75782 10.5195 3.63273 10.4654 3.54 10.3681C3.44718 10.2706 3.39453 10.1378 3.39453 9.9987C3.39453 9.85962 3.44718 9.72681 3.54 9.62935C3.63273 9.53199 3.75782 9.4779 3.88757 9.4779L14.7685 9.4779L14.9143 9.4779L14.8137 9.37229L10.7618 5.11857C10.6689 5.02105 10.6162 4.88816 10.6162 4.74899C10.6162 4.60982 10.6689 4.47693 10.7618 4.37941C10.8545 4.28199 10.9797 4.22787 11.1096 4.22787C11.2394 4.22787 11.3646 4.28199 11.4573 4.37941L16.4572 9.62912Z" fill="white" stroke="white" stroke-width="0.125"/>
</svg>
