<svg width="20" height="21" viewBox="0 0 20 21" fill="none" xmlns="http://www.w3.org/2000/svg">
<mask id="mask0_4533_16155" style="mask-type:alpha" maskUnits="userSpaceOnUse" x="0" y="0" width="20" height="21">
<rect y="0.5" width="20" height="20" fill="#D9D9D9"/>
</mask>
<g mask="url(#mask0_4533_16155)">
<path d="M9.18783 18V16.2083C8.45171 16.0417 7.8163 15.7222 7.28158 15.25C6.74685 14.7778 6.35449 14.1111 6.10449 13.25L7.64616 12.625C7.85449 13.2917 8.16352 13.7986 8.57324 14.1458C8.98296 14.4931 9.52116 14.6667 10.1878 14.6667C10.7573 14.6667 11.2399 14.5382 11.6357 14.2812C12.0316 14.0243 12.2295 13.625 12.2295 13.0833C12.2295 12.5972 12.0767 12.2118 11.7712 11.9271C11.4656 11.6424 10.7573 11.3194 9.64616 10.9583C8.45171 10.5833 7.63227 10.1354 7.18783 9.61458C6.74338 9.09375 6.52116 8.45833 6.52116 7.70833C6.52116 6.80556 6.81283 6.10417 7.39616 5.60417C7.97949 5.10417 8.57671 4.81944 9.18783 4.75V3H10.8545V4.75C11.5489 4.86111 12.1219 5.11458 12.5732 5.51042C13.0246 5.90625 13.3545 6.38889 13.5628 6.95833L12.0212 7.625C11.8545 7.18056 11.6184 6.84722 11.3128 6.625C11.0073 6.40278 10.5906 6.29167 10.0628 6.29167C9.45171 6.29167 8.98644 6.42708 8.66699 6.69792C8.34755 6.96875 8.18783 7.30556 8.18783 7.70833C8.18783 8.16667 8.39616 8.52778 8.81283 8.79167C9.22949 9.05556 9.95171 9.33333 10.9795 9.625C11.9378 9.90278 12.6635 10.3438 13.1566 10.9479C13.6496 11.5521 13.8962 12.25 13.8962 13.0417C13.8962 14.0278 13.6045 14.7778 13.0212 15.2917C12.4378 15.8056 11.7156 16.125 10.8545 16.25V18H9.18783Z" fill="#FF0000"/>
</g>
</svg>
