<svg width="16" height="16" viewBox="0 0 16 16" fill="none" xmlns="http://www.w3.org/2000/svg">
<g id="border_color">
<mask id="mask0_1364_13134" style="mask-type:alpha" maskUnits="userSpaceOnUse" x="0" y="0" width="16" height="16">
<rect id="Bounding box" width="16" height="16" fill="#D9D9D9"/>
</mask>
<g mask="url(#mask0_1364_13134)">
<path id="border_color_2" d="M1.33333 16V13.3333H14.6667V16H1.33333ZM4 10.6667H4.93333L10.1333 5.48333L9.18333 4.53333L4 9.73333V10.6667ZM2.66667 12V9.16666L10.1333 1.71666C10.2556 1.59444 10.3972 1.49999 10.5583 1.43333C10.7194 1.36666 10.8889 1.33333 11.0667 1.33333C11.2444 1.33333 11.4167 1.36666 11.5833 1.43333C11.75 1.49999 11.9 1.59999 12.0333 1.73333L12.95 2.66666C13.0833 2.78888 13.1806 2.93333 13.2417 3.1C13.3028 3.26666 13.3333 3.43888 13.3333 3.61666C13.3333 3.78333 13.3028 3.94722 13.2417 4.10833C13.1806 4.26944 13.0833 4.41666 12.95 4.55L5.5 12H2.66667Z" fill="#121212"/>
</g>
</g>
</svg>
