<svg width="14" height="14" viewBox="0 0 14 14" fill="none" xmlns="http://www.w3.org/2000/svg">
<mask id="mask0_4741_5140" style="mask-type:alpha" maskUnits="userSpaceOnUse" x="0" y="0" width="14" height="14">
<rect width="14" height="14" fill="#D9D9D9"/>
</mask>
<g mask="url(#mask0_4741_5140)">
<path d="M2.91667 12.8346C2.59583 12.8346 2.32118 12.7204 2.09271 12.4919C1.86424 12.2635 1.75 11.9888 1.75 11.668V3.5013C1.75 3.18047 1.86424 2.90582 2.09271 2.67734C2.32118 2.44887 2.59583 2.33464 2.91667 2.33464H3.5V1.16797H4.66667V2.33464H9.33333V1.16797H10.5V2.33464H11.0833C11.4042 2.33464 11.6788 2.44887 11.9073 2.67734C12.1358 2.90582 12.25 3.18047 12.25 3.5013V11.668C12.25 11.9888 12.1358 12.2635 11.9073 12.4919C11.6788 12.7204 11.4042 12.8346 11.0833 12.8346H2.91667ZM2.91667 11.668H11.0833V5.83464H2.91667V11.668ZM2.91667 4.66797H11.0833V3.5013H2.91667V4.66797ZM7 8.16797C6.83472 8.16797 6.69618 8.11207 6.58438 8.00026C6.47257 7.88846 6.41667 7.74991 6.41667 7.58464C6.41667 7.41936 6.47257 7.28082 6.58438 7.16901C6.69618 7.05721 6.83472 7.0013 7 7.0013C7.16528 7.0013 7.30382 7.05721 7.41563 7.16901C7.52743 7.28082 7.58333 7.41936 7.58333 7.58464C7.58333 7.74991 7.52743 7.88846 7.41563 8.00026C7.30382 8.11207 7.16528 8.16797 7 8.16797ZM4.66667 8.16797C4.50139 8.16797 4.36285 8.11207 4.25104 8.00026C4.13924 7.88846 4.08333 7.74991 4.08333 7.58464C4.08333 7.41936 4.13924 7.28082 4.25104 7.16901C4.36285 7.05721 4.50139 7.0013 4.66667 7.0013C4.83194 7.0013 4.97049 7.05721 5.08229 7.16901C5.1941 7.28082 5.25 7.41936 5.25 7.58464C5.25 7.74991 5.1941 7.88846 5.08229 8.00026C4.97049 8.11207 4.83194 8.16797 4.66667 8.16797ZM9.33333 8.16797C9.16806 8.16797 9.02951 8.11207 8.91771 8.00026C8.8059 7.88846 8.75 7.74991 8.75 7.58464C8.75 7.41936 8.8059 7.28082 8.91771 7.16901C9.02951 7.05721 9.16806 7.0013 9.33333 7.0013C9.49861 7.0013 9.63715 7.05721 9.74896 7.16901C9.86076 7.28082 9.91667 7.41936 9.91667 7.58464C9.91667 7.74991 9.86076 7.88846 9.74896 8.00026C9.63715 8.11207 9.49861 8.16797 9.33333 8.16797ZM7 10.5013C6.83472 10.5013 6.69618 10.4454 6.58438 10.3336C6.47257 10.2218 6.41667 10.0832 6.41667 9.91797C6.41667 9.75269 6.47257 9.61415 6.58438 9.50234C6.69618 9.39054 6.83472 9.33464 7 9.33464C7.16528 9.33464 7.30382 9.39054 7.41563 9.50234C7.52743 9.61415 7.58333 9.75269 7.58333 9.91797C7.58333 10.0832 7.52743 10.2218 7.41563 10.3336C7.30382 10.4454 7.16528 10.5013 7 10.5013ZM4.66667 10.5013C4.50139 10.5013 4.36285 10.4454 4.25104 10.3336C4.13924 10.2218 4.08333 10.0832 4.08333 9.91797C4.08333 9.75269 4.13924 9.61415 4.25104 9.50234C4.36285 9.39054 4.50139 9.33464 4.66667 9.33464C4.83194 9.33464 4.97049 9.39054 5.08229 9.50234C5.1941 9.61415 5.25 9.75269 5.25 9.91797C5.25 10.0832 5.1941 10.2218 5.08229 10.3336C4.97049 10.4454 4.83194 10.5013 4.66667 10.5013ZM9.33333 10.5013C9.16806 10.5013 9.02951 10.4454 8.91771 10.3336C8.8059 10.2218 8.75 10.0832 8.75 9.91797C8.75 9.75269 8.8059 9.61415 8.91771 9.50234C9.02951 9.39054 9.16806 9.33464 9.33333 9.33464C9.49861 9.33464 9.63715 9.39054 9.74896 9.50234C9.86076 9.61415 9.91667 9.75269 9.91667 9.91797C9.91667 10.0832 9.86076 10.2218 9.74896 10.3336C9.63715 10.4454 9.49861 10.5013 9.33333 10.5013Z" fill="#121212"/>
</g>
</svg>
