<svg width="15" height="15" viewBox="0 0 15 15" fill="none" xmlns="http://www.w3.org/2000/svg">
<path d="M1.5 2.25C1.5 1.83579 1.83579 1.5 2.25 1.5H3.86465C4.23128 1.5 4.54417 1.76506 4.60445 2.1267L5.15894 5.4536C5.21306 5.77838 5.04904 6.10048 4.75455 6.24773L3.59344 6.82828C4.43067 8.90873 6.09126 10.5693 8.1717 11.4065L8.75227 10.2455C8.8995 9.95092 9.22163 9.7869 9.54638 9.84105L12.8733 10.3955C13.235 10.4558 13.5 10.7687 13.5 11.1353V12.75C13.5 13.1642 13.1642 13.5 12.75 13.5H11.25C5.86522 13.5 1.5 9.13478 1.5 3.75V2.25Z" fill="#FF0303"/>
<path d="M12.5303 2.46967C12.8232 2.76257 12.8232 3.23743 12.5303 3.53033L11.5606 4.5L12.5303 5.46967C12.8232 5.76257 12.8232 6.23744 12.5303 6.53033C12.2374 6.82322 11.7625 6.82322 11.4697 6.53033L10.5 5.56066L9.53031 6.53033C9.23743 6.82322 8.76253 6.82322 8.46966 6.53033C8.17678 6.23744 8.17678 5.76257 8.46966 5.46967L9.43933 4.5L8.46966 3.53033C8.17678 3.23743 8.17678 2.76257 8.46966 2.46967C8.76253 2.17678 9.23743 2.17678 9.53031 2.46967L10.5 3.43934L11.4697 2.46967C11.7625 2.17678 12.2374 2.17678 12.5303 2.46967Z" fill="#FF0303"/>
</svg>
