<svg width="15" height="15" viewBox="0 0 15 15" fill="none" xmlns="http://www.w3.org/2000/svg">
<path d="M13.4436 1.96275C13.4061 1.87249 13.3513 1.79044 13.2823 1.72125L13.2793 1.71825C13.139 1.5783 12.9488 1.4998 12.7506 1.5H9.75057C9.55167 1.5 9.36087 1.57902 9.22024 1.71967C9.07962 1.86032 9.00057 2.05109 9.00057 2.25C9.00057 2.44892 9.07962 2.63968 9.22024 2.78033C9.36087 2.92098 9.55167 3 9.75057 3H10.9401L8.47032 5.46975C8.33374 5.6112 8.25814 5.80066 8.25979 5.9973C8.26152 6.19395 8.34042 6.38206 8.47947 6.52112C8.61852 6.66017 8.80662 6.73905 9.00327 6.74075C9.19992 6.74246 9.38937 6.66687 9.53082 6.53025L12.0006 4.0605V5.25C12.0006 5.44892 12.0796 5.63968 12.2202 5.78033C12.3609 5.92098 12.5517 6 12.7506 6C12.9495 6 13.1403 5.92098 13.2809 5.78033C13.4216 5.63968 13.5006 5.44892 13.5006 5.25V2.25C13.5007 2.15143 13.4813 2.05381 13.4436 1.96275Z" fill="#121212"/>
<path d="M1.5 2.25C1.5 2.05108 1.57902 1.86032 1.71967 1.71967C1.86032 1.57902 2.05108 1.5 2.25 1.5H3.86475C4.04228 1.50008 4.21403 1.56314 4.34943 1.67795C4.48484 1.79276 4.57513 1.95187 4.60425 2.127L5.15925 5.45325C5.18577 5.61166 5.16073 5.77441 5.08782 5.91752C5.01491 6.06064 4.89799 6.17657 4.75425 6.24825L3.59325 6.828C4.00958 7.85978 4.62962 8.79698 5.41633 9.58365C6.20304 10.3704 7.14026 10.9904 8.172 11.4067L8.7525 10.2458C8.82413 10.1021 8.93993 9.98535 9.08295 9.91245C9.2259 9.83955 9.38842 9.81443 9.54675 9.84075L12.873 10.3958C13.0481 10.4249 13.2073 10.5152 13.322 10.6506C13.4368 10.786 13.4999 10.9577 13.5 11.1353V12.75C13.5 12.9489 13.4209 13.1397 13.2803 13.2803C13.1397 13.4209 12.9489 13.5 12.75 13.5H11.25C5.865 13.5 1.5 9.135 1.5 3.75V2.25Z" fill="#121212"/>
</svg>
