<svg width="16" height="16" viewBox="0 0 16 16" fill="none" xmlns="http://www.w3.org/2000/svg">
<g clip-path="url(#clip0_7167_1128)">
<path d="M8.39028 10.0945C8.90581 10.4577 9.44634 10.7631 10.0035 10.9942C10.3494 11.1196 10.8923 10.7643 11.2914 10.5031C11.3911 10.4378 11.4819 10.3785 11.5585 10.3338L11.5835 10.3198C11.9595 10.1087 12.377 9.87419 12.9139 9.98719C13.3962 10.0863 15.0509 11.3903 15.5083 11.8525C15.8076 12.1497 15.9739 12.4633 15.9989 12.7852C16.0487 13.982 14.4439 15.3273 14.0614 15.5584C13.2465 16.1527 12.1571 16.1444 10.8433 15.5501C9.438 14.9806 7.75828 13.7838 6.13681 12.3312C5.55638 11.8112 4.44169 10.7163 4.12447 10.3508C2.48631 8.57628 1.10594 6.66969 0.457344 5.12625C0.149687 4.47422 0 3.87169 0 3.33522C0 2.807 0.149687 2.33653 0.440719 1.9321C0.615344 1.62672 2.02066 -0.0404975 3.25966 0.00075246C3.56734 0.0337525 3.88331 0.190596 4.19097 0.487721C4.65662 0.941659 5.99541 2.58413 6.09519 3.0711C6.20903 3.59575 5.97297 4.00988 5.76028 4.383L5.74594 4.40819C5.698 4.491 5.63303 4.58925 5.56197 4.69666C5.30025 5.09231 4.95625 5.61228 5.07987 5.94338C5.38837 6.70269 5.82909 7.44557 6.36044 8.13057C6.95012 8.8356 7.87472 9.73135 8.39028 10.0945Z" fill="#006CFE"/>
</g>
<defs>
<clipPath id="clip0_7167_1128">
<rect width="16" height="16" fill="white"/>
</clipPath>
</defs>
</svg>
