<svg width="18" height="18" viewBox="0 0 18 18" fill="none" xmlns="http://www.w3.org/2000/svg">
<path d="M7.83268 12.8333L13.7077 6.95829L12.541 5.79163L7.83268 10.5L5.45768 8.12496L4.29102 9.29163L7.83268 12.8333ZM8.99935 17.3333C7.84657 17.3333 6.76324 17.1145 5.74935 16.677C4.73546 16.2395 3.85352 15.6458 3.10352 14.8958C2.35352 14.1458 1.75977 13.2638 1.32227 12.25C0.884766 11.2361 0.666016 10.1527 0.666016 8.99996C0.666016 7.84718 0.884766 6.76385 1.32227 5.74996C1.75977 4.73607 2.35352 3.85413 3.10352 3.10413C3.85352 2.35413 4.73546 1.76038 5.74935 1.32288C6.76324 0.885376 7.84657 0.666626 8.99935 0.666626C10.1521 0.666626 11.2355 0.885376 12.2493 1.32288C13.2632 1.76038 14.1452 2.35413 14.8952 3.10413C15.6452 3.85413 16.2389 4.73607 16.6764 5.74996C17.1139 6.76385 17.3327 7.84718 17.3327 8.99996C17.3327 10.1527 17.1139 11.2361 16.6764 12.25C16.2389 13.2638 15.6452 14.1458 14.8952 14.8958C14.1452 15.6458 13.2632 16.2395 12.2493 16.677C11.2355 17.1145 10.1521 17.3333 8.99935 17.3333ZM8.99935 15.6666C10.8605 15.6666 12.4368 15.0208 13.7285 13.7291C15.0202 12.4375 15.666 10.8611 15.666 8.99996C15.666 7.13885 15.0202 5.56246 13.7285 4.27079C12.4368 2.97913 10.8605 2.33329 8.99935 2.33329C7.13824 2.33329 5.56185 2.97913 4.27018 4.27079C2.97852 5.56246 2.33268 7.13885 2.33268 8.99996C2.33268 10.8611 2.97852 12.4375 4.27018 13.7291C5.56185 15.0208 7.13824 15.6666 8.99935 15.6666Z" fill="#479D5F"/>
</svg>
