<svg width="17" height="17" viewBox="0 0 17 17" fill="none" xmlns="http://www.w3.org/2000/svg">
<mask id="mask0_2677_731" style="mask-type:alpha" maskUnits="userSpaceOnUse" x="0" y="0" width="17" height="17">
<rect x="0.5" y="0.5" width="16" height="16" fill="#D9D9D9"/>
</mask>
<g mask="url(#mask0_2677_731)">
<path d="M7.56665 11.5666L12.2666 6.86659L11.3333 5.93325L7.56665 9.69992L5.66665 7.79992L4.73331 8.73325L7.56665 11.5666ZM8.49998 15.1666C7.57776 15.1666 6.71109 14.9916 5.89998 14.6416C5.08887 14.2916 4.38331 13.8166 3.78331 13.2166C3.18331 12.6166 2.70831 11.911 2.35831 11.0999C2.00831 10.2888 1.83331 9.42214 1.83331 8.49992C1.83331 7.5777 2.00831 6.71103 2.35831 5.89992C2.70831 5.08881 3.18331 4.38325 3.78331 3.78325C4.38331 3.18325 5.08887 2.70825 5.89998 2.35825C6.71109 2.00825 7.57776 1.83325 8.49998 1.83325C9.4222 1.83325 10.2889 2.00825 11.1 2.35825C11.9111 2.70825 12.6166 3.18325 13.2166 3.78325C13.8166 4.38325 14.2916 5.08881 14.6416 5.89992C14.9916 6.71103 15.1666 7.5777 15.1666 8.49992C15.1666 9.42214 14.9916 10.2888 14.6416 11.0999C14.2916 11.911 13.8166 12.6166 13.2166 13.2166C12.6166 13.8166 11.9111 14.2916 11.1 14.6416C10.2889 14.9916 9.4222 15.1666 8.49998 15.1666Z" fill="#D9D9D9"/>
</g>
</svg>
