<svg width="18" height="18" viewBox="0 0 18 18" fill="none" xmlns="http://www.w3.org/2000/svg">
<mask id="mask0_4790_3416" style="mask-type:alpha" maskUnits="userSpaceOnUse" x="0" y="0" width="18" height="18">
<rect width="18" height="18" fill="#D9D9D9"/>
</mask>
<g mask="url(#mask0_4790_3416)">
<path d="M3 2.25L4.5 5.25H6.75L5.25 2.25H6.75L8.25 5.25H10.5L9 2.25H10.5L12 5.25H14.25L12.75 2.25H15C15.4125 2.25 15.7656 2.39688 16.0594 2.69063C16.3531 2.98438 16.5 3.3375 16.5 3.75V14.25C16.5 14.6625 16.3531 15.0156 16.0594 15.3094C15.7656 15.6031 15.4125 15.75 15 15.75H3C2.5875 15.75 2.23438 15.6031 1.94063 15.3094C1.64688 15.0156 1.5 14.6625 1.5 14.25V3.75C1.5 3.3375 1.64688 2.98438 1.94063 2.69063C2.23438 2.39688 2.5875 2.25 3 2.25ZM6 13.5H12V13.0875C12 12.5375 11.725 12.0938 11.175 11.7563C10.625 11.4188 9.9 11.25 9 11.25C8.1 11.25 7.375 11.4188 6.825 11.7563C6.275 12.0938 6 12.5375 6 13.0875V13.5ZM9 10.5C9.4125 10.5 9.76563 10.3531 10.0594 10.0594C10.3531 9.76563 10.5 9.4125 10.5 9C10.5 8.5875 10.3531 8.23438 10.0594 7.94063C9.76563 7.64688 9.4125 7.5 9 7.5C8.5875 7.5 8.23438 7.64688 7.94063 7.94063C7.64688 8.23438 7.5 8.5875 7.5 9C7.5 9.4125 7.64688 9.76563 7.94063 10.0594C8.23438 10.3531 8.5875 10.5 9 10.5Z" fill="#121212"/>
</g>
</svg>
