<svg width="18" height="18" viewBox="0 0 18 18" fill="none" xmlns="http://www.w3.org/2000/svg">
<mask id="mask0_4790_3408" style="mask-type:alpha" maskUnits="userSpaceOnUse" x="0" y="0" width="18" height="18">
<rect width="18" height="18" fill="#D9D9D9"/>
</mask>
<g mask="url(#mask0_4790_3408)">
<path d="M12.75 12C12.125 12 11.5938 11.7813 11.1562 11.3438C10.7187 10.9062 10.5 10.375 10.5 9.75C10.5 9.125 10.7187 8.59375 11.1562 8.15625C11.5938 7.71875 12.125 7.5 12.75 7.5C13.375 7.5 13.9062 7.71875 14.3438 8.15625C14.7813 8.59375 15 9.125 15 9.75C15 10.375 14.7813 10.9062 14.3438 11.3438C13.9062 11.7813 13.375 12 12.75 12ZM8.25 17.25V15.075C8.25 14.8125 8.3125 14.5656 8.4375 14.3344C8.5625 14.1031 8.7375 13.9188 8.9625 13.7812C9.3625 13.5437 9.78437 13.3469 10.2281 13.1906C10.6719 13.0344 11.125 12.9188 11.5875 12.8438L12.75 14.25L13.9125 12.8438C14.375 12.9188 14.825 13.0344 15.2625 13.1906C15.7 13.3469 16.1187 13.5437 16.5187 13.7812C16.7437 13.9188 16.9219 14.1031 17.0531 14.3344C17.1844 14.5656 17.25 14.8125 17.25 15.075V17.25H8.25ZM6.75 15.075V15.75H3.75C3.3375 15.75 2.98438 15.6031 2.69063 15.3094C2.39688 15.0156 2.25 14.6625 2.25 14.25V3.75C2.25 3.3375 2.39688 2.98438 2.69063 2.69063C2.98438 2.39688 3.3375 2.25 3.75 2.25H14.25C14.6625 2.25 15.0156 2.39688 15.3094 2.69063C15.6031 2.98438 15.75 3.3375 15.75 3.75V7.5C15.3625 7.0125 14.925 6.64063 14.4375 6.38438C13.95 6.12813 13.3875 6 12.75 6V5.25H5.25V6.75H10.5C10.25 6.95 10.025 7.175 9.825 7.425C9.625 7.675 9.45625 7.95 9.31875 8.25H5.25V9.75H9C9 10.0125 9.02813 10.2688 9.08438 10.5188C9.14063 10.7688 9.21875 11.0125 9.31875 11.25H5.25V12.75H7.8375C7.5 13.0375 7.23438 13.3844 7.04063 13.7906C6.84688 14.1969 6.75 14.625 6.75 15.075Z" fill="#121212"/>
</g>
</svg>
