<svg width="10" height="10" viewBox="0 0 10 10" fill="none" xmlns="http://www.w3.org/2000/svg">
<path fill-rule="evenodd" clip-rule="evenodd" d="M0.433531 0.434263C0.745955 0.121847 1.25248 0.121847 1.56491 0.434263L4.99922 3.86858L8.43354 0.434263C8.74594 0.121847 9.2525 0.121847 9.5649 0.434263C9.8773 0.746687 9.8773 1.25322 9.5649 1.56564L6.13058 4.99995L9.5649 8.43427C9.8773 8.74667 9.8773 9.25323 9.5649 9.56563C9.2525 9.87803 8.74594 9.87803 8.43354 9.56563L4.99922 6.13131L1.56491 9.56563C1.25248 9.87803 0.745955 9.87803 0.433531 9.56563C0.121115 9.25323 0.121115 8.74667 0.433531 8.43427L3.86785 4.99995L0.433531 1.56564C0.121115 1.25322 0.121115 0.746687 0.433531 0.434263Z" fill="#121212"/>
</svg>
