<svg width="16" height="16" viewBox="0 0 16 16" fill="none" xmlns="http://www.w3.org/2000/svg">
<path fill-rule="evenodd" clip-rule="evenodd" d="M7.20039 1.59998C6.89737 1.59998 6.62037 1.77118 6.48485 2.04221L5.90597 3.19998H3.20039C2.75857 3.19998 2.40039 3.55815 2.40039 3.99998C2.40039 4.4418 2.75857 4.79998 3.20039 4.79998V12.8C3.20039 13.6837 3.91673 14.4 4.80039 14.4H11.2004C12.0841 14.4 12.8004 13.6837 12.8004 12.8V4.79998C13.2422 4.79998 13.6004 4.4418 13.6004 3.99998C13.6004 3.55815 13.2422 3.19998 12.8004 3.19998H10.0948L9.51591 2.04221C9.38039 1.77118 9.10343 1.59998 8.80039 1.59998H7.20039ZM5.60039 6.39998C5.60039 5.95815 5.95857 5.59998 6.40039 5.59998C6.84221 5.59998 7.20039 5.95815 7.20039 6.39998V11.2C7.20039 11.6418 6.84221 12 6.40039 12C5.95857 12 5.60039 11.6418 5.60039 11.2V6.39998ZM9.60039 5.59998C9.15855 5.59998 8.80039 5.95815 8.80039 6.39998V11.2C8.80039 11.6418 9.15855 12 9.60039 12C10.0422 12 10.4004 11.6418 10.4004 11.2V6.39998C10.4004 5.95815 10.0422 5.59998 9.60039 5.59998Z" fill="#121212"/>
</svg>
