<svg width="12" height="12" viewBox="0 0 12 12" fill="none" xmlns="http://www.w3.org/2000/svg">
<path d="M1.33333 11.25V8.77083L9.01875 1.1C9.13542 0.983333 9.26667 0.895833 9.4125 0.8375C9.55833 0.779167 9.70417 0.75 9.85 0.75C10.0056 0.75 10.1538 0.779167 10.2948 0.8375C10.4358 0.895833 10.5597 0.983333 10.6667 1.1L11.4833 1.91667C11.6 2.02361 11.6875 2.14757 11.7458 2.28854C11.8042 2.42951 11.8333 2.57778 11.8333 2.73333C11.8333 2.87917 11.8042 3.025 11.7458 3.17083C11.6875 3.31667 11.6 3.44792 11.4833 3.56458L3.8125 11.25H1.33333ZM9.87917 3.53542L10.6667 2.74792L9.83542 1.91667L9.04792 2.70417L9.87917 3.53542ZM7.16667 11.25C7.88611 11.25 8.55208 11.0701 9.16458 10.7104C9.77708 10.3507 10.0833 9.85 10.0833 9.20833C10.0833 8.85833 9.99097 8.55694 9.80625 8.30417C9.62153 8.05139 9.37361 7.83264 9.0625 7.64792L8.20208 8.50833C8.42569 8.60556 8.60069 8.7125 8.72708 8.82917C8.85347 8.94583 8.91667 9.07222 8.91667 9.20833C8.91667 9.43194 8.73924 9.63368 8.38438 9.81354C8.02951 9.9934 7.62361 10.0833 7.16667 10.0833C7.00139 10.0833 6.86285 10.1392 6.75104 10.251C6.63924 10.3628 6.58333 10.5014 6.58333 10.6667C6.58333 10.8319 6.63924 10.9705 6.75104 11.0823C6.86285 11.1941 7.00139 11.25 7.16667 11.25ZM1.66875 6.7875L2.54375 5.9125C2.34931 5.83472 2.19618 5.75451 2.08438 5.67188C1.97257 5.58924 1.91667 5.50417 1.91667 5.41667C1.91667 5.3 2.00417 5.18333 2.17917 5.06667C2.35417 4.95 2.72361 4.77014 3.2875 4.52708C4.14306 4.15764 4.71181 3.82222 4.99375 3.52083C5.27569 3.21944 5.41667 2.87917 5.41667 2.5C5.41667 1.96528 5.20278 1.53993 4.775 1.22396C4.34722 0.907986 3.78333 0.75 3.08333 0.75C2.64583 0.75 2.25451 0.827778 1.90937 0.983333C1.56424 1.13889 1.29931 1.32847 1.11458 1.55208C1.00764 1.67847 0.963889 1.81944 0.983333 1.975C1.00278 2.13056 1.07569 2.25694 1.20208 2.35417C1.32847 2.46111 1.46944 2.50486 1.625 2.48542C1.78056 2.46597 1.91181 2.40278 2.01875 2.29583C2.15486 2.15972 2.30556 2.0625 2.47083 2.00417C2.63611 1.94583 2.84028 1.91667 3.08333 1.91667C3.48194 1.91667 3.77604 1.975 3.96563 2.09167C4.15521 2.20833 4.25 2.34444 4.25 2.5C4.25 2.63611 4.16493 2.76007 3.99479 2.87188C3.82465 2.98368 3.43333 3.18056 2.82083 3.4625C2.04306 3.80278 1.50347 4.11146 1.20208 4.38854C0.900694 4.66562 0.75 5.00833 0.75 5.41667C0.75 5.72778 0.832639 5.99271 0.997917 6.21146C1.16319 6.43021 1.38681 6.62222 1.66875 6.7875Z" fill="white"/>
</svg>
