<svg width="16" height="16" viewBox="0 0 16 16" fill="none" xmlns="http://www.w3.org/2000/svg">
<path d="M13.931 2.06861C13.3062 1.44377 12.293 1.44377 11.6682 2.06861L5.59961 8.13725V10.4H7.86235L13.931 4.33134C14.5558 3.7065 14.5558 2.69344 13.931 2.06861Z" fill="#121212"/>
<path fill-rule="evenodd" clip-rule="evenodd" d="M1.59961 4.79995C1.59961 3.9163 2.31595 3.19995 3.19961 3.19995H6.39961C6.84143 3.19995 7.19961 3.55813 7.19961 3.99995C7.19961 4.44178 6.84143 4.79995 6.39961 4.79995H3.19961V12.8H11.1996V9.59995C11.1996 9.15811 11.5578 8.79995 11.9996 8.79995C12.4414 8.79995 12.7996 9.15811 12.7996 9.59995V12.8C12.7996 13.6836 12.0833 14.4 11.1996 14.4H3.19961C2.31595 14.4 1.59961 13.6836 1.59961 12.8V4.79995Z" fill="#121212"/>
</svg>
