<svg width="15" height="16" viewBox="0 0 15 16" fill="none" xmlns="http://www.w3.org/2000/svg">
<mask id="mask0_5486_1528" style="mask-type:alpha" maskUnits="userSpaceOnUse" x="0" y="0" width="15" height="16">
<rect y="0.5" width="15" height="15" fill="#D9D9D9"/>
</mask>
<g mask="url(#mask0_5486_1528)">
<path d="M7.5 14.2656C7.33333 14.2656 7.17448 14.2344 7.02344 14.1719C6.8724 14.1094 6.73438 14.0208 6.60938 13.9063L1.59375 8.89063C1.47917 8.76563 1.39063 8.6276 1.32812 8.47656C1.26562 8.32552 1.23438 8.16667 1.23438 8C1.23438 7.83333 1.26562 7.67188 1.32812 7.51563C1.39063 7.35938 1.47917 7.22396 1.59375 7.10938L6.60938 2.09375C6.73438 1.96875 6.8724 1.8776 7.02344 1.82031C7.17448 1.76302 7.33333 1.73438 7.5 1.73438C7.66667 1.73438 7.82813 1.76302 7.98438 1.82031C8.14063 1.8776 8.27604 1.96875 8.39063 2.09375L13.4063 7.10938C13.5313 7.22396 13.6224 7.35938 13.6797 7.51563C13.737 7.67188 13.7656 7.83333 13.7656 8C13.7656 8.16667 13.737 8.32552 13.6797 8.47656C13.6224 8.6276 13.5313 8.76563 13.4063 8.89063L8.39063 13.9063C8.27604 14.0208 8.14063 14.1094 7.98438 14.1719C7.82813 14.2344 7.66667 14.2656 7.5 14.2656ZM6.875 8.625H8.125V4.875H6.875V8.625ZM7.5 10.5C7.67708 10.5 7.82552 10.4401 7.94531 10.3203C8.0651 10.2005 8.125 10.0521 8.125 9.875C8.125 9.69792 8.0651 9.54948 7.94531 9.42969C7.82552 9.3099 7.67708 9.25 7.5 9.25C7.32292 9.25 7.17448 9.3099 7.05469 9.42969C6.9349 9.54948 6.875 9.69792 6.875 9.875C6.875 10.0521 6.9349 10.2005 7.05469 10.3203C7.17448 10.4401 7.32292 10.5 7.5 10.5Z" fill="#A30000"/>
</g>
</svg>
