<svg width="16" height="16" viewBox="0 0 16 16" fill="none" xmlns="http://www.w3.org/2000/svg">
<mask id="mask0_4965_7296" style="mask-type:alpha" maskUnits="userSpaceOnUse" x="0" y="0" width="16" height="16">
<rect width="16" height="16" fill="#D9D9D9"/>
</mask>
<g mask="url(#mask0_4965_7296)">
<path d="M7.33594 11.3359H8.66927V7.33594H7.33594V11.3359ZM8.0026 6.0026C8.19149 6.0026 8.34983 5.93872 8.4776 5.81094C8.60538 5.68316 8.66927 5.52483 8.66927 5.33594C8.66927 5.14705 8.60538 4.98871 8.4776 4.86094C8.34983 4.73316 8.19149 4.66927 8.0026 4.66927C7.81371 4.66927 7.65538 4.73316 7.5276 4.86094C7.39983 4.98871 7.33594 5.14705 7.33594 5.33594C7.33594 5.52483 7.39983 5.68316 7.5276 5.81094C7.65538 5.93872 7.81371 6.0026 8.0026 6.0026ZM8.0026 14.6693C7.08038 14.6693 6.21371 14.4943 5.4026 14.1443C4.59149 13.7943 3.88594 13.3193 3.28594 12.7193C2.68594 12.1193 2.21094 11.4137 1.86094 10.6026C1.51094 9.79149 1.33594 8.92483 1.33594 8.0026C1.33594 7.08038 1.51094 6.21371 1.86094 5.4026C2.21094 4.59149 2.68594 3.88594 3.28594 3.28594C3.88594 2.68594 4.59149 2.21094 5.4026 1.86094C6.21371 1.51094 7.08038 1.33594 8.0026 1.33594C8.92483 1.33594 9.79149 1.51094 10.6026 1.86094C11.4137 2.21094 12.1193 2.68594 12.7193 3.28594C13.3193 3.88594 13.7943 4.59149 14.1443 5.4026C14.4943 6.21371 14.6693 7.08038 14.6693 8.0026C14.6693 8.92483 14.4943 9.79149 14.1443 10.6026C13.7943 11.4137 13.3193 12.1193 12.7193 12.7193C12.1193 13.3193 11.4137 13.7943 10.6026 14.1443C9.79149 14.4943 8.92483 14.6693 8.0026 14.6693Z" fill="#D00000"/>
</g>
</svg>
