<svg width="14" height="15" viewBox="0 0 14 15" fill="none" xmlns="http://www.w3.org/2000/svg">
<mask id="mask0_1851_379" style="mask-type:alpha" maskUnits="userSpaceOnUse" x="0" y="0" width="14" height="15">
<rect y="0.5" width="14" height="14" fill="#D9D9D9"/>
</mask>
<g mask="url(#mask0_1851_379)">
<path d="M6.99996 12.7499L6.15413 11.9916C5.17218 11.1069 4.36038 10.3437 3.71871 9.70203C3.07704 9.06036 2.56663 8.48432 2.18746 7.9739C1.80829 7.46348 1.54336 6.99439 1.39267 6.56661C1.24197 6.13883 1.16663 5.70133 1.16663 5.25411C1.16663 4.34022 1.47288 3.57703 2.08538 2.96453C2.69788 2.35203 3.46107 2.04578 4.37496 2.04578C4.88052 2.04578 5.36176 2.15272 5.81871 2.36661C6.27565 2.5805 6.6694 2.88189 6.99996 3.27078C7.33052 2.88189 7.72427 2.5805 8.18121 2.36661C8.63815 2.15272 9.1194 2.04578 9.62496 2.04578C10.5388 2.04578 11.302 2.35203 11.9145 2.96453C12.527 3.57703 12.8333 4.34022 12.8333 5.25411C12.8333 5.70133 12.7579 6.13883 12.6073 6.56661C12.4566 6.99439 12.1916 7.46348 11.8125 7.9739C11.4333 8.48432 10.9229 9.06036 10.2812 9.70203C9.63954 10.3437 8.82774 11.1069 7.84579 11.9916L6.99996 12.7499ZM6.99996 11.1749C7.93329 10.3388 8.70135 9.62182 9.30413 9.0239C9.9069 8.42598 10.3833 7.90585 10.7333 7.46348C11.0833 7.02112 11.3263 6.62737 11.4625 6.28223C11.5986 5.9371 11.6666 5.59439 11.6666 5.25411C11.6666 4.67078 11.4722 4.18467 11.0833 3.79578C10.6944 3.40689 10.2083 3.21244 9.62496 3.21244C9.16802 3.21244 8.7451 3.34126 8.35621 3.5989C7.96732 3.85654 7.69996 4.18467 7.55413 4.58328H6.44579C6.29996 4.18467 6.0326 3.85654 5.64371 3.5989C5.25482 3.34126 4.8319 3.21244 4.37496 3.21244C3.79163 3.21244 3.30552 3.40689 2.91663 3.79578C2.52774 4.18467 2.33329 4.67078 2.33329 5.25411C2.33329 5.59439 2.40135 5.9371 2.53746 6.28223C2.67357 6.62737 2.91663 7.02112 3.26663 7.46348C3.61663 7.90585 4.09302 8.42598 4.69579 9.0239C5.29857 9.62182 6.06663 10.3388 6.99996 11.1749Z" fill="#121212"/>
</g>
</svg>
