<svg width="20" height="20" viewBox="0 0 20 20" fill="none" xmlns="http://www.w3.org/2000/svg">
<mask id="mask0_2534_9383" style="mask-type:alpha" maskUnits="userSpaceOnUse" x="0" y="0" width="20" height="20">
<rect width="20" height="20" fill="#D9D9D9"/>
</mask>
<g mask="url(#mask0_2534_9383)">
<path d="M3.33329 19.1667C2.87496 19.1667 2.4826 19.0035 2.15621 18.6771C1.82982 18.3507 1.66663 17.9584 1.66663 17.5V5.83337H3.33329V17.5H12.5V19.1667H3.33329ZM6.66663 15.8334C6.20829 15.8334 5.81593 15.6702 5.48954 15.3438C5.16315 15.0174 4.99996 14.625 4.99996 14.1667V2.50004C4.99996 2.04171 5.16315 1.64935 5.48954 1.32296C5.81593 0.996569 6.20829 0.833374 6.66663 0.833374H12.5L17.5 5.83337V14.1667C17.5 14.625 17.3368 15.0174 17.0104 15.3438C16.684 15.6702 16.2916 15.8334 15.8333 15.8334H6.66663ZM11.6666 6.66671H15.8333L11.6666 2.50004V6.66671Z" fill="#0073FB"/>
</g>
</svg>
