<svg width="14" height="14" viewBox="0 0 14 14" fill="none" xmlns="http://www.w3.org/2000/svg">
<mask id="mask0_1644_5842" style="mask-type:alpha" maskUnits="userSpaceOnUse" x="0" y="0" width="14" height="14">
<rect width="14" height="14" fill="#D9D9D9"/>
</mask>
<g mask="url(#mask0_1644_5842)">
<path d="M0.583374 11.6667V10.0333C0.583374 9.70278 0.668443 9.39896 0.838582 9.12187C1.00872 8.84479 1.23476 8.63333 1.51671 8.4875C2.11949 8.18611 2.73199 7.96007 3.35421 7.80937C3.97643 7.65868 4.60837 7.58333 5.25004 7.58333C5.89171 7.58333 6.52365 7.65868 7.14587 7.80937C7.7681 7.96007 8.3806 8.18611 8.98337 8.4875C9.26532 8.63333 9.49136 8.84479 9.6615 9.12187C9.83164 9.39896 9.91671 9.70278 9.91671 10.0333V11.6667H0.583374ZM11.0834 11.6667V9.91667C11.0834 9.48889 10.9643 9.07812 10.7261 8.68437C10.4879 8.29062 10.15 7.95278 9.71254 7.67083C10.2084 7.72917 10.675 7.82882 11.1125 7.96979C11.55 8.11076 11.9584 8.28333 12.3375 8.4875C12.6875 8.68194 12.9549 8.89826 13.1396 9.13646C13.3243 9.37465 13.4167 9.63472 13.4167 9.91667V11.6667H11.0834ZM5.25004 7C4.60837 7 4.05907 6.77153 3.60212 6.31458C3.14518 5.85764 2.91671 5.30833 2.91671 4.66667C2.91671 4.025 3.14518 3.47569 3.60212 3.01875C4.05907 2.56181 4.60837 2.33333 5.25004 2.33333C5.89171 2.33333 6.44101 2.56181 6.89796 3.01875C7.3549 3.47569 7.58337 4.025 7.58337 4.66667C7.58337 5.30833 7.3549 5.85764 6.89796 6.31458C6.44101 6.77153 5.89171 7 5.25004 7ZM11.0834 4.66667C11.0834 5.30833 10.8549 5.85764 10.398 6.31458C9.94101 6.77153 9.39171 7 8.75004 7C8.6431 7 8.50699 6.98785 8.34171 6.96354C8.17643 6.93924 8.04032 6.9125 7.93337 6.88333C8.19587 6.57222 8.39761 6.22708 8.53858 5.84792C8.67955 5.46875 8.75004 5.075 8.75004 4.66667C8.75004 4.25833 8.67955 3.86458 8.53858 3.48542C8.39761 3.10625 8.19587 2.76111 7.93337 2.45C8.06949 2.40139 8.2056 2.36979 8.34171 2.35521C8.47782 2.34062 8.61393 2.33333 8.75004 2.33333C9.39171 2.33333 9.94101 2.56181 10.398 3.01875C10.8549 3.47569 11.0834 4.025 11.0834 4.66667Z" fill="#121212"/>
</g>
</svg>
