<svg width="14" height="14" viewBox="0 0 14 14" fill="none" xmlns="http://www.w3.org/2000/svg">
<mask id="mask0_1837_1794" style="mask-type:alpha" maskUnits="userSpaceOnUse" x="0" y="0" width="14" height="14">
<rect width="14" height="14" fill="#D9D9D9"/>
</mask>
<g mask="url(#mask0_1837_1794)">
<path d="M7.00001 12.2499L6.15417 11.4916C5.17223 10.6069 4.36042 9.84369 3.71876 9.20203C3.07709 8.56036 2.56667 7.98432 2.18751 7.4739C1.80834 6.96348 1.54341 6.49439 1.39271 6.06661C1.24202 5.63883 1.16667 5.20133 1.16667 4.75411C1.16667 3.84022 1.47292 3.07703 2.08542 2.46453C2.69792 1.85203 3.46112 1.54578 4.37501 1.54578C4.88056 1.54578 5.36181 1.65272 5.81876 1.86661C6.2757 2.0805 6.66945 2.38189 7.00001 2.77078C7.33056 2.38189 7.72431 2.0805 8.18126 1.86661C8.6382 1.65272 9.11945 1.54578 9.62501 1.54578C10.5389 1.54578 11.3021 1.85203 11.9146 2.46453C12.5271 3.07703 12.8333 3.84022 12.8333 4.75411C12.8333 5.20133 12.758 5.63883 12.6073 6.06661C12.4566 6.49439 12.1917 6.96348 11.8125 7.4739C11.4333 7.98432 10.9229 8.56036 10.2813 9.20203C9.63959 9.84369 8.82778 10.6069 7.84584 11.4916L7.00001 12.2499Z" fill="#121212"/>
</g>
</svg>
