<svg width="16" height="16" viewBox="0 0 16 16" fill="none" xmlns="http://www.w3.org/2000/svg">
<path fill-rule="evenodd" clip-rule="evenodd" d="M6.11585 0.924531C6.72853 1.12876 7.36198 1.41166 8 1.76627C8.6381 1.41165 9.27155 1.12874 9.88423 0.924516C11.5975 0.353429 13.3929 0.332136 14.5304 1.46966C15.6679 2.60718 15.6466 4.4026 15.0756 6.11585C14.8714 6.72853 14.5885 7.36198 14.2338 8.00008C14.5884 8.6381 14.8713 9.27155 15.0755 9.88415C15.6466 11.5975 15.6679 13.3929 14.5303 14.5304C13.3928 15.6679 11.5974 15.6466 9.88415 15.0755C9.27148 14.8713 8.6381 14.5884 8 14.2338C7.36198 14.5884 6.72853 14.8713 6.1159 15.0755C4.40266 15.6466 2.60723 15.6679 1.46971 14.5303C0.332189 13.3928 0.353481 11.5974 0.924569 9.88415C1.12878 9.27155 1.41167 8.6381 1.76627 8.00008C1.41165 7.36198 1.12874 6.72853 0.924516 6.11587C0.353429 4.40262 0.332136 2.6072 1.46966 1.46968C2.60718 0.332159 4.4026 0.353451 6.11585 0.924531ZM13.6525 5.64151C14.1673 4.09739 13.9891 3.04966 13.4698 2.53032C12.9504 2.01098 11.9027 1.83283 10.3585 2.34754C10.069 2.44405 9.77038 2.56276 9.4655 2.70298C10.1705 3.21342 10.8661 3.80548 11.5303 4.46969C12.1945 5.1339 12.7867 5.82953 13.2971 6.53458C13.4373 6.2297 13.556 5.93107 13.6525 5.64151ZM4.46972 4.46967C5.13391 3.80548 5.82952 3.21342 6.53458 2.70299C6.22967 2.56277 5.93105 2.44407 5.64151 2.34756C4.09739 1.83285 3.04966 2.011 2.53032 2.53034C2.01098 3.04968 1.83283 4.09741 2.34754 5.64153C2.44405 5.93107 2.56276 6.2297 2.70298 6.53458C3.21342 5.82952 3.8055 5.13389 4.46972 4.46967ZM11.5304 11.5303C12.1946 10.8661 12.7867 10.1706 13.2971 9.4655C13.4373 9.77038 13.556 10.069 13.6525 10.3585C14.1672 11.9026 13.9891 12.9504 13.4697 13.4698C12.9504 13.9891 11.9026 14.1672 10.3585 13.6525C10.069 13.556 9.77038 13.4373 9.4655 13.2971C10.1706 12.7867 10.8662 12.1945 11.5304 11.5303ZM4.46967 11.5304C5.13388 12.1946 5.82949 12.7867 6.53458 13.2971C6.22969 13.4373 5.93108 13.556 5.64157 13.6525C4.09744 14.1672 3.04971 13.9891 2.53037 13.4697C2.01103 12.9504 1.83289 11.9026 2.3476 10.3585C2.4441 10.069 2.56279 9.77038 2.70299 9.4655C3.21342 10.1706 3.80548 10.8662 4.46967 11.5304ZM7.25 8C7.25 7.58578 7.58578 7.25 8 7.25C8.41423 7.25 8.75 7.58578 8.75 8C8.75 8.41423 8.41423 8.75 8 8.75C7.58578 8.75 7.25 8.41423 7.25 8ZM8 5.74998C6.75733 5.74998 5.75 6.75733 5.75 8C5.75 9.2426 6.75733 10.25 8 10.25C9.24268 10.25 10.25 9.2426 10.25 8C10.25 6.75733 9.24268 5.74998 8 5.74998Z" fill="#121212"/>
</svg>
