<svg width="10" height="10" viewBox="0 0 10 10" fill="none" xmlns="http://www.w3.org/2000/svg">
<path fill-rule="evenodd" clip-rule="evenodd" d="M5 0.5C5.23868 0.5 5.46764 0.594824 5.63639 0.763601C5.80514 0.932387 5.9 1.1613 5.9 1.4V4.1H8.6C8.83868 4.1 9.06764 4.19482 9.23639 4.3636C9.40514 4.53239 9.5 4.7613 9.5 5C9.5 5.23868 9.40514 5.46764 9.23639 5.63639C9.06764 5.80514 8.83868 5.9 8.6 5.9H5.9V8.6C5.9 8.83868 5.80514 9.06764 5.63639 9.23639C5.46764 9.40514 5.23868 9.5 5 9.5C4.7613 9.5 4.53239 9.40514 4.3636 9.23639C4.19482 9.06764 4.1 8.83868 4.1 8.6V5.9H1.4C1.1613 5.9 0.932387 5.80514 0.763601 5.63639C0.594824 5.46764 0.5 5.23868 0.5 5C0.5 4.7613 0.594824 4.53239 0.763601 4.3636C0.932387 4.19482 1.1613 4.1 1.4 4.1H4.1V1.4C4.1 1.1613 4.19482 0.932387 4.3636 0.763601C4.53239 0.594824 4.7613 0.5 5 0.5Z" fill="#006CFE"/>
</svg>
