<svg width="15" height="15" viewBox="0 0 15 15" fill="none" xmlns="http://www.w3.org/2000/svg">
<mask id="mask0_4477_12886" style="mask-type:alpha" maskUnits="userSpaceOnUse" x="0" y="0" width="15" height="15">
<rect width="15" height="15" fill="#D9D9D9"/>
</mask>
<g mask="url(#mask0_4477_12886)">
<path d="M7.5 13.75C6.63542 13.75 5.82292 13.5859 5.0625 13.2578C4.30208 12.9297 3.64062 12.4844 3.07812 11.9219C2.51562 11.3594 2.07031 10.6979 1.74219 9.9375C1.41406 9.17708 1.25 8.36458 1.25 7.5C1.25 6.63542 1.41406 5.82292 1.74219 5.0625C2.07031 4.30208 2.51562 3.64062 3.07812 3.07812C3.64062 2.51562 4.30208 2.07031 5.0625 1.74219C5.82292 1.41406 6.63542 1.25 7.5 1.25C8.36458 1.25 9.17708 1.41406 9.9375 1.74219C10.6979 2.07031 11.3594 2.51562 11.9219 3.07812C12.4844 3.64062 12.9297 4.30208 13.2578 5.0625C13.5859 5.82292 13.75 6.63542 13.75 7.5C13.75 8.36458 13.5859 9.17708 13.2578 9.9375C12.9297 10.6979 12.4844 11.3594 11.9219 11.9219C11.3594 12.4844 10.6979 12.9297 9.9375 13.2578C9.17708 13.5859 8.36458 13.75 7.5 13.75ZM7.5 12.5C8.0625 12.5 8.60417 12.4089 9.125 12.2266C9.64583 12.0443 10.125 11.7813 10.5625 11.4375L3.5625 4.4375C3.21875 4.875 2.95573 5.35417 2.77344 5.875C2.59115 6.39583 2.5 6.9375 2.5 7.5C2.5 8.89583 2.98438 10.0781 3.95313 11.0469C4.92188 12.0156 6.10417 12.5 7.5 12.5ZM11.4375 10.5625C11.7813 10.125 12.0443 9.64583 12.2266 9.125C12.4089 8.60417 12.5 8.0625 12.5 7.5C12.5 6.10417 12.0156 4.92188 11.0469 3.95313C10.0781 2.98438 8.89583 2.5 7.5 2.5C6.9375 2.5 6.39583 2.59115 5.875 2.77344C5.35417 2.95573 4.875 3.21875 4.4375 3.5625L11.4375 10.5625Z" fill="#121212"/>
</g>
</svg>
