<svg width="20" height="20" viewBox="0 0 20 20" fill="none" xmlns="http://www.w3.org/2000/svg">
<circle cx="10" cy="10" r="10" fill="#FF2D55"/>
<path d="M12.2266 10.125L14.7656 12.6641C14.918 12.8164 14.9941 13.0026 14.9941 13.2227C14.9941 13.4427 14.918 13.6374 14.7656 13.8066L14.207 14.3652C14.0378 14.5176 13.8431 14.5938 13.623 14.5938C13.403 14.5938 13.2168 14.5176 13.0645 14.3652L10.5254 11.8262L7.98633 14.3652C7.83398 14.5176 7.64779 14.5938 7.42773 14.5938C7.20768 14.5938 7.01302 14.5176 6.84375 14.3652L6.28516 13.8066C6.13281 13.6374 6.05664 13.4427 6.05664 13.2227C6.05664 13.0026 6.13281 12.8164 6.28516 12.6641L8.82422 10.125L6.28516 7.58594C6.13281 7.43359 6.05664 7.2474 6.05664 7.02734C6.05664 6.80729 6.13281 6.61263 6.28516 6.44336L6.84375 5.88477C7.01302 5.73242 7.20768 5.65625 7.42773 5.65625C7.64779 5.65625 7.83398 5.73242 7.98633 5.88477L10.5254 8.42383L13.0645 5.88477C13.2168 5.73242 13.403 5.65625 13.623 5.65625C13.8431 5.65625 14.0378 5.73242 14.207 5.88477L14.7656 6.44336C14.918 6.61263 14.9941 6.80729 14.9941 7.02734C14.9941 7.2474 14.918 7.43359 14.7656 7.58594L12.2266 10.125Z" fill="white"/>
</svg>
