<svg width="18" height="18" viewBox="0 0 18 18" fill="none" xmlns="http://www.w3.org/2000/svg">
<path d="M11.25 11.25C10.4216 11.25 9.75 11.9216 9.75 12.75V15C9.75 15.8285 10.4216 16.5 11.25 16.5H11.268C12.2078 16.5 13.0143 16.4507 13.6881 16.3009C14.3705 16.1492 14.962 15.8849 15.4234 15.4235C15.8849 14.9621 16.1492 14.3705 16.3009 13.6881C16.3697 13.3786 16.415 13.0646 16.4448 12.7484C16.5226 11.9237 15.8285 11.25 15 11.25H11.25Z" fill="#A4A4A4"/>
<path d="M1.5 11.268V9.75C1.5 8.92155 2.17157 8.25 3 8.25H6.75C7.57845 8.25 8.25 8.92155 8.25 9.75V15C8.25 15.8285 7.57845 16.5 6.75 16.5H6.732C5.79215 16.5 4.98571 16.4507 4.31186 16.3009C3.6295 16.1492 3.03799 15.8849 2.57657 15.4234C2.11516 14.962 1.85079 14.3705 1.69914 13.6881C1.54938 13.0143 1.5 12.2078 1.5 11.268Z" fill="#A4A4A4"/>
<path d="M16.5 8.25C16.5 9.07845 15.8285 9.75 15 9.75H11.25C10.4216 9.75 9.75 9.07845 9.75 8.25V3C9.75 2.17157 10.4216 1.5 11.25 1.5H11.268C12.2078 1.5 13.0143 1.54938 13.6881 1.69914C14.3705 1.85079 14.962 2.11516 15.4234 2.57657C15.8849 3.03799 16.1492 3.6295 16.3009 4.31186C16.4507 4.98571 16.5 5.79215 16.5 6.732V8.25Z" fill="#A4A4A4"/>
<path d="M8.24961 3C8.24961 2.17157 7.57806 1.5 6.74961 1.5H6.73161C5.79177 1.5 4.98533 1.54938 4.31148 1.69914C3.62911 1.85079 3.0376 2.11516 2.57619 2.57657C2.11477 3.03799 1.8504 3.6295 1.69875 4.31186C1.62997 4.62135 1.58458 4.93547 1.55478 5.25158C1.47705 6.07635 2.17119 6.75 2.99961 6.75H6.74961C7.57806 6.75 8.24961 6.07843 8.24961 5.25V3Z" fill="#A4A4A4"/>
</svg>
