<svg width="15" height="15" viewBox="0 0 15 15" fill="none" xmlns="http://www.w3.org/2000/svg">
<mask id="mask0_4477_12897" style="mask-type:alpha" maskUnits="userSpaceOnUse" x="0" y="0" width="15" height="15">
<rect width="15" height="15" fill="#D9D9D9"/>
</mask>
<g mask="url(#mask0_4477_12897)">
<path d="M10 6.875V5.625H13.75V6.875H10ZM5.625 7.5C4.9375 7.5 4.34896 7.25521 3.85938 6.76562C3.36979 6.27604 3.125 5.6875 3.125 5C3.125 4.3125 3.36979 3.72396 3.85938 3.23438C4.34896 2.74479 4.9375 2.5 5.625 2.5C6.3125 2.5 6.90104 2.74479 7.39062 3.23438C7.88021 3.72396 8.125 4.3125 8.125 5C8.125 5.6875 7.88021 6.27604 7.39062 6.76562C6.90104 7.25521 6.3125 7.5 5.625 7.5ZM0.625 12.5V10.75C0.625 10.3958 0.716146 10.0703 0.898438 9.77344C1.08073 9.47656 1.32292 9.25 1.625 9.09375C2.27083 8.77083 2.92708 8.52865 3.59375 8.36719C4.26042 8.20573 4.9375 8.125 5.625 8.125C6.3125 8.125 6.98958 8.20573 7.65625 8.36719C8.32292 8.52865 8.97917 8.77083 9.625 9.09375C9.92708 9.25 10.1693 9.47656 10.3516 9.77344C10.5339 10.0703 10.625 10.3958 10.625 10.75V12.5H0.625Z" fill="#121212"/>
</g>
</svg>
