<svg width="20" height="20" viewBox="0 0 20 20" fill="none" xmlns="http://www.w3.org/2000/svg">
<mask id="mask0_769_10390" style="mask-type:alpha" maskUnits="userSpaceOnUse" x="0" y="0" width="20" height="20">
<rect width="20" height="20" fill="#D9D9D9"/>
</mask>
<g mask="url(#mask0_769_10390)">
<path d="M8 12.9999L9.16667 11.7916L7.375 9.99992L9.16667 8.20825L8 6.99992L5 9.99992L8 12.9999ZM12 12.9999L15 9.99992L12 6.99992L10.8333 8.20825L12.625 9.99992L10.8333 11.7916L12 12.9999ZM4.16667 17.4999C3.70833 17.4999 3.31597 17.3367 2.98958 17.0103C2.66319 16.6839 2.5 16.2916 2.5 15.8333V4.16659C2.5 3.70825 2.66319 3.31589 2.98958 2.9895C3.31597 2.66311 3.70833 2.49992 4.16667 2.49992H7.66667C7.84722 1.99992 8.14931 1.59714 8.57292 1.29159C8.99653 0.98603 9.47222 0.833252 10 0.833252C10.5278 0.833252 11.0035 0.98603 11.4271 1.29159C11.8507 1.59714 12.1528 1.99992 12.3333 2.49992H15.8333C16.2917 2.49992 16.684 2.66311 17.0104 2.9895C17.3368 3.31589 17.5 3.70825 17.5 4.16659V15.8333C17.5 16.2916 17.3368 16.6839 17.0104 17.0103C16.684 17.3367 16.2917 17.4999 15.8333 17.4999H4.16667ZM4.16667 15.8333H15.8333V4.16659H4.16667V15.8333ZM10 3.54159C10.1806 3.54159 10.3299 3.48256 10.4479 3.3645C10.566 3.24645 10.625 3.09714 10.625 2.91659C10.625 2.73603 10.566 2.58672 10.4479 2.46867C10.3299 2.35061 10.1806 2.29159 10 2.29159C9.81944 2.29159 9.67014 2.35061 9.55208 2.46867C9.43403 2.58672 9.375 2.73603 9.375 2.91659C9.375 3.09714 9.43403 3.24645 9.55208 3.3645C9.67014 3.48256 9.81944 3.54159 10 3.54159Z" fill="#2C3333"/>
</g>
</svg>
