<svg width="23" height="23" viewBox="0 0 23 23" fill="none" xmlns="http://www.w3.org/2000/svg">
<g clip-path="url(#clip0_7040_5170)">
<path d="M9.92926 10.2949C9.30796 10.4027 8.70979 10.5689 8.15241 10.7995C7.81912 10.9554 7.68647 11.5905 7.58894 12.0574C7.56459 12.1741 7.54236 12.2803 7.5198 12.3659L7.51202 12.3936C7.39543 12.8088 7.26603 13.2698 6.8065 13.5695C6.39543 13.8405 4.30321 14.0885 3.65298 14.085C3.23122 14.0866 2.89181 13.9824 2.64659 13.7724C1.76505 12.9614 1.94859 10.8753 2.05565 10.4415C2.21168 9.44501 2.98782 8.68059 4.33702 8.17182C5.73342 7.58077 7.76744 7.2393 9.94113 7.11989C10.7193 7.07716 12.2817 7.06315 12.7645 7.09735C15.1776 7.19374 17.5018 7.56583 19.0518 8.19858C19.7304 8.44209 20.2623 8.7623 20.6416 9.14164C21.0151 9.51515 21.242 9.95367 21.3222 10.4454C21.4146 10.7848 21.5998 12.9575 20.6945 13.8044C20.4536 13.9986 20.1193 14.1111 19.6917 14.1186C19.0414 14.1269 16.9334 13.9121 16.5185 13.6384C16.067 13.3479 15.9411 12.8881 15.8276 12.4739L15.8199 12.4459C15.7953 12.3535 15.7718 12.2381 15.7461 12.1119C15.6513 11.647 15.5269 11.0361 15.2054 10.8894C14.4503 10.5706 13.6134 10.357 12.7533 10.2483C11.8378 10.1668 10.5506 10.1872 9.92926 10.2949Z" fill="white"/>
</g>
<defs>
<clipPath id="clip0_7040_5170">
<rect width="16" height="16" fill="white" transform="translate(23 11.5) rotate(135)"/>
</clipPath>
</defs>
</svg>
