<svg width="24" height="24" viewBox="0 0 24 24" fill="none" xmlns="http://www.w3.org/2000/svg">
<path d="M3.25 23.25C2.5625 23.25 1.97396 23.0052 1.48438 22.5156C0.994792 22.026 0.75 21.4375 0.75 20.75V3.25C0.75 2.5625 0.994792 1.97396 1.48438 1.48438C1.97396 0.994792 2.5625 0.75 3.25 0.75H20.75C21.4375 0.75 22.026 0.994792 22.5156 1.48438C23.0052 1.97396 23.25 2.5625 23.25 3.25V20.75C23.25 21.4375 23.0052 22.026 22.5156 22.5156C22.026 23.0052 21.4375 23.25 20.75 23.25H3.25ZM3.25 20.75H20.75V3.25H3.25V20.75ZM4.5 18.25H19.5L14.8125 12L11.0625 17L8.25 13.25L4.5 18.25ZM7.625 9.5C8.14583 9.5 8.58854 9.31771 8.95312 8.95312C9.31771 8.58854 9.5 8.14583 9.5 7.625C9.5 7.10417 9.31771 6.66146 8.95312 6.29688C8.58854 5.93229 8.14583 5.75 7.625 5.75C7.10417 5.75 6.66146 5.93229 6.29688 6.29688C5.93229 6.66146 5.75 7.10417 5.75 7.625C5.75 8.14583 5.93229 8.58854 6.29688 8.95312C6.66146 9.31771 7.10417 9.5 7.625 9.5Z" fill="#121212"/>
</svg>
