<svg width="18" height="18" viewBox="0 0 18 18" fill="none" xmlns="http://www.w3.org/2000/svg">
<mask id="mask0_4790_3702" style="mask-type:alpha" maskUnits="userSpaceOnUse" x="0" y="0" width="18" height="18">
<rect width="18" height="18" fill="#D9D9D9"/>
</mask>
<g mask="url(#mask0_4790_3702)">
<path d="M8.25 12.75H9.75V8.25H8.25V12.75ZM9 6.75C9.2125 6.75 9.39062 6.67812 9.53437 6.53437C9.67812 6.39062 9.75 6.2125 9.75 6C9.75 5.7875 9.67812 5.60937 9.53437 5.46562C9.39062 5.32187 9.2125 5.25 9 5.25C8.7875 5.25 8.60937 5.32187 8.46562 5.46562C8.32187 5.60937 8.25 5.7875 8.25 6C8.25 6.2125 8.32187 6.39062 8.46562 6.53437C8.60937 6.67812 8.7875 6.75 9 6.75ZM9 16.5C7.9625 16.5 6.9875 16.3031 6.075 15.9094C5.1625 15.5156 4.36875 14.9812 3.69375 14.3062C3.01875 13.6312 2.48437 12.8375 2.09062 11.925C1.69687 11.0125 1.5 10.0375 1.5 9C1.5 7.9625 1.69687 6.9875 2.09062 6.075C2.48437 5.1625 3.01875 4.36875 3.69375 3.69375C4.36875 3.01875 5.1625 2.48437 6.075 2.09062C6.9875 1.69687 7.9625 1.5 9 1.5C10.0375 1.5 11.0125 1.69687 11.925 2.09062C12.8375 2.48437 13.6312 3.01875 14.3062 3.69375C14.9812 4.36875 15.5156 5.1625 15.9094 6.075C16.3031 6.9875 16.5 7.9625 16.5 9C16.5 10.0375 16.3031 11.0125 15.9094 11.925C15.5156 12.8375 14.9812 13.6312 14.3062 14.3062C13.6312 14.9812 12.8375 15.5156 11.925 15.9094C11.0125 16.3031 10.0375 16.5 9 16.5Z" fill="#FF7676"/>
</g>
</svg>
