<svg width="50" height="44" viewBox="0 0 50 44" fill="none" xmlns="http://www.w3.org/2000/svg">
<path d="M49.622 38.8262L28.2042 1.8393C26.783 -0.6131 23.2486 -0.6131 21.8274 1.8393L0.377919 38.8526C-0.699839 40.713 0.657923 43.0597 2.80287 43.0174C8.45054 42.917 17.9549 41.0619 23.8086 30.7607C26.0486 26.8231 27.8185 23.6995 29.2185 21.226L27.7498 21.0885C27.269 21.041 27.1158 20.4173 27.5226 20.153L33.0488 16.596C33.4028 16.3687 33.8677 16.6436 33.8307 17.0664L33.2812 23.6044C33.239 24.0853 32.6208 24.2439 32.3514 23.8475L31.5431 22.6424C30.777 24.154 27.6019 31.1413 31.3476 36.4953C35.5741 42.5365 40.2497 42.9857 42.3629 42.9857H47.2128C49.3578 42.991 50.6944 40.676 49.622 38.8262Z" fill="#FFA800"/>
</svg>
