<svg width="14" height="5" viewBox="0 0 14 5" fill="none" xmlns="http://www.w3.org/2000/svg">
<path d="M2.0026 4.16732C1.54427 4.16732 1.15191 4.00412 0.825521 3.67773C0.499132 3.35135 0.335938 2.95898 0.335938 2.50065C0.335938 2.04232 0.499132 1.64996 0.825521 1.32357C1.15191 0.997179 1.54427 0.833984 2.0026 0.833984C2.46094 0.833984 2.8533 0.997179 3.17969 1.32357C3.50608 1.64996 3.66927 2.04232 3.66927 2.50065C3.66927 2.95898 3.50608 3.35135 3.17969 3.67773C2.8533 4.00412 2.46094 4.16732 2.0026 4.16732ZM7.0026 4.16732C6.54427 4.16732 6.15191 4.00412 5.82552 3.67773C5.49913 3.35135 5.33594 2.95898 5.33594 2.50065C5.33594 2.04232 5.49913 1.64996 5.82552 1.32357C6.15191 0.997179 6.54427 0.833984 7.0026 0.833984C7.46094 0.833984 7.8533 0.997179 8.17969 1.32357C8.50608 1.64996 8.66927 2.04232 8.66927 2.50065C8.66927 2.95898 8.50608 3.35135 8.17969 3.67773C7.8533 4.00412 7.46094 4.16732 7.0026 4.16732ZM12.0026 4.16732C11.5443 4.16732 11.1519 4.00412 10.8255 3.67773C10.4991 3.35135 10.3359 2.95898 10.3359 2.50065C10.3359 2.04232 10.4991 1.64996 10.8255 1.32357C11.1519 0.997179 11.5443 0.833984 12.0026 0.833984C12.4609 0.833984 12.8533 0.997179 13.1797 1.32357C13.5061 1.64996 13.6693 2.04232 13.6693 2.50065C13.6693 2.95898 13.5061 3.35135 13.1797 3.67773C12.8533 4.00412 12.4609 4.16732 12.0026 4.16732Z" fill="#121212"/>
</svg>
