<svg width="18" height="18" viewBox="0 0 18 18" fill="none" xmlns="http://www.w3.org/2000/svg">
<mask id="mask0_4790_3434" style="mask-type:alpha" maskUnits="userSpaceOnUse" x="0" y="0" width="18" height="18">
<rect width="18" height="18" fill="#D9D9D9"/>
</mask>
<g mask="url(#mask0_4790_3434)">
<path d="M13.05 9.75L12 8.7L13.5563 7.125L12 5.56875L13.05 4.5L14.625 6.075L16.1813 4.5L17.25 5.56875L15.675 7.125L17.25 8.7L16.1813 9.75L14.625 8.19375L13.05 9.75ZM6.75 9C5.925 9 5.21875 8.70625 4.63125 8.11875C4.04375 7.53125 3.75 6.825 3.75 6C3.75 5.175 4.04375 4.46875 4.63125 3.88125C5.21875 3.29375 5.925 3 6.75 3C7.575 3 8.28125 3.29375 8.86875 3.88125C9.45625 4.46875 9.75 5.175 9.75 6C9.75 6.825 9.45625 7.53125 8.86875 8.11875C8.28125 8.70625 7.575 9 6.75 9ZM0.75 15V12.9C0.75 12.475 0.859375 12.0844 1.07812 11.7281C1.29688 11.3719 1.5875 11.1 1.95 10.9125C2.725 10.525 3.5125 10.2344 4.3125 10.0406C5.1125 9.84687 5.925 9.75 6.75 9.75C7.575 9.75 8.3875 9.84687 9.1875 10.0406C9.9875 10.2344 10.775 10.525 11.55 10.9125C11.9125 11.1 12.2031 11.3719 12.4219 11.7281C12.6406 12.0844 12.75 12.475 12.75 12.9V15H0.75Z" fill="#121212"/>
</g>
</svg>
