<svg width="18" height="18" viewBox="0 0 18 18" fill="none" xmlns="http://www.w3.org/2000/svg">
<mask id="mask0_1629_11962" style="mask-type:alpha" maskUnits="userSpaceOnUse" x="0" y="0" width="18" height="18">
<rect width="18" height="18" fill="#D9D9D9"/>
</mask>
<g mask="url(#mask0_1629_11962)">
<path d="M8.25 9C7.425 9 6.71875 8.70625 6.13125 8.11875C5.54375 7.53125 5.25 6.825 5.25 6C5.25 5.175 5.54375 4.46875 6.13125 3.88125C6.71875 3.29375 7.425 3 8.25 3C9.075 3 9.78125 3.29375 10.3687 3.88125C10.9563 4.46875 11.25 5.175 11.25 6C11.25 6.825 10.9563 7.53125 10.3687 8.11875C9.78125 8.70625 9.075 9 8.25 9ZM16.575 17.625L14.175 15.225C13.9125 15.375 13.6313 15.5 13.3313 15.6C13.0312 15.7 12.7125 15.75 12.375 15.75C11.4375 15.75 10.6406 15.4219 9.98438 14.7656C9.32812 14.1094 9 13.3125 9 12.375C9 11.4375 9.32812 10.6406 9.98438 9.98438C10.6406 9.32812 11.4375 9 12.375 9C13.3125 9 14.1094 9.32812 14.7656 9.98438C15.4219 10.6406 15.75 11.4375 15.75 12.375C15.75 12.7125 15.7 13.0312 15.6 13.3313C15.5 13.6313 15.375 13.9125 15.225 14.175L17.625 16.575L16.575 17.625ZM12.375 14.25C12.9 14.25 13.3438 14.0688 13.7063 13.7063C14.0688 13.3438 14.25 12.9 14.25 12.375C14.25 11.85 14.0688 11.4062 13.7063 11.0438C13.3438 10.6813 12.9 10.5 12.375 10.5C11.85 10.5 11.4062 10.6813 11.0438 11.0438C10.6813 11.4062 10.5 11.85 10.5 12.375C10.5 12.9 10.6813 13.3438 11.0438 13.7063C11.4062 14.0688 11.85 14.25 12.375 14.25ZM8.26875 9.75C7.74375 10.525 7.48125 11.4 7.48125 12.375C7.48125 13.35 7.74375 14.225 8.26875 15H2.25V12.9188C2.25 12.4938 2.35625 12.1 2.56875 11.7375C2.78125 11.375 3.075 11.1 3.45 10.9125C4.0875 10.5875 4.80625 10.3125 5.60625 10.0875C6.40625 9.8625 7.29375 9.75 8.26875 9.75Z" fill="#121212"/>
</g>
</svg>
