<svg width="18" height="18" viewBox="0 0 18 18" fill="none" xmlns="http://www.w3.org/2000/svg">
<mask id="mask0_4790_3400" style="mask-type:alpha" maskUnits="userSpaceOnUse" x="0" y="0" width="18" height="18">
<rect width="18" height="18" fill="#D9D9D9"/>
</mask>
<g mask="url(#mask0_4790_3400)">
<path d="M7.33125 9C6.88125 9 6.50625 8.83125 6.20625 8.49375C5.90625 8.15625 5.7875 7.7625 5.85 7.3125L6.09375 5.475C6.19375 4.7625 6.51875 4.17188 7.06875 3.70312C7.61875 3.23438 8.2625 3 9 3C9.7375 3 10.3812 3.23438 10.9312 3.70312C11.4812 4.17188 11.8062 4.7625 11.9062 5.475L12.15 7.3125C12.2125 7.7625 12.0938 8.15625 11.7938 8.49375C11.4938 8.83125 11.1188 9 10.6688 9H7.33125ZM3 15V12.9C3 12.475 3.10937 12.0844 3.32812 11.7281C3.54688 11.3719 3.8375 11.1 4.2 10.9125C4.975 10.525 5.7625 10.2344 6.5625 10.0406C7.3625 9.84687 8.175 9.75 9 9.75C9.825 9.75 10.6375 9.84687 11.4375 10.0406C12.2375 10.2344 13.025 10.525 13.8 10.9125C14.1625 11.1 14.4531 11.3719 14.6719 11.7281C14.8906 12.0844 15 12.475 15 12.9V15H3Z" fill="#121212"/>
</g>
</svg>
