<svg width="15" height="15" viewBox="0 0 15 15" fill="none" xmlns="http://www.w3.org/2000/svg">
<mask id="mask0_4477_13445" style="mask-type:alpha" maskUnits="userSpaceOnUse" x="0" y="0" width="15" height="15">
<rect width="15" height="15" fill="#D9D9D9"/>
</mask>
<g mask="url(#mask0_4477_13445)">
<path d="M7.5 10.9375C8.28125 10.9375 8.94531 10.6641 9.49219 10.1172C10.0391 9.57031 10.3125 8.90625 10.3125 8.125C10.3125 7.34375 10.0391 6.67969 9.49219 6.13281C8.94531 5.58594 8.28125 5.3125 7.5 5.3125C6.71875 5.3125 6.05469 5.58594 5.50781 6.13281C4.96094 6.67969 4.6875 7.34375 4.6875 8.125C4.6875 8.90625 4.96094 9.57031 5.50781 10.1172C6.05469 10.6641 6.71875 10.9375 7.5 10.9375ZM7.5 9.6875C7.0625 9.6875 6.69271 9.53646 6.39062 9.23438C6.08854 8.93229 5.9375 8.5625 5.9375 8.125C5.9375 7.6875 6.08854 7.31771 6.39062 7.01562C6.69271 6.71354 7.0625 6.5625 7.5 6.5625C7.9375 6.5625 8.30729 6.71354 8.60938 7.01562C8.91146 7.31771 9.0625 7.6875 9.0625 8.125C9.0625 8.5625 8.91146 8.93229 8.60938 9.23438C8.30729 9.53646 7.9375 9.6875 7.5 9.6875ZM2.5 13.125C2.15625 13.125 1.86198 13.0026 1.61719 12.7578C1.3724 12.513 1.25 12.2188 1.25 11.875V4.375C1.25 4.03125 1.3724 3.73698 1.61719 3.49219C1.86198 3.2474 2.15625 3.125 2.5 3.125H4.46875L5.625 1.875H9.375L10.5312 3.125H12.5C12.8438 3.125 13.138 3.2474 13.3828 3.49219C13.6276 3.73698 13.75 4.03125 13.75 4.375V11.875C13.75 12.2188 13.6276 12.513 13.3828 12.7578C13.138 13.0026 12.8438 13.125 12.5 13.125H2.5Z" fill="white"/>
</g>
</svg>
