<svg width="14" height="15" viewBox="0 0 14 15" fill="none" xmlns="http://www.w3.org/2000/svg">
<mask id="mask0_4941_5961" style="mask-type:alpha" maskUnits="userSpaceOnUse" x="0" y="0" width="14" height="15">
<rect y="0.5" width="14" height="14" fill="#D9D9D9"/>
</mask>
<g mask="url(#mask0_4941_5961)">
<path d="M6.41927 12.1693V7.4151L4.9026 8.93177L4.08594 8.08594L7.0026 5.16927L9.91927 8.08594L9.1026 8.93177L7.58594 7.4151V12.1693H6.41927ZM2.33594 5.7526V4.0026C2.33594 3.68177 2.45017 3.40712 2.67865 3.17865C2.90712 2.95017 3.18177 2.83594 3.5026 2.83594H10.5026C10.8234 2.83594 11.0981 2.95017 11.3266 3.17865C11.555 3.40712 11.6693 3.68177 11.6693 4.0026V5.7526H10.5026V4.0026H3.5026V5.7526H2.33594Z" fill="#1C1B1F"/>
</g>
</svg>
