<svg width="14" height="14" viewBox="0 0 14 14" fill="none" xmlns="http://www.w3.org/2000/svg">
<mask id="mask0_4741_6361" style="mask-type:alpha" maskUnits="userSpaceOnUse" x="0" y="0" width="14" height="14">
<rect width="14" height="14" fill="#D9D9D9"/>
</mask>
<g mask="url(#mask0_4741_6361)">
<path d="M8.9224 9.74297L9.73906 8.9263L7.58073 6.76797V4.08464H6.41406V7.23464L8.9224 9.74297ZM6.9974 12.8346C6.19045 12.8346 5.43212 12.6815 4.7224 12.3753C4.01267 12.069 3.39531 11.6534 2.87031 11.1284C2.34531 10.6034 1.92969 9.98603 1.62344 9.2763C1.31719 8.56658 1.16406 7.80825 1.16406 7.0013C1.16406 6.19436 1.31719 5.43602 1.62344 4.7263C1.92969 4.01658 2.34531 3.39922 2.87031 2.87422C3.39531 2.34922 4.01267 1.93359 4.7224 1.62734C5.43212 1.32109 6.19045 1.16797 6.9974 1.16797C7.80434 1.16797 8.56267 1.32109 9.2724 1.62734C9.98212 1.93359 10.5995 2.34922 11.1245 2.87422C11.6495 3.39922 12.0651 4.01658 12.3714 4.7263C12.6776 5.43602 12.8307 6.19436 12.8307 7.0013C12.8307 7.80825 12.6776 8.56658 12.3714 9.2763C12.0651 9.98603 11.6495 10.6034 11.1245 11.1284C10.5995 11.6534 9.98212 12.069 9.2724 12.3753C8.56267 12.6815 7.80434 12.8346 6.9974 12.8346Z" fill="white"/>
</g>
</svg>
