<svg width="14" height="14" viewBox="0 0 14 14" fill="none" xmlns="http://www.w3.org/2000/svg">
<g id="search">
<mask id="mask0_1431_5329" style="mask-type:alpha" maskUnits="userSpaceOnUse" x="0" y="0" width="14" height="14">
<rect id="Bounding box" width="14" height="14" fill="#D9D9D9"/>
</mask>
<g mask="url(#mask0_1431_5329)">
<path id="search_2" d="M11.4333 12.25L7.75833 8.575C7.46667 8.80833 7.13125 8.99306 6.75208 9.12917C6.37292 9.26528 5.96944 9.33333 5.54167 9.33333C4.48194 9.33333 3.58507 8.96632 2.85104 8.23229C2.11701 7.49826 1.75 6.60139 1.75 5.54167C1.75 4.48194 2.11701 3.58507 2.85104 2.85104C3.58507 2.11701 4.48194 1.75 5.54167 1.75C6.60139 1.75 7.49826 2.11701 8.23229 2.85104C8.96632 3.58507 9.33333 4.48194 9.33333 5.54167C9.33333 5.96944 9.26528 6.37292 9.12917 6.75208C8.99306 7.13125 8.80833 7.46667 8.575 7.75833L12.25 11.4333L11.4333 12.25ZM5.54167 8.16667C6.27083 8.16667 6.89062 7.91146 7.40104 7.40104C7.91146 6.89062 8.16667 6.27083 8.16667 5.54167C8.16667 4.8125 7.91146 4.19271 7.40104 3.68229C6.89062 3.17188 6.27083 2.91667 5.54167 2.91667C4.8125 2.91667 4.19271 3.17188 3.68229 3.68229C3.17188 4.19271 2.91667 4.8125 2.91667 5.54167C2.91667 6.27083 3.17188 6.89062 3.68229 7.40104C4.19271 7.91146 4.8125 8.16667 5.54167 8.16667Z" fill="white"/>
</g>
</g>
</svg>
