<svg width="14" height="15" viewBox="0 0 14 15" fill="none" xmlns="http://www.w3.org/2000/svg">
<g id="settings">
<mask id="mask0_1375_5520" style="mask-type:alpha" maskUnits="userSpaceOnUse" x="0" y="0" width="14" height="15">
<rect id="Bounding box" y="0.5" width="14" height="14" fill="#D9D9D9"/>
</mask>
<g mask="url(#mask0_1375_5520)">
<path id="settings_2" d="M5.39578 13.3333L5.16245 11.4666C5.03606 11.418 4.91696 11.3597 4.80516 11.2916C4.69335 11.2236 4.58398 11.1507 4.47703 11.0729L2.74162 11.802L1.13745 9.03121L2.63953 7.89371C2.62981 7.82565 2.62495 7.76003 2.62495 7.69683V7.30308C2.62495 7.23989 2.62981 7.17426 2.63953 7.10621L1.13745 5.96871L2.74162 3.19788L4.47703 3.92704C4.58398 3.84926 4.69578 3.77635 4.81245 3.70829C4.92912 3.64024 5.04578 3.5819 5.16245 3.53329L5.39578 1.66663H8.60412L8.83745 3.53329C8.96384 3.5819 9.08294 3.64024 9.19474 3.70829C9.30655 3.77635 9.41592 3.84926 9.52287 3.92704L11.2583 3.19788L12.8625 5.96871L11.3604 7.10621C11.3701 7.17426 11.375 7.23989 11.375 7.30308V7.69683C11.375 7.76003 11.3652 7.82565 11.3458 7.89371L12.8479 9.03121L11.2437 11.802L9.52287 11.0729C9.41592 11.1507 9.30412 11.2236 9.18745 11.2916C9.07078 11.3597 8.95412 11.418 8.83745 11.4666L8.60412 13.3333H5.39578ZM7.02912 9.54163C7.59301 9.54163 8.07426 9.34232 8.47287 8.94371C8.87148 8.5451 9.07078 8.06385 9.07078 7.49996C9.07078 6.93607 8.87148 6.45482 8.47287 6.05621C8.07426 5.6576 7.59301 5.45829 7.02912 5.45829C6.45551 5.45829 5.97183 5.6576 5.57808 6.05621C5.18433 6.45482 4.98745 6.93607 4.98745 7.49996C4.98745 8.06385 5.18433 8.5451 5.57808 8.94371C5.97183 9.34232 6.45551 9.54163 7.02912 9.54163Z" fill="#121212"/>
</g>
</g>
</svg>
