<svg width="14" height="15" viewBox="0 0 14 15" fill="none" xmlns="http://www.w3.org/2000/svg">
<mask id="mask0_4941_5967" style="mask-type:alpha" maskUnits="userSpaceOnUse" x="0" y="0" width="14" height="15">
<rect y="0.5" width="14" height="14" fill="#D9D9D9"/>
</mask>
<g mask="url(#mask0_4941_5967)">
<path d="M5.39896 13.3307L5.16563 11.4641C5.03924 11.4155 4.92014 11.3571 4.80833 11.2891C4.69653 11.221 4.58715 11.1481 4.48021 11.0703L2.74479 11.7995L1.14062 9.02865L2.64271 7.89115C2.63299 7.82309 2.62812 7.75747 2.62812 7.69427V7.30052C2.62812 7.23733 2.63299 7.1717 2.64271 7.10365L1.14062 5.96615L2.74479 3.19531L4.48021 3.92448C4.58715 3.8467 4.69896 3.77378 4.81562 3.70573C4.93229 3.63767 5.04896 3.57934 5.16563 3.53073L5.39896 1.66406H8.60729L8.84062 3.53073C8.96701 3.57934 9.08611 3.63767 9.19792 3.70573C9.30972 3.77378 9.4191 3.8467 9.52604 3.92448L11.2615 3.19531L12.8656 5.96615L11.3635 7.10365C11.3733 7.1717 11.3781 7.23733 11.3781 7.30052V7.69427C11.3781 7.75747 11.3684 7.82309 11.349 7.89115L12.851 9.02865L11.2469 11.7995L9.52604 11.0703C9.4191 11.1481 9.30729 11.221 9.19063 11.2891C9.07396 11.3571 8.95729 11.4155 8.84062 11.4641L8.60729 13.3307H5.39896ZM7.03229 9.53906C7.59618 9.53906 8.07743 9.33976 8.47604 8.94115C8.87465 8.54253 9.07396 8.06128 9.07396 7.4974C9.07396 6.93351 8.87465 6.45226 8.47604 6.05365C8.07743 5.65503 7.59618 5.45573 7.03229 5.45573C6.45868 5.45573 5.975 5.65503 5.58125 6.05365C5.1875 6.45226 4.99062 6.93351 4.99062 7.4974C4.99062 8.06128 5.1875 8.54253 5.58125 8.94115C5.975 9.33976 6.45868 9.53906 7.03229 9.53906Z" fill="white"/>
</g>
</svg>
