<svg width="15" height="16" viewBox="0 0 15 16" fill="none" xmlns="http://www.w3.org/2000/svg">
<mask id="mask0_4952_4017" style="mask-type:alpha" maskUnits="userSpaceOnUse" x="0" y="0" width="15" height="16">
<rect y="0.5" width="15" height="15" fill="#D9D9D9"/>
</mask>
<g mask="url(#mask0_4952_4017)">
<path d="M7.5 11.125C7.67708 11.125 7.82552 11.0651 7.94531 10.9453C8.0651 10.8255 8.125 10.6771 8.125 10.5C8.125 10.3229 8.0651 10.1745 7.94531 10.0547C7.82552 9.9349 7.67708 9.875 7.5 9.875C7.32292 9.875 7.17448 9.9349 7.05469 10.0547C6.9349 10.1745 6.875 10.3229 6.875 10.5C6.875 10.6771 6.9349 10.8255 7.05469 10.9453C7.17448 11.0651 7.32292 11.125 7.5 11.125ZM6.875 8.625H8.125V4.875H6.875V8.625ZM5.15625 13.625L1.875 10.3438V5.65625L5.15625 2.375H9.84375L13.125 5.65625V10.3438L9.84375 13.625H5.15625Z" fill="#A30000"/>
</g>
</svg>
