<svg width="12" height="11" viewBox="0 0 12 11" fill="none" xmlns="http://www.w3.org/2000/svg">
<path d="M1.33073 10.1693C1.0099 10.1693 0.735243 10.055 0.506771 9.82656C0.278299 9.59809 0.164062 9.32344 0.164062 9.0026V2.0026C0.164062 1.68177 0.278299 1.40712 0.506771 1.17865C0.735243 0.950174 1.0099 0.835938 1.33073 0.835938H4.2474V2.0026H1.33073V9.0026H10.6641V2.0026H7.7474V0.835938H10.6641C10.9849 0.835938 11.2595 0.950174 11.488 1.17865C11.7165 1.40712 11.8307 1.68177 11.8307 2.0026V9.0026C11.8307 9.32344 11.7165 9.59809 11.488 9.82656C11.2595 10.055 10.9849 10.1693 10.6641 10.1693H1.33073ZM5.9974 7.48594L3.08073 4.56927L3.8974 3.7526L5.41406 5.26927V0.835938H6.58073V5.26927L8.0974 3.7526L8.91406 4.56927L5.9974 7.48594Z" fill="#1C1B1F"/>
</svg>
