<svg width="14" height="14" viewBox="0 0 14 14" fill="none" xmlns="http://www.w3.org/2000/svg">
<mask id="mask0_1629_11526" style="mask-type:alpha" maskUnits="userSpaceOnUse" x="0" y="0" width="14" height="14">
<rect width="14" height="14" fill="#D9D9D9"/>
</mask>
<g mask="url(#mask0_1629_11526)">
<path d="M7 12.25C6.27083 12.25 5.58785 12.1115 4.95104 11.8344C4.31424 11.5573 3.76007 11.183 3.28854 10.7115C2.81701 10.2399 2.44271 9.68576 2.16563 9.04896C1.88854 8.41215 1.75 7.72917 1.75 7C1.75 6.27083 1.88854 5.58785 2.16563 4.95104C2.44271 4.31424 2.81701 3.76007 3.28854 3.28854C3.76007 2.81701 4.31424 2.44271 4.95104 2.16563C5.58785 1.88854 6.27083 1.75 7 1.75C7.79722 1.75 8.55312 1.92014 9.26771 2.26042C9.98229 2.60069 10.5875 3.08194 11.0833 3.70417V2.33333H12.25V5.83333H8.75V4.66667H10.3542C9.95555 4.12222 9.46458 3.69444 8.88125 3.38333C8.29792 3.07222 7.67083 2.91667 7 2.91667C5.8625 2.91667 4.89757 3.31285 4.10521 4.10521C3.31285 4.89757 2.91667 5.8625 2.91667 7C2.91667 8.1375 3.31285 9.10243 4.10521 9.89479C4.89757 10.6872 5.8625 11.0833 7 11.0833C8.02083 11.0833 8.91285 10.7528 9.67604 10.0917C10.4392 9.43056 10.8889 8.59444 11.025 7.58333H12.2208C12.075 8.91528 11.5038 10.026 10.5073 10.9156C9.51076 11.8052 8.34167 12.25 7 12.25ZM8.63333 9.45L6.41667 7.23333V4.08333H7.58333V6.76667L9.45 8.63333L8.63333 9.45Z" fill="#121212"/>
</g>
</svg>
