<svg width="17" height="18" viewBox="0 0 17 18" fill="none" xmlns="http://www.w3.org/2000/svg">
<path d="M12.1667 17.3332C11.0139 17.3332 10.0312 16.9269 9.21875 16.1144C8.40625 15.3019 8 14.3193 8 13.1665C8 12.0137 8.40625 11.0311 9.21875 10.2186C10.0312 9.40609 11.0139 8.99984 12.1667 8.99984C13.3194 8.99984 14.3021 9.40609 15.1146 10.2186C15.9271 11.0311 16.3333 12.0137 16.3333 13.1665C16.3333 14.3193 15.9271 15.3019 15.1146 16.1144C14.3021 16.9269 13.3194 17.3332 12.1667 17.3332ZM12.1667 15.6665C12.3194 15.6665 12.4479 15.6144 12.5521 15.5103C12.6562 15.4061 12.7083 15.2776 12.7083 15.1248C12.7083 14.9721 12.6562 14.8436 12.5521 14.7394C12.4479 14.6353 12.3194 14.5832 12.1667 14.5832C12.0139 14.5832 11.8854 14.6353 11.7812 14.7394C11.6771 14.8436 11.625 14.9721 11.625 15.1248C11.625 15.2776 11.6771 15.4061 11.7812 15.5103C11.8854 15.6144 12.0139 15.6665 12.1667 15.6665ZM11.7917 14.0832H12.5417V13.8748C12.5417 13.7221 12.5833 13.5866 12.6667 13.4686C12.75 13.3505 12.8472 13.2359 12.9583 13.1248C13.1528 12.9582 13.3056 12.7984 13.4167 12.6457C13.5278 12.4929 13.5833 12.2776 13.5833 11.9998C13.5833 11.5971 13.4514 11.2741 13.1875 11.0311C12.9236 10.788 12.5833 10.6665 12.1667 10.6665C11.8472 10.6665 11.559 10.7603 11.3021 10.9478C11.0451 11.1353 10.8611 11.3887 10.75 11.7082L11.4167 11.9998C11.4583 11.8332 11.5451 11.6873 11.6771 11.5623C11.809 11.4373 11.9722 11.3748 12.1667 11.3748C12.375 11.3748 12.5382 11.4269 12.6562 11.5311C12.7743 11.6353 12.8333 11.7915 12.8333 11.9998C12.8333 12.1526 12.7917 12.2811 12.7083 12.3853C12.625 12.4894 12.5278 12.5971 12.4167 12.7082C12.3333 12.7915 12.2465 12.8748 12.1562 12.9582C12.066 13.0415 11.9861 13.1387 11.9167 13.2498C11.875 13.3332 11.8438 13.4165 11.8229 13.4998C11.8021 13.5832 11.7917 13.6804 11.7917 13.7915V14.0832ZM8 6.49984H12.1667L8 2.33317V6.49984ZM2.16667 17.3332C1.70833 17.3332 1.31597 17.17 0.989583 16.8436C0.663194 16.5172 0.5 16.1248 0.5 15.6665V2.33317C0.5 1.87484 0.663194 1.48248 0.989583 1.15609C1.31597 0.829698 1.70833 0.666504 2.16667 0.666504H8.83333L13.8333 5.6665V7.58317C13.5556 7.49984 13.2778 7.43734 13 7.39567C12.7222 7.354 12.4444 7.33317 12.1667 7.33317C11.375 7.33317 10.6285 7.48248 9.92708 7.78109C9.22569 8.0797 8.61111 8.48595 8.08333 8.99984H3.83333V10.6665H6.89583C6.77083 10.9304 6.66667 11.2012 6.58333 11.479C6.5 11.7568 6.4375 12.0415 6.39583 12.3332H3.83333V13.9998H6.39583C6.49306 14.6248 6.6875 15.2255 6.97917 15.8019C7.27083 16.3783 7.64583 16.8887 8.10417 17.3332H2.16667Z" fill="#121212"/>
</svg>
