<svg width="14" height="14" viewBox="0 0 14 14" fill="none" xmlns="http://www.w3.org/2000/svg">
<g id="Group 164">
<g id="description">
<mask id="mask0_1409_4640" style="mask-type:alpha" maskUnits="userSpaceOnUse" x="0" y="0" width="14" height="14">
<rect id="Bounding box" width="14" height="14" fill="#D9D9D9"/>
</mask>
<g mask="url(#mask0_1409_4640)">
<path id="description_2" d="M4.66659 10.5003H9.33325V9.33366H4.66659V10.5003ZM4.66659 8.16699H9.33325V7.00033H4.66659V8.16699ZM3.49992 12.8337C3.17909 12.8337 2.90443 12.7194 2.67596 12.491C2.44749 12.2625 2.33325 11.9878 2.33325 11.667V2.33366C2.33325 2.01283 2.44749 1.73817 2.67596 1.5097C2.90443 1.28123 3.17909 1.16699 3.49992 1.16699H8.16658L11.6666 4.66699V11.667C11.6666 11.9878 11.5523 12.2625 11.3239 12.491C11.0954 12.7194 10.8208 12.8337 10.4999 12.8337H3.49992ZM7.58325 5.25033H10.4999L7.58325 2.33366V5.25033Z" fill="#121212"/>
</g>
</g>
</g>
</svg>
