<svg width="16" height="16" viewBox="0 0 16 16" fill="none" xmlns="http://www.w3.org/2000/svg">
<g clip-path="url(#clip0_7044_8265)">
<path d="M7.24609 8.00004C7.24609 8.31607 7.52969 8.66671 7.99843 8.66671C8.46723 8.66671 8.75076 8.31607 8.75076 8.00004C8.75076 7.68401 8.46723 7.33337 7.99843 7.33337C7.52969 7.33337 7.24609 7.68401 7.24609 8.00004Z" fill="#121212"/>
<path fill-rule="evenodd" clip-rule="evenodd" d="M0.299835 8.75487C-0.0999454 8.32185 -0.0999448 7.67823 0.299835 7.24521C1.51916 5.92448 4.37342 3.33337 7.99973 3.33337C11.626 3.33337 14.4803 5.92448 15.6996 7.24521C16.0994 7.67823 16.0994 8.32185 15.6996 8.75487C14.4803 10.0756 11.626 12.6667 7.99973 12.6667C4.37342 12.6667 1.51916 10.0756 0.299835 8.75487ZM5.91334 8.00004C5.91334 9.10461 6.84713 10 7.999 10C9.15093 10 10.0847 9.10461 10.0847 8.00004C10.0847 6.89547 9.15093 6.00004 7.999 6.00004C6.84713 6.00004 5.91334 6.89547 5.91334 8.00004Z" fill="#121212"/>
</g>
<defs>
<clipPath id="clip0_7044_8265">
<rect width="16" height="16" fill="white"/>
</clipPath>
</defs>
</svg>
