<svg width="15" height="14" viewBox="0 0 15 14" fill="none" xmlns="http://www.w3.org/2000/svg">
<mask id="mask0_4542_7197" style="mask-type:alpha" maskUnits="userSpaceOnUse" x="0" y="0" width="15" height="14">
<rect x="0.5" width="14" height="14" fill="#D9D9D9"/>
</mask>
<g mask="url(#mask0_4542_7197)">
<path d="M7.5026 9.33301C8.23177 9.33301 8.85156 9.0778 9.36198 8.56738C9.8724 8.05697 10.1276 7.43717 10.1276 6.70801C10.1276 5.97884 9.8724 5.35905 9.36198 4.84863C8.85156 4.33822 8.23177 4.08301 7.5026 4.08301C6.77344 4.08301 6.15365 4.33822 5.64323 4.84863C5.13281 5.35905 4.8776 5.97884 4.8776 6.70801C4.8776 7.43717 5.13281 8.05697 5.64323 8.56738C6.15365 9.0778 6.77344 9.33301 7.5026 9.33301ZM7.5026 8.28301C7.0651 8.28301 6.69323 8.12988 6.38698 7.82363C6.08073 7.51738 5.9276 7.14551 5.9276 6.70801C5.9276 6.27051 6.08073 5.89863 6.38698 5.59238C6.69323 5.28613 7.0651 5.13301 7.5026 5.13301C7.9401 5.13301 8.31198 5.28613 8.61823 5.59238C8.92448 5.89863 9.0776 6.27051 9.0776 6.70801C9.0776 7.14551 8.92448 7.51738 8.61823 7.82363C8.31198 8.12988 7.9401 8.28301 7.5026 8.28301ZM7.5026 11.083C6.08316 11.083 4.7901 10.6868 3.62344 9.89447C2.45677 9.10211 1.61094 8.03995 1.08594 6.70801C1.61094 5.37606 2.45677 4.31391 3.62344 3.52155C4.7901 2.72919 6.08316 2.33301 7.5026 2.33301C8.92205 2.33301 10.2151 2.72919 11.3818 3.52155C12.5484 4.31391 13.3943 5.37606 13.9193 6.70801C13.3943 8.03995 12.5484 9.10211 11.3818 9.89447C10.2151 10.6868 8.92205 11.083 7.5026 11.083Z" fill="#121212"/>
</g>
</svg>
