<svg width="15" height="16" viewBox="0 0 15 16" fill="none" xmlns="http://www.w3.org/2000/svg">
<mask id="mask0_4965_7622" style="mask-type:alpha" maskUnits="userSpaceOnUse" x="0" y="0" width="15" height="16">
<rect y="0.5" width="15" height="15" fill="#D9D9D9"/>
</mask>
<g mask="url(#mask0_4965_7622)">
<path d="M0.625 13.625L7.5 1.75L14.375 13.625H0.625ZM7.5 11.75C7.67708 11.75 7.82552 11.6901 7.94531 11.5703C8.0651 11.4505 8.125 11.3021 8.125 11.125C8.125 10.9479 8.0651 10.7995 7.94531 10.6797C7.82552 10.5599 7.67708 10.5 7.5 10.5C7.32292 10.5 7.17448 10.5599 7.05469 10.6797C6.9349 10.7995 6.875 10.9479 6.875 11.125C6.875 11.3021 6.9349 11.4505 7.05469 11.5703C7.17448 11.6901 7.32292 11.75 7.5 11.75ZM6.875 9.875H8.125V6.75H6.875V9.875Z" fill="#FF9901"/>
</g>
</svg>
