<svg width="16" height="17" viewBox="0 0 16 17" fill="none" xmlns="http://www.w3.org/2000/svg">
<mask id="mask0_4560_9318" style="mask-type:alpha" maskUnits="userSpaceOnUse" x="0" y="0" width="16" height="17">
<rect y="0.5" width="16" height="16" fill="#D9D9D9"/>
</mask>
<g mask="url(#mask0_4560_9318)">
<path d="M2.66927 14.5007C2.3026 14.5007 1.98872 14.3701 1.7276 14.109C1.46649 13.8479 1.33594 13.534 1.33594 13.1673V5.83398C1.33594 5.46732 1.46649 5.15343 1.7276 4.89232C1.98872 4.63121 2.3026 4.50065 2.66927 4.50065H5.33594V3.16732C5.33594 2.80065 5.46649 2.48676 5.7276 2.22565C5.98872 1.96454 6.3026 1.83398 6.66927 1.83398H9.33594C9.7026 1.83398 10.0165 1.96454 10.2776 2.22565C10.5387 2.48676 10.6693 2.80065 10.6693 3.16732V4.50065H13.3359C13.7026 4.50065 14.0165 4.63121 14.2776 4.89232C14.5387 5.15343 14.6693 5.46732 14.6693 5.83398V13.1673C14.6693 13.534 14.5387 13.8479 14.2776 14.109C14.0165 14.3701 13.7026 14.5007 13.3359 14.5007H2.66927ZM6.66927 4.50065H9.33594V3.16732H6.66927V4.50065Z" fill="#121212"/>
</g>
</svg>
