<svg width="14" height="14" viewBox="0 0 14 14" fill="none" xmlns="http://www.w3.org/2000/svg">
<g clip-path="url(#clip0_10230_16377)">
<path d="M2.69141 3.76934C2.69141 5.55365 4.13787 7.00011 5.92218 7.00011C7.70648 7.00011 9.15295 5.55365 9.15295 3.76934C9.15295 1.98504 7.70648 0.538574 5.92218 0.538574C4.13787 0.538574 2.69141 1.98504 2.69141 3.76934Z" fill="#006CFE"/>
<path d="M0 10.7695C0 12.9866 1.04542 13.4618 5.92308 13.4618C10.8007 13.4618 11.8462 12.9866 11.8462 10.7695C11.8462 8.55234 10.8007 8.07715 5.92308 8.07715C1.04542 8.07715 0 8.55234 0 10.7695Z" fill="#006CFE"/>
<path d="M9.69141 5.92338C9.69141 5.62599 9.93248 5.38492 10.2299 5.38492H11.3068V4.30799C11.3068 4.01061 11.5479 3.76953 11.8453 3.76953C12.1426 3.76953 12.3837 4.01061 12.3837 4.30799V5.38492H13.4606C13.758 5.38492 13.9991 5.62599 13.9991 5.92338C13.9991 6.22077 13.758 6.46184 13.4606 6.46184H12.3837V7.53876C12.3837 7.83615 12.1426 8.07722 11.8453 8.07722C11.5479 8.07722 11.3068 7.83615 11.3068 7.53876V6.46184H10.2299C9.93248 6.46184 9.69141 6.22077 9.69141 5.92338Z" fill="#006CFE"/>
</g>
<defs>
<clipPath id="clip0_10230_16377">
<rect width="14" height="14" fill="white"/>
</clipPath>
</defs>
</svg>
