<svg width="14" height="15" viewBox="0 0 14 15" fill="none" xmlns="http://www.w3.org/2000/svg">
<mask id="mask0_7182_7285" style="mask-type:alpha" maskUnits="userSpaceOnUse" x="0" y="0" width="14" height="15">
<rect y="0.5" width="14" height="14" fill="#D9D9D9"/>
</mask>
<g mask="url(#mask0_7182_7285)">
<path d="M2.91667 13.3307C2.59583 13.3307 2.32118 13.2165 2.09271 12.988C1.86424 12.7595 1.75 12.4849 1.75 12.1641V3.9974C1.75 3.67656 1.86424 3.40191 2.09271 3.17344C2.32118 2.94497 2.59583 2.83073 2.91667 2.83073H3.5V1.66406H4.66667V2.83073H9.33333V1.66406H10.5V2.83073H11.0833C11.4042 2.83073 11.6788 2.94497 11.9073 3.17344C12.1358 3.40191 12.25 3.67656 12.25 3.9974V12.1641C12.25 12.4849 12.1358 12.7595 11.9073 12.988C11.6788 13.2165 11.4042 13.3307 11.0833 13.3307H2.91667ZM2.91667 12.1641H11.0833V6.33073H2.91667V12.1641ZM2.91667 5.16406H11.0833V3.9974H2.91667V5.16406ZM7 8.66406C6.83472 8.66406 6.69618 8.60816 6.58438 8.49635C6.47257 8.38455 6.41667 8.24601 6.41667 8.08073C6.41667 7.91545 6.47257 7.77691 6.58438 7.6651C6.69618 7.5533 6.83472 7.4974 7 7.4974C7.16528 7.4974 7.30382 7.5533 7.41563 7.6651C7.52743 7.77691 7.58333 7.91545 7.58333 8.08073C7.58333 8.24601 7.52743 8.38455 7.41563 8.49635C7.30382 8.60816 7.16528 8.66406 7 8.66406ZM4.66667 8.66406C4.50139 8.66406 4.36285 8.60816 4.25104 8.49635C4.13924 8.38455 4.08333 8.24601 4.08333 8.08073C4.08333 7.91545 4.13924 7.77691 4.25104 7.6651C4.36285 7.5533 4.50139 7.4974 4.66667 7.4974C4.83194 7.4974 4.97049 7.5533 5.08229 7.6651C5.1941 7.77691 5.25 7.91545 5.25 8.08073C5.25 8.24601 5.1941 8.38455 5.08229 8.49635C4.97049 8.60816 4.83194 8.66406 4.66667 8.66406ZM9.33333 8.66406C9.16806 8.66406 9.02951 8.60816 8.91771 8.49635C8.8059 8.38455 8.75 8.24601 8.75 8.08073C8.75 7.91545 8.8059 7.77691 8.91771 7.6651C9.02951 7.5533 9.16806 7.4974 9.33333 7.4974C9.49861 7.4974 9.63715 7.5533 9.74896 7.6651C9.86076 7.77691 9.91667 7.91545 9.91667 8.08073C9.91667 8.24601 9.86076 8.38455 9.74896 8.49635C9.63715 8.60816 9.49861 8.66406 9.33333 8.66406ZM7 10.9974C6.83472 10.9974 6.69618 10.9415 6.58438 10.8297C6.47257 10.7179 6.41667 10.5793 6.41667 10.4141C6.41667 10.2488 6.47257 10.1102 6.58438 9.99844C6.69618 9.88663 6.83472 9.83073 7 9.83073C7.16528 9.83073 7.30382 9.88663 7.41563 9.99844C7.52743 10.1102 7.58333 10.2488 7.58333 10.4141C7.58333 10.5793 7.52743 10.7179 7.41563 10.8297C7.30382 10.9415 7.16528 10.9974 7 10.9974ZM4.66667 10.9974C4.50139 10.9974 4.36285 10.9415 4.25104 10.8297C4.13924 10.7179 4.08333 10.5793 4.08333 10.4141C4.08333 10.2488 4.13924 10.1102 4.25104 9.99844C4.36285 9.88663 4.50139 9.83073 4.66667 9.83073C4.83194 9.83073 4.97049 9.88663 5.08229 9.99844C5.1941 10.1102 5.25 10.2488 5.25 10.4141C5.25 10.5793 5.1941 10.7179 5.08229 10.8297C4.97049 10.9415 4.83194 10.9974 4.66667 10.9974ZM9.33333 10.9974C9.16806 10.9974 9.02951 10.9415 8.91771 10.8297C8.8059 10.7179 8.75 10.5793 8.75 10.4141C8.75 10.2488 8.8059 10.1102 8.91771 9.99844C9.02951 9.88663 9.16806 9.83073 9.33333 9.83073C9.49861 9.83073 9.63715 9.88663 9.74896 9.99844C9.86076 10.1102 9.91667 10.2488 9.91667 10.4141C9.91667 10.5793 9.86076 10.7179 9.74896 10.8297C9.63715 10.9415 9.49861 10.9974 9.33333 10.9974Z" fill="#121212"/>
</g>
</svg>
