<svg width="7" height="6" viewBox="0 0 7 6" fill="none" xmlns="http://www.w3.org/2000/svg">
<path fill-rule="evenodd" clip-rule="evenodd" d="M0.896395 0.146541C0.990155 0.0528056 1.11731 0.000145671 1.2499 0.000145671C1.38248 0.000145671 1.50963 0.0528056 1.60339 0.146541L3.74989 2.29304L5.8964 0.146541C5.9425 0.0987856 5.9977 0.0606956 6.0587 0.0344906C6.1197 0.00828558 6.1853 -0.00550944 6.2517 -0.00608444C6.3181 -0.00666444 6.3839 0.00599055 6.44535 0.0311305C6.5068 0.0562705 6.56265 0.0933956 6.6096 0.140341C6.65655 0.187291 6.69365 0.243116 6.7188 0.304566C6.74395 0.366011 6.7566 0.43185 6.756 0.49824C6.75545 0.56463 6.74165 0.630241 6.71545 0.691241C6.68925 0.752246 6.65115 0.807416 6.6034 0.853541L4.4569 3.00004L6.6034 5.14656C6.69445 5.24086 6.74485 5.36716 6.74375 5.49826C6.7426 5.62936 6.69 5.75476 6.5973 5.84746C6.5046 5.94016 6.3792 5.99276 6.2481 5.99386C6.117 5.99501 5.9907 5.94461 5.8964 5.85356L3.74989 3.70706L1.60339 5.85356C1.50909 5.94461 1.38279 5.99501 1.25169 5.99386C1.12059 5.99276 0.99519 5.94016 0.902485 5.84746C0.80978 5.75476 0.757195 5.62936 0.756055 5.49826C0.754915 5.36716 0.805315 5.24086 0.896395 5.14656L3.04289 3.00004L0.896395 0.853541C0.80266 0.759776 0.75 0.632621 0.75 0.500041C0.75 0.367456 0.80266 0.240306 0.896395 0.146541Z" fill="#FF5E5C"/>
</svg>
