<svg width="8" height="8" viewBox="0 0 8 8" fill="none" xmlns="http://www.w3.org/2000/svg">
<path d="M3.7149 5.99531H4.6049C4.9849 5.99531 5.2949 5.68531 5.2949 5.30531V3.63531C5.2949 3.25531 4.9849 2.94531 4.6049 2.94531H3.7149C3.3349 2.94531 3.0249 3.25531 3.0249 3.63531V5.30531C3.0299 5.68531 3.3349 5.99531 3.7149 5.99531Z" fill="#121212"/>
<path d="M2.29504 3.46687C1.97004 3.45687 2.05004 3.05187 2.21504 2.88687L3.95504 1.10187C4.07004 0.986875 4.25504 0.986875 4.37004 1.10187L6.11004 2.88188C6.27004 3.04188 6.34504 3.47187 6.01004 3.46687C5.13504 3.45187 3.26504 3.50187 2.29504 3.46687Z" fill="#121212"/>
<path d="M5.6049 7.19531H2.6499C2.4449 7.19531 2.2749 7.02531 2.2749 6.82031C2.2749 6.61531 2.4449 6.44531 2.6499 6.44531H5.6099C5.8149 6.44531 5.9849 6.61531 5.9849 6.82031C5.9799 7.02531 5.8099 7.19531 5.6049 7.19531Z" fill="#121212"/>
</svg>
