<svg width="14" height="14" viewBox="0 0 14 14" fill="none" xmlns="http://www.w3.org/2000/svg">
<g clip-path="url(#clip0_7793_9889)">
<path d="M5.25 7.58337C7.18299 7.58337 8.75 6.01637 8.75 4.08337C8.75 2.15038 7.18299 0.583374 5.25 0.583374C3.317 0.583374 1.75 2.15038 1.75 4.08337C1.75 6.01637 3.317 7.58337 5.25 7.58337Z" fill="#121212"/>
<path d="M3.75 8.16675C1.67893 8.16675 0 9.8457 0 11.9168C0 12.7452 0.671574 13.4167 1.5 13.4167H9.00002C9.82841 13.4167 10.5 12.7452 10.5 11.9168C10.5 9.8457 8.82105 8.16675 6.74998 8.16675H3.75Z" fill="#121212"/>
<path d="M9.23862 6.50746C9.13367 6.67977 9.21178 6.91136 9.41017 6.94805C9.58086 6.97967 9.75732 7.00008 9.9168 7.00008C11.5276 7.00008 12.8335 5.69424 12.8335 4.08342C12.8335 2.47259 11.5276 1.16675 9.9168 1.16675C9.75732 1.16675 9.58086 1.18719 9.41017 1.21878C9.21178 1.25549 9.13367 1.48707 9.23862 1.65936C9.66894 2.36586 9.9168 3.19569 9.9168 4.08342C9.9168 4.97114 9.66894 5.80097 9.23862 6.50746Z" fill="#121212"/>
<path d="M11.4664 12.932C11.3771 13.1486 11.5224 13.4167 11.7567 13.4167H12.4998C13.3283 13.4167 13.9998 12.7452 13.9998 11.9168C13.9998 9.8457 12.3209 8.16675 10.2498 8.16675C10.1406 8.16949 10.0906 8.30774 10.1691 8.38369C11.0924 9.27753 11.6665 10.5301 11.6665 11.9168C11.6665 12.2762 11.5954 12.6191 11.4664 12.932Z" fill="#121212"/>
</g>
<defs>
<clipPath id="clip0_7793_9889">
<rect width="14" height="14" fill="white"/>
</clipPath>
</defs>
</svg>
