<svg width="14" height="15" viewBox="0 0 14 15" fill="none" xmlns="http://www.w3.org/2000/svg">
<path fill-rule="evenodd" clip-rule="evenodd" d="M12.6082 7.49844C12.6082 10.5912 10.101 13.0984 7.0082 13.0984C3.91541 13.0984 1.4082 10.5912 1.4082 7.49844C1.4082 4.40564 3.91541 1.89844 7.0082 1.89844C10.101 1.89844 12.6082 4.40564 12.6082 7.49844ZM7.7082 4.69844C7.7082 5.08503 7.39481 5.39844 7.0082 5.39844C6.62161 5.39844 6.3082 5.08503 6.3082 4.69844C6.3082 4.31184 6.62161 3.99844 7.0082 3.99844C7.39481 3.99844 7.7082 4.31184 7.7082 4.69844ZM6.3082 6.79844C5.92161 6.79844 5.6082 7.11184 5.6082 7.49844C5.6082 7.88505 5.92161 8.19844 6.3082 8.19844V10.2984C6.3082 10.685 6.62161 10.9984 7.0082 10.9984H7.7082C8.09481 10.9984 8.4082 10.685 8.4082 10.2984C8.4082 9.91183 8.09481 9.59844 7.7082 9.59844V7.49844C7.7082 7.11184 7.39481 6.79844 7.0082 6.79844H6.3082Z" fill="#1E88E5"/>
</svg>
