<svg width="14" height="15" viewBox="0 0 14 15" fill="none" xmlns="http://www.w3.org/2000/svg">
<path d="M12.2009 3.18556C11.9825 3.08161 11.738 3.02344 11.48 3.02344H2.52C2.26197 3.02344 2.01753 3.08161 1.79907 3.18555L6.65017 7.06647C6.85474 7.23005 7.14532 7.23005 7.34983 7.06647L12.2009 3.18556Z" fill="#FF9F0E"/>
<path d="M1.27904 4.20123C1.1383 4.08851 0.928028 4.13721 0.886068 4.31258C0.855945 4.43846 0.839996 4.56986 0.839996 4.70497V10.305C0.839996 11.2328 1.59216 11.985 2.52 11.985H11.48C12.4079 11.985 13.16 11.2328 13.16 10.305V4.70497C13.16 4.56987 13.144 4.43849 13.1139 4.31262C13.072 4.13725 12.8617 4.08854 12.721 4.20125L8.04949 7.94256C7.43596 8.4334 6.56409 8.4334 5.95056 7.94256L1.27904 4.20123Z" fill="#FF9F0E"/>
</svg>
