<svg width="14" height="15" viewBox="0 0 14 15" fill="none" xmlns="http://www.w3.org/2000/svg">
<path fill-rule="evenodd" clip-rule="evenodd" d="M12.6004 7.49844C12.6004 10.5912 10.0932 13.0984 7.00039 13.0984C3.90759 13.0984 1.40039 10.5912 1.40039 7.49844C1.40039 4.40564 3.90759 1.89844 7.00039 1.89844C10.0932 1.89844 12.6004 4.40564 12.6004 7.49844ZM7.70039 4.69844C7.70039 5.08503 7.387 5.39844 7.00039 5.39844C6.61379 5.39844 6.30039 5.08503 6.30039 4.69844C6.30039 4.31184 6.61379 3.99844 7.00039 3.99844C7.387 3.99844 7.70039 4.31184 7.70039 4.69844ZM6.30039 6.79844C5.91379 6.79844 5.60039 7.11184 5.60039 7.49844C5.60039 7.88505 5.91379 8.19844 6.30039 8.19844V10.2984C6.30039 10.685 6.61379 10.9984 7.00039 10.9984H7.70039C8.087 10.9984 8.40039 10.685 8.40039 10.2984C8.40039 9.91183 8.087 9.59844 7.70039 9.59844V7.49844C7.70039 7.11184 7.387 6.79844 7.00039 6.79844H6.30039Z" fill="#FF6B6B"/>
</svg>
