<svg width="16" height="16" viewBox="0 0 16 16" fill="none" xmlns="http://www.w3.org/2000/svg">
<path fill-rule="evenodd" clip-rule="evenodd" d="M1.33203 3.33594C1.33203 2.23137 2.22746 1.33594 3.33203 1.33594H12.6654C13.77 1.33594 14.6654 2.23137 14.6654 3.33594V4.11698C14.6654 4.64742 14.4546 5.15612 14.0796 5.5312L10.194 9.4168C10.069 9.54187 9.9987 9.7114 9.9987 9.8882V11.4503C9.9987 11.9807 9.78796 12.4895 9.4129 12.8645L7.9449 14.3325C7.2267 15.0507 5.9987 14.5421 5.9987 13.5264V9.8882C5.9987 9.7114 5.92846 9.54187 5.80344 9.4168L1.91782 5.5312C1.54274 5.15612 1.33203 4.64742 1.33203 4.11698V3.33594Z" fill="#121212"/>
</svg>
