<svg width="14" height="14" viewBox="0 0 14 14" fill="none" xmlns="http://www.w3.org/2000/svg">
<path d="M6.50096 10.4938H8.05846C8.72346 10.4938 9.26596 9.95125 9.26596 9.28625V6.36375C9.26596 5.69875 8.72346 5.15625 8.05846 5.15625H6.50096C5.83596 5.15625 5.29346 5.69875 5.29346 6.36375V9.28625C5.30221 9.95125 5.83596 10.4938 6.50096 10.4938Z" fill="#121212"/>
<path d="M4.01607 6.06312C3.44732 6.04562 3.58732 5.33687 3.87607 5.04812L6.92107 1.92437C7.12232 1.72312 7.44607 1.72312 7.64732 1.92437L10.6923 5.03938C10.9723 5.31938 11.1036 6.07187 10.5173 6.06312C8.98607 6.03687 5.71357 6.12437 4.01607 6.06312Z" fill="#121212"/>
<path d="M9.80846 12.5781H4.63721C4.27846 12.5781 3.98096 12.2806 3.98096 11.9219C3.98096 11.5631 4.27846 11.2656 4.63721 11.2656H9.81721C10.176 11.2656 10.4735 11.5631 10.4735 11.9219C10.4647 12.2806 10.1672 12.5781 9.80846 12.5781Z" fill="#121212"/>
</svg>
