<svg width="18" height="18" viewBox="0 0 18 18" fill="none" xmlns="http://www.w3.org/2000/svg">
<path d="M7.5 2.25H10.5C12.0913 2.25 13.6175 2.88214 14.7427 4.00736C15.8678 5.13258 16.5 6.6587 16.5 8.25C16.5 9.84128 15.8678 11.3675 14.7427 12.4927C13.6175 13.6178 12.0913 14.25 10.5 14.25V16.875C6.75 15.375 1.5 13.125 1.5 8.25C1.5 6.6587 2.13214 5.13258 3.25736 4.00736C4.38258 2.88214 5.9087 2.25 7.5 2.25ZM9 12.75H10.5C11.0909 12.75 11.6761 12.6336 12.2221 12.4075C12.7681 12.1813 13.2641 11.8499 13.682 11.432C14.0999 11.0141 14.4313 10.5181 14.6575 9.97207C14.8836 9.42607 15 8.84093 15 8.25C15 7.65907 14.8836 7.07389 14.6575 6.52793C14.4313 5.98196 14.0999 5.48588 13.682 5.06802C13.2641 4.65016 12.7681 4.31869 12.2221 4.09254C11.6761 3.86639 11.0909 3.75 10.5 3.75H7.5C6.30653 3.75 5.16194 4.22411 4.31802 5.06802C3.47411 5.91193 3 7.05653 3 8.25C3 10.9575 4.8465 12.7245 9 14.61V12.75Z" fill="#121212"/>
</svg>
