<svg width="15" height="15" viewBox="0 0 15 15" fill="none" xmlns="http://www.w3.org/2000/svg">
<path fill-rule="evenodd" clip-rule="evenodd" d="M7.01555 7.90769C7.01555 8.29377 7.32851 8.60673 7.71459 8.60673C8.10067 8.60673 8.41363 8.29377 8.41363 7.90769V5.81058C8.41363 5.42451 8.10067 5.11154 7.71459 5.11154C7.32851 5.11154 7.01555 5.42451 7.01555 5.81058V7.90769ZM8.41363 9.99698C8.41363 9.6109 8.10067 9.29794 7.71459 9.29794C7.32851 9.29794 7.01555 9.6109 7.01555 9.99698V10.0048C7.01555 10.3909 7.32851 10.7038 7.71459 10.7038C8.10067 10.7038 8.41363 10.3909 8.41363 10.0048V9.99698ZM5.88126 2.07867C6.68029 0.640444 8.74868 0.640444 9.54768 2.07867L14.162 10.3845C14.9385 11.7823 13.9278 13.5 12.3288 13.5H3.10014C1.50111 13.5 0.490374 11.7823 1.26692 10.3845L5.88126 2.07867Z" fill="#121212"/>
</svg>
