<svg width="14" height="15" viewBox="0 0 14 15" fill="none" xmlns="http://www.w3.org/2000/svg">
<path d="M11.6667 2.36302H9.5667V1.89635C9.5667 1.63875 9.35763 1.42969 9.10003 1.42969H4.90003C4.64243 1.42969 4.43337 1.63875 4.43337 1.89635V2.36302H2.33337C2.07577 2.36302 1.8667 2.57209 1.8667 2.82969V13.3297C1.8667 13.5873 2.07577 13.7964 2.33337 13.7964H11.6667C11.9243 13.7964 12.1334 13.5873 12.1334 13.3297V2.82969C12.1334 2.57209 11.9243 2.36302 11.6667 2.36302ZM4.90003 3.76302H9.10003V4.69635H4.90003V3.76302ZM9.5667 10.0567C9.5667 10.1977 9.4554 10.2964 9.33337 10.2964C9.27223 10.2964 9.2097 10.2758 9.15907 10.225L8.79553 9.86049L7.32997 11.3261C7.24573 11.4108 7.12907 11.463 7.00003 11.463C6.871 11.463 6.75433 11.4108 6.6701 11.3263L6.0667 10.7229L4.99663 11.793L4.33677 11.1331L5.73677 9.73309C5.821 9.64862 5.93767 9.59635 6.0667 9.59635C6.19573 9.59635 6.3124 9.64862 6.39663 9.73309L7.00003 10.3365L8.13987 9.19665L7.77167 8.83382C7.7215 8.78435 7.70003 8.72299 7.70003 8.66302C7.70003 8.54145 7.79663 8.42969 7.93733 8.42969H9.33337C9.4624 8.42969 9.5667 8.53399 9.5667 8.66302V10.0567ZM10.7334 6.56302H3.2667V5.62969H10.7334V6.56302Z" fill="#121212" fill-opacity="0.6"/>
</svg>
