<svg width="8" height="8" viewBox="0 0 8 8" fill="none" xmlns="http://www.w3.org/2000/svg">
<g clip-path="url(#clip0_7970_3776)">
<path fill-rule="evenodd" clip-rule="evenodd" d="M4 6.9974C4 6.8133 4.14923 6.66406 4.33333 6.66406H7C7.1841 6.66406 7.33333 6.8133 7.33333 6.9974C7.33333 7.1815 7.1841 7.33073 7 7.33073H4.33333C4.14923 7.33073 4 7.1815 4 6.9974Z" fill="#121212"/>
<path fill-rule="evenodd" clip-rule="evenodd" d="M6.92437 2.69738C7.46097 2.15867 7.43817 1.45123 7.0375 1.018C6.8421 0.806762 6.56404 0.671828 6.24907 0.664388C5.93294 0.656921 5.6054 0.777818 5.30317 1.03068C5.29544 1.03714 5.288 1.04396 5.2809 1.0511L0.957991 5.39126C0.771314 5.57866 0.666504 5.83243 0.666504 6.09696V6.66146C0.666504 7.02863 0.963827 7.33073 1.33445 7.33073H1.89405C2.15996 7.33073 2.41492 7.22483 2.60257 7.03643L6.92437 2.69738ZM5.73554 1.92838C5.60537 1.79821 5.3943 1.79821 5.26414 1.92838C5.13397 2.05856 5.13397 2.26961 5.26414 2.39978L5.59747 2.73312C5.72764 2.86329 5.9387 2.86329 6.06887 2.73312C6.19904 2.60294 6.19904 2.39189 6.06887 2.26171L5.73554 1.92838Z" fill="#121212"/>
</g>
<defs>
<clipPath id="clip0_7970_3776">
<rect width="8" height="8" fill="white"/>
</clipPath>
</defs>
</svg>
