<svg width="15" height="14" viewBox="0 0 15 14" fill="none" xmlns="http://www.w3.org/2000/svg">
<path fill-rule="evenodd" clip-rule="evenodd" d="M3.66078 1.88922C4.13362 1.78414 4.69676 1.75 5.34802 1.75H6.29163C6.87676 1.75 7.42317 2.04242 7.74773 2.52927L8.22169 3.24024C8.3299 3.40251 8.51202 3.5 8.70708 3.5H11.6561C12.5879 3.5 13.3432 4.23567 13.3344 5.18303C13.3238 6.3112 13.3327 7.43977 13.3327 8.568C13.3327 9.21923 13.2986 9.78238 13.1934 10.2552C13.0869 10.7347 12.8998 11.1563 12.5694 11.4867C12.239 11.8171 11.8174 12.0042 11.3379 12.1108C10.8651 12.2159 10.3019 12.25 9.65068 12.25H5.34802C4.69676 12.25 4.13362 12.2159 3.66078 12.1108C3.18131 12.0042 2.7597 11.8171 2.4293 11.4867C2.0989 11.1563 1.91179 10.7347 1.80523 10.2552C1.70015 9.78238 1.66602 9.21923 1.66602 8.568V5.432C1.66602 4.78075 1.70015 4.2176 1.80523 3.74476C1.91179 3.26529 2.0989 2.84368 2.4293 2.51328C2.7597 2.18289 3.18131 1.99578 3.66078 1.88922ZM8.08268 6.41667C8.08268 6.09449 7.82152 5.83333 7.49935 5.83333C7.17717 5.83333 6.91602 6.09449 6.91602 6.41667V8.21672L6.45349 7.75419C6.22569 7.5264 5.85634 7.5264 5.62853 7.75419C5.40073 7.98198 5.40073 8.35135 5.62853 8.57914L7.05042 10.001C7.05666 10.0073 7.06302 10.0134 7.06949 10.0193C7.17612 10.1355 7.32919 10.2083 7.49935 10.2083C7.66951 10.2083 7.82257 10.1355 7.92921 10.0193C7.93568 10.0134 7.94204 10.0073 7.94828 10.001L9.37016 8.57914C9.59795 8.35135 9.59795 7.98198 9.37016 7.75419C9.14237 7.5264 8.773 7.5264 8.54521 7.75419L8.08268 8.21672V6.41667Z" fill="#006CFE"/>
</svg>
