<svg width="30" height="30" viewBox="0 0 30 30" fill="none" xmlns="http://www.w3.org/2000/svg">
<g clip-path="url(#clip0_7077_11265)">
<path d="M28.9002 8.82721L20.2119 0.137285C20.124 0.0493945 20.0049 0 19.8806 0H10.0396C7.74915 0 5.88564 1.86352 5.88564 4.154V12.3755H2.23993C1.53564 12.3755 0.962708 12.9485 0.962708 13.6528V20.9957C0.962708 21.7001 1.5357 22.2731 2.23993 22.2731H5.88564V25.8457C5.88564 28.1362 7.74909 29.9997 10.0396 29.9997H24.8834C27.1739 29.9997 29.0373 28.1362 29.0373 25.8457V9.15838C29.0373 9.03416 28.988 8.91504 28.9002 8.82721ZM20.349 1.59932L27.4383 8.68992H20.8174C20.5591 8.68992 20.349 8.47904 20.349 8.21994V1.59932H20.349ZM1.89945 20.9957V13.6528C1.89945 13.4682 2.05536 13.3123 2.23993 13.3123H22.2557C22.4435 13.3123 22.5962 13.465 22.5962 13.6528V20.9957C22.5962 21.1835 22.4435 21.3363 22.2557 21.3363H2.23999C2.05542 21.3363 1.89945 21.1803 1.89945 20.9957ZM24.8834 29.0629H10.0396C8.26566 29.0629 6.82243 27.6196 6.82243 25.8457V22.2731H22.2558C22.9601 22.2731 23.533 21.7001 23.533 20.9957V13.6528C23.533 12.9485 22.96 12.3755 22.2558 12.3755H6.82243V4.15395C6.82243 2.38002 8.26566 0.936797 10.0396 0.936797H19.4122V8.21994C19.4122 8.99566 20.0426 9.62678 20.8174 9.62678H28.1005V25.8457C28.1006 27.6196 26.6574 29.0629 24.8834 29.0629ZM12.2437 19.8381C12.2437 20.0968 12.034 20.3065 11.7753 20.3065H8.75574C8.49704 20.3065 8.28734 20.0968 8.28734 19.8381V14.8104C8.28734 14.5518 8.49704 14.3421 8.75574 14.3421C9.01443 14.3421 9.22413 14.5518 9.22413 14.8104V19.3697H11.7753C12.034 19.3697 12.2437 19.5794 12.2437 19.8381ZM7.34855 15.0516L5.98361 17.3243L7.34855 19.597C7.48173 19.8187 7.40995 20.1064 7.18818 20.2396C7.11271 20.285 7.0295 20.3066 6.94747 20.3066C6.78839 20.3066 6.63335 20.2256 6.54552 20.0793L5.43728 18.234L4.32904 20.0793C4.2412 20.2256 4.08611 20.3066 3.92708 20.3066C3.84499 20.3066 3.76191 20.285 3.68638 20.2396C3.4646 20.1065 3.39282 19.8187 3.52601 19.597L4.89095 17.3243L3.52601 15.0516C3.39282 14.8299 3.4646 14.5421 3.68638 14.409C3.90816 14.2757 4.19591 14.3476 4.32904 14.5693L5.43728 16.4146L6.54552 14.5693C6.6787 14.3476 6.9664 14.2756 7.18818 14.409C7.40989 14.5421 7.48173 14.8299 7.34855 15.0516ZM13.6555 16.0678C13.6555 16.4994 13.753 16.8567 14.951 16.8567C15.9017 16.8567 16.675 17.6302 16.675 18.5808C16.675 19.5323 15.9017 20.3065 14.951 20.3065H14.2035C13.3848 20.3065 12.7187 19.6404 12.7187 18.8216C12.7187 18.5629 12.9284 18.3532 13.1871 18.3532C13.4458 18.3532 13.6555 18.5629 13.6555 18.8216C13.6555 19.1187 13.9065 19.3697 14.2035 19.3697H14.951C15.3851 19.3697 15.7383 19.0158 15.7383 18.5808C15.7383 18.1467 15.3851 17.7935 14.951 17.7935C14.5543 17.7935 13.9738 17.7646 13.5136 17.5157C13.151 17.3196 12.7187 16.9092 12.7187 16.0678C12.7187 15.1163 13.4929 14.3421 14.4444 14.3421H15.1902C16.009 14.3421 16.6751 15.0081 16.6751 15.8269C16.6751 16.0856 16.4654 16.2953 16.2067 16.2953C15.948 16.2953 15.7383 16.0856 15.7383 15.8269C15.7383 15.5247 15.4924 15.2788 15.1902 15.2788H14.4444C14.0094 15.2789 13.6555 15.6328 13.6555 16.0678ZM20.9714 15.0516L19.6065 17.3243L20.9714 19.597C21.1046 19.8187 21.0328 20.1064 20.811 20.2396C20.7356 20.285 20.6524 20.3066 20.5703 20.3066C20.4113 20.3066 20.2562 20.2256 20.1684 20.0793L19.0602 18.234L17.9519 20.0793C17.8641 20.2256 17.709 20.3066 17.55 20.3066C17.4679 20.3066 17.3848 20.285 17.3093 20.2396C17.0875 20.1065 17.0157 19.8187 17.1489 19.597L18.5138 17.3243L17.1489 15.0516C17.0157 14.8299 17.0875 14.5421 17.3093 14.409C17.5311 14.2757 17.8188 14.3476 17.9519 14.5693L19.0602 16.4146L20.1684 14.5693C20.3016 14.3476 20.5893 14.2756 20.811 14.409C21.0328 14.5421 21.1047 14.8299 20.9714 15.0516Z" fill="#006CFE"/>
</g>
<defs>
<clipPath id="clip0_7077_11265">
<rect width="30" height="30" fill="white"/>
</clipPath>
</defs>
</svg>
