<svg width="12" height="12" viewBox="0 0 12 12" fill="none" xmlns="http://www.w3.org/2000/svg">
<path fill-rule="evenodd" clip-rule="evenodd" d="M3.1999 1.0999C3.1999 0.713306 3.51331 0.399902 3.8999 0.399902H3.9069C4.2935 0.399902 4.6069 0.713306 4.6069 1.0999C4.6069 1.4865 4.2935 1.7999 3.9069 1.7999H3.8999C3.51331 1.7999 3.1999 1.4865 3.1999 1.0999ZM4.5999 3.1999C4.5999 2.81331 4.2865 2.4999 3.8999 2.4999C3.51331 2.4999 3.1999 2.81331 3.1999 3.1999V3.8999C2.4267 3.8999 1.7999 4.5267 1.7999 5.2999V5.9999C1.0267 5.9999 0.399902 6.62668 0.399902 7.3999V7.87821C0.657978 7.95052 0.907395 8.06364 1.13819 8.2175C1.53889 8.48462 2.06091 8.48462 2.46161 8.2175C3.33257 7.63685 4.46723 7.63685 5.33819 8.2175C5.73889 8.48462 6.26093 8.48462 6.66161 8.2175C7.53255 7.63685 8.66725 7.63685 9.53819 8.2175C9.93887 8.48462 10.4609 8.48462 10.8616 8.2175C11.0924 8.06364 11.3418 7.95052 11.5999 7.87821V7.3999C11.5999 6.62668 10.9731 5.9999 10.1999 5.9999V5.2999C10.1999 4.5267 9.57312 3.8999 8.7999 3.8999V3.1999C8.7999 2.81331 8.48651 2.4999 8.0999 2.4999C7.71329 2.4999 7.3999 2.81331 7.3999 3.1999V3.8999H6.6999V3.1999C6.6999 2.81331 6.38651 2.4999 5.9999 2.4999C5.61331 2.4999 5.2999 2.81331 5.2999 3.1999V3.8999H4.5999V3.1999ZM11.5999 9.40743C10.7342 9.96288 9.61988 9.95455 8.76161 9.38237C8.36093 9.11525 7.83887 9.11525 7.43819 9.38237C6.56725 9.96302 5.43257 9.96302 4.56161 9.38237C4.16091 9.11525 3.63889 9.11525 3.23819 9.38237C2.37994 9.95455 1.26563 9.96288 0.399902 9.40743V10.8999C0.399902 11.2865 0.713306 11.5999 1.0999 11.5999H10.8999C11.2865 11.5999 11.5999 11.2865 11.5999 10.8999V9.40743ZM5.2999 1.0999C5.2999 0.713306 5.61331 0.399902 5.9999 0.399902H6.0069C6.39351 0.399902 6.7069 0.713306 6.7069 1.0999C6.7069 1.4865 6.39351 1.7999 6.0069 1.7999H5.9999C5.61331 1.7999 5.2999 1.4865 5.2999 1.0999ZM7.3999 1.0999C7.3999 0.713306 7.71329 0.399902 8.0999 0.399902H8.1069C8.49351 0.399902 8.8069 0.713306 8.8069 1.0999C8.8069 1.4865 8.49351 1.7999 8.1069 1.7999H8.0999C7.71329 1.7999 7.3999 1.4865 7.3999 1.0999Z" fill="#121212"/>
</svg>
