<svg width="14" height="14" viewBox="0 0 14 14" fill="none" xmlns="http://www.w3.org/2000/svg">
<g clip-path="url(#clip0_7918_6737)">
<path d="M6.20184 4.48766L4.01816 2.30398L5.62187 0.700273C5.87918 0.442969 5.69734 0 5.33203 0H0.410156C0.183477 0 0 0.183477 0 0.410156V5.33203C0 5.6957 0.440508 5.88082 0.7 5.62215L2.27828 4.04387L4.46195 6.22781C4.62219 6.38805 4.88168 6.38805 5.04191 6.22781L6.20184 5.06789C6.36207 4.90766 6.36207 4.64789 6.20184 4.48766Z" fill="#121212" fill-opacity="0.6"/>
<path d="M6.20184 8.98329L5.04191 7.8231C4.88168 7.66313 4.62219 7.66313 4.46195 7.8231L2.30371 9.98134L0.7 8.37763C0.442969 8.1195 0 8.30325 0 8.66747V13.5893C0 13.816 0.183477 13.9995 0.410156 13.9995H5.33203C5.69734 13.9995 5.87918 13.5568 5.62187 13.2995L4.04387 11.7212L6.20184 9.56325C6.36207 9.40302 6.36207 9.14353 6.20184 8.98329Z" fill="#121212" fill-opacity="0.6"/>
<path d="M13.2997 8.37763L11.696 9.98134L9.53779 7.8231C9.37756 7.66313 9.11807 7.66313 8.95783 7.8231L7.79791 8.98329C7.63768 9.14353 7.63768 9.40302 7.79791 9.56325L9.95615 11.7212L8.37787 13.2995C8.12057 13.5568 8.30268 13.9995 8.66799 13.9995H13.5899C13.8165 13.9995 14 13.816 14 13.5893V8.66747C14 8.30544 13.5606 8.11759 13.2997 8.37763Z" fill="#121212" fill-opacity="0.6"/>
<path d="M13.5899 0H8.66799C8.30268 0 8.12057 0.442969 8.37787 0.700273L9.98158 2.30398L7.79791 4.48766C7.63768 4.64789 7.63768 4.90766 7.79791 5.06789L8.95783 6.22781C9.11807 6.38805 9.37756 6.38805 9.53779 6.22781L11.7217 4.04387L13.2997 5.62215C13.5595 5.88191 14 5.69488 14 5.33203V0.410156C14 0.183477 13.8165 0 13.5899 0Z" fill="#121212" fill-opacity="0.6"/>
</g>
<defs>
<clipPath id="clip0_7918_6737">
<rect width="14" height="14" fill="white"/>
</clipPath>
</defs>
</svg>
