<svg width="14" height="14" viewBox="0 0 14 14" fill="none" xmlns="http://www.w3.org/2000/svg">
<path fill-rule="evenodd" clip-rule="evenodd" d="M7.00002 1.3999C3.90723 1.3999 1.40002 3.90711 1.40002 6.9999C1.40002 10.0927 3.90723 12.5999 7.00002 12.5999C10.0928 12.5999 12.6 10.0927 12.6 6.9999C12.6 3.90711 10.0928 1.3999 7.00002 1.3999ZM8.21466 6.72007C7.99598 6.93881 7.64139 6.93881 7.42271 6.72007C7.20403 6.50139 7.20403 6.14685 7.42271 5.92812L7.8846 5.46628H5.04002C4.73075 5.46628 4.48002 5.717 4.48002 6.02629V6.4399C4.48002 6.74919 4.2293 6.9999 3.92002 6.9999C3.61075 6.9999 3.36002 6.74919 3.36002 6.4399V6.02629C3.36002 5.09844 4.11219 4.34628 5.04002 4.34628H7.88869L7.42271 3.8803C7.20403 3.6616 7.20403 3.30703 7.42271 3.08834C7.64139 2.86964 7.99598 2.86964 8.21466 3.08834L9.6346 4.50824C9.85328 4.72693 9.85328 5.0815 9.6346 5.3002L8.21466 6.72007ZM5.78505 10.9117C6.00373 11.1303 6.35832 11.1303 6.577 10.9117C6.79568 10.6929 6.79568 10.3384 6.577 10.1197L6.11248 9.65514H8.96002C9.88789 9.65514 10.64 8.90301 10.64 7.97514V7.5599C10.64 7.25061 10.3893 6.9999 10.08 6.9999C9.77074 6.9999 9.52002 7.25061 9.52002 7.5599V7.97514C9.52002 8.28443 9.26931 8.53514 8.96002 8.53514H6.11371L6.577 8.07185C6.79568 7.85317 6.79568 7.49858 6.577 7.2799C6.35832 7.06122 6.00373 7.06122 5.78505 7.2799L4.36514 8.69978C4.14644 8.91852 4.14644 9.27305 4.36514 9.49173L5.78505 10.9117Z" fill="#121212"/>
</svg>
