<svg width="12" height="4" viewBox="0 0 12 4" fill="none" xmlns="http://www.w3.org/2000/svg">
<path fill-rule="evenodd" clip-rule="evenodd" d="M1.91699 3.75C0.950496 3.75 0.166992 2.96652 0.166992 2C0.166992 1.03347 0.950496 0.25 1.91699 0.25C2.88349 0.25 3.66699 1.03347 3.66699 2C3.66699 2.96652 2.88349 3.75 1.91699 3.75Z" fill="#121212" fill-opacity="0.6"/>
<path fill-rule="evenodd" clip-rule="evenodd" d="M6 3.75C5.03347 3.75 4.25 2.96652 4.25 2C4.25 1.03347 5.03347 0.25 6 0.25C6.96652 0.25 7.75 1.03347 7.75 2C7.75 2.96652 6.96652 3.75 6 3.75Z" fill="#121212" fill-opacity="0.6"/>
<path fill-rule="evenodd" clip-rule="evenodd" d="M8.33398 2C8.33398 2.96652 9.11746 3.75 10.084 3.75C11.0505 3.75 11.834 2.96652 11.834 2C11.834 1.03347 11.0505 0.25 10.084 0.25C9.11746 0.25 8.33398 1.03347 8.33398 2Z" fill="#121212" fill-opacity="0.6"/>
</svg>
