<svg width="8" height="8" viewBox="0 0 8 8" fill="none" xmlns="http://www.w3.org/2000/svg">
<g clip-path="url(#clip0_7970_3790)">
<path d="M1.33301 2.39844V6.93177C1.33301 7.2263 1.57181 7.4651 1.86634 7.4651H6.13301C6.42754 7.4651 6.66634 7.2263 6.66634 6.93177V2.39844H1.33301ZM2.93301 6.39844C2.93301 6.54564 2.81354 6.6651 2.66634 6.6651C2.51914 6.6651 2.39967 6.54564 2.39967 6.39844V3.4651C2.39967 3.3179 2.51914 3.19844 2.66634 3.19844C2.81354 3.19844 2.93301 3.3179 2.93301 3.4651V6.39844ZM4.26634 6.39844C4.26634 6.54564 4.14687 6.6651 3.99967 6.6651C3.85247 6.6651 3.73301 6.54564 3.73301 6.39844V3.4651C3.73301 3.3179 3.85247 3.19844 3.99967 3.19844C4.14687 3.19844 4.26634 3.3179 4.26634 3.4651V6.39844ZM5.59968 6.39844C5.59968 6.54564 5.48021 6.6651 5.33301 6.6651C5.18581 6.6651 5.06634 6.54564 5.06634 6.39844V3.4651C5.06634 3.3179 5.18581 3.19844 5.33301 3.19844C5.48021 3.19844 5.59968 3.3179 5.59968 3.4651V6.39844Z" fill="#121212"/>
<path d="M6.66644 1.06458H5.06644V0.93125C5.06644 0.710317 4.88724 0.53125 4.66644 0.53125H3.33311C3.11231 0.53125 2.93311 0.710317 2.93311 0.93125V1.06458H1.33311C1.11231 1.06458 0.933105 1.24365 0.933105 1.46458V1.86458H7.06644V1.46458C7.06644 1.24365 6.88724 1.06458 6.66644 1.06458Z" fill="#121212"/>
</g>
<defs>
<clipPath id="clip0_7970_3790">
<rect width="8" height="8" fill="white"/>
</clipPath>
</defs>
</svg>
