<svg width="14" height="15" viewBox="0 0 14 15" fill="none" xmlns="http://www.w3.org/2000/svg">
<path fill-rule="evenodd" clip-rule="evenodd" d="M8.92449 1.66804C9.2945 1.6675 9.62274 1.66703 9.92969 1.78556C10.2367 1.90408 10.4795 2.12499 10.7531 2.37404C11.1484 2.7338 11.5442 3.09306 11.9407 3.4516C12.2539 3.73484 12.5319 3.98636 12.6833 4.328C12.8346 4.66964 12.8339 5.0446 12.8333 5.46685C12.8318 6.35228 12.8332 7.23772 12.8332 8.12316C12.8332 8.64028 12.8332 9.08583 12.7853 9.44266C12.7338 9.82504 12.6179 10.1916 12.3206 10.4889C12.0233 10.7862 11.6568 10.9021 11.2744 10.9536C10.9176 11.0015 10.472 11.0015 9.95489 11.0014H7.54479C7.02766 11.0015 6.58211 11.0015 6.22529 10.9536C5.84291 10.9021 5.47638 10.7862 5.17907 10.4889C4.88177 10.1916 4.76584 9.82504 4.71443 9.44266C4.66645 9.08583 4.66648 8.64028 4.66651 8.12316L4.66651 4.58478C4.66651 4.0513 4.66527 3.5925 4.71443 3.2269C4.76584 2.84451 4.88177 2.47798 5.17907 2.18067C5.47638 1.88337 5.84291 1.76743 6.22529 1.71602C6.58211 1.66806 7.02766 1.66808 7.54479 1.66811H7.58317C8.0303 1.66811 8.47736 1.66868 8.92449 1.66804Z" fill="#121212" fill-opacity="0.6"/>
<path d="M9.32401 11.5851H7.51393C7.02171 11.5852 6.54344 11.5852 6.14759 11.532C5.70089 11.472 5.19053 11.3257 4.7666 10.9017C4.34267 10.4778 4.19635 9.96743 4.1363 9.52077C4.08307 9.12486 4.08312 8.64659 4.08318 8.15443V4.51586C4.08315 4.34177 4.08314 4.16943 4.08548 4.00185C3.63774 4.00159 3.18731 3.98733 2.74193 4.04233C2.39149 4.08561 2.05219 4.18268 1.76389 4.43504C1.70559 4.48607 1.65074 4.54091 1.59971 4.59921C1.34736 4.88751 1.25028 5.22682 1.20701 5.57725C1.16646 5.90557 1.16648 6.31265 1.16651 6.78494V10.4569C1.16648 10.974 1.16645 11.4196 1.21443 11.7764C1.26584 12.1588 1.38177 12.5253 1.67907 12.8226C1.97638 13.1199 2.34291 13.2358 2.72529 13.2872C3.0821 13.3352 3.52766 13.3352 4.04477 13.3352H6.94378C7.23381 13.3352 7.48406 13.3352 7.6905 13.3193C7.9082 13.3025 8.1252 13.2654 8.33596 13.165C8.69833 12.9923 8.99029 12.7003 9.16295 12.338C9.27513 12.1026 9.31112 11.843 9.32401 11.5851Z" fill="#121212" fill-opacity="0.6"/>
</svg>
