<svg width="14" height="14" viewBox="0 0 14 14" fill="none" xmlns="http://www.w3.org/2000/svg">
<path d="M1.16724 6.93276C1.202 3.7459 3.80507 1.16406 7.0001 1.16406C8.58374 1.16406 10.0215 1.7992 11.0736 2.82726L11.7351 2.16576C11.7774 2.12353 11.8357 2.0974 11.9001 2.0974C12.0067 2.0974 12.0966 2.1688 12.1243 2.26656L13.0577 5.53323C13.0637 5.55353 13.0668 5.57523 13.0668 5.5974C13.0668 5.7262 12.9622 5.83073 12.8334 5.83073C12.811 5.83073 12.7896 5.8277 12.7693 5.82186L9.5026 4.88853C9.40484 4.86053 9.33344 4.7707 9.33344 4.66406C9.33344 4.59966 9.35957 4.54133 9.4018 4.4991L10.0803 3.82056C9.28234 3.04543 8.1978 2.56406 7.0001 2.56406C4.55547 2.56406 2.56677 4.55276 2.56677 6.9974C2.56677 7.11313 2.5712 7.2277 2.58007 7.3411L1.16724 6.93276Z" fill="#121212"/>
<path d="M12.8329 7.06458C12.7981 10.2515 10.195 12.8333 7.00002 12.8333C5.41638 12.8333 3.97858 12.1982 2.92648 11.1701L2.26498 11.8316C2.22275 11.8738 2.16442 11.9 2.10002 11.9C1.99338 11.9 1.90355 11.8286 1.87578 11.7308L0.94245 8.46412C0.936383 8.44382 0.93335 8.42212 0.93335 8.39995C0.93335 8.27115 1.03788 8.16662 1.16668 8.16662C1.18908 8.16662 1.21055 8.16965 1.23085 8.17548L4.49752 9.10882C4.59528 9.13682 4.66668 9.22665 4.66668 9.33328C4.66668 9.39768 4.64055 9.45602 4.59832 9.49825L3.91978 10.1768C4.71778 10.9522 5.80232 11.4333 7.00002 11.4333C9.44465 11.4333 11.4333 9.44458 11.4333 6.99995C11.4333 6.88422 11.4289 6.76965 11.42 6.65625L12.8329 7.06458Z" fill="#121212"/>
</svg>
