<svg width="6" height="7" viewBox="0 0 6 7" fill="none" xmlns="http://www.w3.org/2000/svg">
<path fill-rule="evenodd" clip-rule="evenodd" d="M0.146445 0.646445C0.341711 0.451185 0.658291 0.451185 0.853557 0.646445L3.00001 2.7929L5.14646 0.646445C5.34171 0.451185 5.65831 0.451185 5.85356 0.646445C6.04881 0.841711 6.04881 1.15829 5.85356 1.35356L3.70711 3.50001L5.85356 5.64646C6.04881 5.84171 6.04881 6.15831 5.85356 6.35356C5.65831 6.54881 5.34171 6.54881 5.14646 6.35356L3.00001 4.20711L0.853557 6.35356C0.658291 6.54881 0.341711 6.54881 0.146445 6.35356C-0.0488151 6.15831 -0.0488151 5.84171 0.146445 5.64646L2.2929 3.50001L0.146445 1.35356C-0.0488151 1.15829 -0.0488151 0.841711 0.146445 0.646445Z" fill="#121212"/>
</svg>
