<svg width="14" height="15" viewBox="0 0 14 15" fill="none" xmlns="http://www.w3.org/2000/svg">
<path d="M13.4874 1.01256C12.804 0.329146 11.6959 0.329146 11.0126 1.01256L4.375 7.65014V10.125H6.84986L13.4874 3.48743C14.1709 2.80401 14.1709 1.69597 13.4874 1.01256Z" fill="#121212" fill-opacity="0.6"/>
<path fill-rule="evenodd" clip-rule="evenodd" d="M0 4C0 3.0335 0.7835 2.25 1.75 2.25H5.24999C5.73324 2.25 6.12499 2.64175 6.12499 3.125C6.12499 3.60824 5.73324 4 5.24999 4H1.75V12.75H10.5V9.24999C10.5 8.76673 10.8917 8.37499 11.375 8.37499C11.8582 8.37499 12.25 8.76673 12.25 9.24999V12.75C12.25 13.7165 11.4665 14.5 10.5 14.5H1.75C0.7835 14.5 0 13.7165 0 12.75V4Z" fill="#121212" fill-opacity="0.6"/>
</svg>
