<svg width="16" height="16" viewBox="0 0 16 16" fill="none" xmlns="http://www.w3.org/2000/svg">
<g clip-path="url(#clip0_10888_2298)">
<path d="M8 0C3.589 0 0 3.589 0 8V15.5C0 15.776 0.224 16 0.5 16H8C12.411 16 16 12.411 16 8C16 3.589 12.411 0 8 0ZM8.5 10H4.5C4.224 10 4 9.776 4 9.5C4 9.224 4.224 9 4.5 9H8.5C8.776 9 9 9.224 9 9.5C9 9.776 8.776 10 8.5 10ZM11.5 7H4.5C4.224 7 4 6.776 4 6.5C4 6.224 4.224 6 4.5 6H11.5C11.776 6 12 6.224 12 6.5C12 6.776 11.776 7 11.5 7Z" fill="#121212"/>
</g>
<defs>
<clipPath id="clip0_10888_2298">
<rect width="16" height="16" fill="white"/>
</clipPath>
</defs>
</svg>
