<svg width="14" height="15" viewBox="0 0 14 15" fill="none" xmlns="http://www.w3.org/2000/svg">
<path d="M3.20898 2.83333C3.20898 2.5449 3.29451 2.26295 3.45476 2.02313C3.615 1.78331 3.84276 1.59639 4.10924 1.48601C4.37571 1.37563 4.66894 1.34675 4.95182 1.40302C5.23471 1.45929 5.49456 1.59819 5.69852 1.80214C5.90247 2.00609 6.04136 2.26594 6.09763 2.54883C6.1539 2.83172 6.12502 3.12494 6.01464 3.39141C5.90426 3.65789 5.71735 3.88565 5.47752 4.04589C5.2377 4.20614 4.95575 4.29167 4.66732 4.29167C4.28054 4.29167 3.90961 4.13802 3.63612 3.86453C3.36263 3.59104 3.20898 3.22011 3.20898 2.83333ZM4.66732 8.95833C4.95575 8.95833 5.2377 8.8728 5.47752 8.71256C5.71735 8.55232 5.90426 8.32456 6.01464 8.05808C6.12502 7.79161 6.1539 7.49838 6.09763 7.21549C6.04136 6.9326 5.90247 6.67276 5.69852 6.4688C5.49456 6.26485 5.23471 6.12596 4.95182 6.06969C4.66894 6.01342 4.37571 6.0423 4.10924 6.15268C3.84276 6.26305 3.615 6.44997 3.45476 6.68979C3.29451 6.92962 3.20898 7.21157 3.20898 7.5C3.20898 7.88678 3.36263 8.25771 3.63612 8.5312C3.90961 8.80469 4.28054 8.95833 4.66732 8.95833ZM4.66732 13.625C4.95575 13.625 5.2377 13.5395 5.47752 13.3792C5.71735 13.219 5.90426 12.9912 6.01464 12.7247C6.12502 12.4583 6.1539 12.1651 6.09763 11.8822C6.04136 11.5993 5.90247 11.3394 5.69852 11.1355C5.49456 10.9315 5.23471 10.7926 4.95182 10.7364C4.66894 10.6801 4.37571 10.709 4.10924 10.8193C3.84276 10.9297 3.615 11.1166 3.45476 11.3565C3.29451 11.5963 3.20898 11.8782 3.20898 12.1667C3.20898 12.5534 3.36263 12.9244 3.63612 13.1979C3.90961 13.4714 4.28054 13.625 4.66732 13.625ZM9.33398 4.29167C9.62242 4.29167 9.90437 4.20614 10.1442 4.04589C10.384 3.88565 10.5709 3.65789 10.6813 3.39141C10.7917 3.12494 10.8206 2.83172 10.7643 2.54883C10.708 2.26594 10.5691 2.00609 10.3652 1.80214C10.1612 1.59819 9.90138 1.45929 9.61849 1.40302C9.3356 1.34675 9.04238 1.37563 8.7759 1.48601C8.50943 1.59639 8.28167 1.78331 8.12142 2.02313C7.96118 2.26295 7.87565 2.5449 7.87565 2.83333C7.87565 3.22011 8.0293 3.59104 8.30279 3.86453C8.57628 4.13802 8.94721 4.29167 9.33398 4.29167ZM9.33398 8.95833C9.62242 8.95833 9.90437 8.8728 10.1442 8.71256C10.384 8.55232 10.5709 8.32456 10.6813 8.05808C10.7917 7.79161 10.8206 7.49838 10.7643 7.21549C10.708 6.9326 10.5691 6.67276 10.3652 6.4688C10.1612 6.26485 9.90138 6.12596 9.61849 6.06969C9.3356 6.01342 9.04238 6.0423 8.7759 6.15268C8.50943 6.26305 8.28167 6.44997 8.12142 6.68979C7.96118 6.92962 7.87565 7.21157 7.87565 7.5C7.87565 7.88678 8.0293 8.25771 8.30279 8.5312C8.57628 8.80469 8.94721 8.95833 9.33398 8.95833ZM9.33398 13.625C9.62242 13.625 9.90437 13.5395 10.1442 13.3792C10.384 13.219 10.5709 12.9912 10.6813 12.7247C10.7917 12.4583 10.8206 12.1651 10.7643 11.8822C10.708 11.5993 10.5691 11.3394 10.3652 11.1355C10.1612 10.9315 9.90138 10.7926 9.61849 10.7364C9.3356 10.6801 9.04238 10.709 8.7759 10.8193C8.50943 10.9297 8.28167 11.1166 8.12142 11.3565C7.96118 11.5963 7.87565 11.8782 7.87565 12.1667C7.87565 12.5534 8.0293 12.9244 8.30279 13.1979C8.57628 13.4714 8.94721 13.625 9.33398 13.625Z" fill="#121212" fill-opacity="0.6"/>
</svg>
