<svg width="14" height="14" viewBox="0 0 14 14" fill="none" xmlns="http://www.w3.org/2000/svg">
<path d="M1.16699 6.93667C1.20176 3.7498 3.80483 1.16797 6.99986 1.16797C8.58349 1.16797 10.0213 1.8031 11.0734 2.83117L11.7349 2.16967C11.7771 2.12744 11.8355 2.1013 11.8999 2.1013C12.0065 2.1013 12.0963 2.1727 12.1241 2.27047L13.0574 5.53714C13.0635 5.55744 13.0665 5.57914 13.0665 5.6013C13.0665 5.7301 12.962 5.83464 12.8332 5.83464C12.8108 5.83464 12.7893 5.8316 12.769 5.82577L9.50236 4.89244C9.40459 4.86444 9.33319 4.7746 9.33319 4.66797C9.33319 4.60357 9.35933 4.54524 9.40156 4.503L10.0801 3.82447C9.28209 3.04934 8.19756 2.56797 6.99986 2.56797C4.55523 2.56797 2.56653 4.55667 2.56653 7.0013C2.56653 7.11704 2.57096 7.2316 2.57983 7.345L1.16699 6.93667Z" fill="#121212" fill-opacity="0.6"/>
<path d="M12.8331 7.06458C12.7984 10.2515 10.1953 12.8333 7.00026 12.8333C5.41663 12.8333 3.97883 12.1982 2.92673 11.1701L2.26523 11.8316C2.22299 11.8738 2.16466 11.9 2.10026 11.9C1.99363 11.9 1.90379 11.8286 1.87603 11.7308L0.942694 8.46412C0.936627 8.44382 0.933594 8.42212 0.933594 8.39995C0.933594 8.27115 1.03813 8.16662 1.16693 8.16662C1.18933 8.16662 1.21079 8.16965 1.23109 8.17548L4.49776 9.10882C4.59553 9.13682 4.66693 9.22665 4.66693 9.33328C4.66693 9.39768 4.64079 9.45602 4.59856 9.49825L3.92003 10.1768C4.71803 10.9522 5.80256 11.4333 7.00026 11.4333C9.44489 11.4333 11.4336 9.44458 11.4336 6.99995C11.4336 6.88422 11.4292 6.76965 11.4203 6.65625L12.8331 7.06458Z" fill="#121212" fill-opacity="0.6"/>
</svg>
