<svg width="18" height="18" viewBox="0 0 18 18" fill="none" xmlns="http://www.w3.org/2000/svg">
<path d="M9 16.5C9.46448 16.5006 9.91763 16.3564 10.2964 16.0876C10.6751 15.8188 10.9607 15.4387 11.1135 15H6.8865C7.03925 15.4387 7.32486 15.8188 7.70363 16.0876C8.08238 16.3564 8.53553 16.5006 9 16.5ZM14.25 10.9395V7.5C14.25 5.08725 12.6112 3.05475 10.3913 2.4435C10.1715 1.89 9.6345 1.5 9 1.5C8.3655 1.5 7.8285 1.89 7.60875 2.4435C5.38875 3.0555 3.75 5.08725 3.75 7.5V10.9395L2.46975 12.2197C2.39997 12.2893 2.34463 12.3719 2.30692 12.4629C2.2692 12.554 2.24986 12.6515 2.25 12.75V13.5C2.25 13.6989 2.32902 13.8897 2.46967 14.0303C2.61032 14.1709 2.80109 14.25 3 14.25H15C15.1989 14.25 15.3897 14.1709 15.5303 14.0303C15.671 13.8897 15.75 13.6989 15.75 13.5V12.75C15.7502 12.6515 15.7308 12.554 15.6931 12.4629C15.6554 12.3719 15.6 12.2893 15.5303 12.2197L14.25 10.9395Z" fill="#121212"/>
</svg>
