<svg width="7" height="9" viewBox="0 0 7 9" fill="none" xmlns="http://www.w3.org/2000/svg">
<path fill-rule="evenodd" clip-rule="evenodd" d="M6.83268 1.58337V7.41671C6.83268 8.10708 6.27306 8.66671 5.58268 8.66671H5.16602C4.47564 8.66671 3.91602 8.10708 3.91602 7.41671V1.58337C3.91602 0.893016 4.47564 0.333374 5.16602 0.333374H5.58268C6.27306 0.333374 6.83268 0.89302 6.83268 1.58337Z" fill="#E9706F"/>
<path fill-rule="evenodd" clip-rule="evenodd" d="M1.83268 0.333374C2.52304 0.333374 3.08268 0.89302 3.08268 1.58337V7.41671C3.08268 8.10708 2.52304 8.66671 1.83268 8.66671H1.41602C0.725662 8.66671 0.166016 8.10708 0.166016 7.41671V1.58337C0.166016 0.893016 0.725662 0.333374 1.41602 0.333374H1.83268Z" fill="#E9706F"/>
</svg>
