<svg width="14" height="14" viewBox="0 0 14 14" fill="none" xmlns="http://www.w3.org/2000/svg">
<path d="M2.33337 4.20007V12.1334C2.33337 12.6488 2.75127 13.0667 3.26671 13.0667H10.7334C11.2488 13.0667 11.6667 12.6488 11.6667 12.1334V4.20007H2.33337ZM5.13337 11.2001C5.13337 11.4577 4.92431 11.6667 4.66671 11.6667C4.40911 11.6667 4.20004 11.4577 4.20004 11.2001V6.06674C4.20004 5.80914 4.40911 5.60007 4.66671 5.60007C4.92431 5.60007 5.13337 5.80914 5.13337 6.06674V11.2001ZM7.46671 11.2001C7.46671 11.4577 7.25764 11.6667 7.00004 11.6667C6.74244 11.6667 6.53337 11.4577 6.53337 11.2001V6.06674C6.53337 5.80914 6.74244 5.60007 7.00004 5.60007C7.25764 5.60007 7.46671 5.80914 7.46671 6.06674V11.2001ZM9.80004 11.2001C9.80004 11.4577 9.59097 11.6667 9.33337 11.6667C9.07577 11.6667 8.86671 11.4577 8.86671 11.2001V6.06674C8.86671 5.80914 9.07577 5.60007 9.33337 5.60007C9.59097 5.60007 9.80004 5.80914 9.80004 6.06674V11.2001Z" fill="#121212" fill-opacity="0.6"/>
<path d="M11.6667 1.86668H8.8667V1.63335C8.8667 1.24672 8.5531 0.93335 8.1667 0.93335H5.83336C5.44696 0.93335 5.13336 1.24672 5.13336 1.63335V1.86668H2.33336C1.94696 1.86668 1.63336 2.18005 1.63336 2.56668V3.26668H12.3667V2.56668C12.3667 2.18005 12.0531 1.86668 11.6667 1.86668Z" fill="#121212" fill-opacity="0.6"/>
</svg>
