<svg width="8" height="7" viewBox="0 0 8 7" fill="none" xmlns="http://www.w3.org/2000/svg">
<path fill-rule="evenodd" clip-rule="evenodd" d="M4 0C4.18564 0 4.36372 0.0737521 4.49497 0.205023C4.62622 0.336301 4.7 0.514346 4.7 0.7V2.8H6.8C6.98564 2.8 7.16372 2.87375 7.29497 3.00502C7.42622 3.1363 7.5 3.31435 7.5 3.5C7.5 3.68564 7.42622 3.86372 7.29497 3.99497C7.16372 4.12622 6.98564 4.2 6.8 4.2H4.7V6.3C4.7 6.48564 4.62622 6.66372 4.49497 6.79497C4.36372 6.92622 4.18564 7 4 7C3.81435 7 3.6363 6.92622 3.50502 6.79497C3.37375 6.66372 3.3 6.48564 3.3 6.3V4.2H1.2C1.01435 4.2 0.836301 4.12622 0.705023 3.99497C0.573752 3.86372 0.5 3.68564 0.5 3.5C0.5 3.31435 0.573752 3.1363 0.705023 3.00502C0.836301 2.87375 1.01435 2.8 1.2 2.8H3.3V0.7C3.3 0.514346 3.37375 0.336301 3.50502 0.205023C3.6363 0.0737521 3.81435 0 4 0Z" fill="#121212"/>
</svg>
