<svg width="16" height="16" viewBox="0 0 16 16" fill="none" xmlns="http://www.w3.org/2000/svg">
<path d="M12.75 14H3.25C1.8725 14 0.75 12.8775 0.75 11.5V6.5C0.75 5.1225 1.8725 4 3.25 4H4.6325C4.8225 4 4.995 3.895 5.08 3.725L5.5275 2.83C5.7825 2.3175 6.2975 2 6.87 2H9.135C9.7075 2 10.22 2.3175 10.4775 2.83L10.925 3.725C11.01 3.895 11.1825 4.0025 11.3725 4.0025H12.755C14.1325 4.0025 15.255 5.125 15.255 6.5025V11.5025C15.255 12.88 14.1325 14.0025 12.755 14.0025L12.75 14ZM3.25 5C2.4225 5 1.75 5.6725 1.75 6.5V11.5C1.75 12.3275 2.4225 13 3.25 13H12.75C13.5775 13 14.25 12.3275 14.25 11.5V6.5C14.25 5.6725 13.5775 5 12.75 5H11.3675C10.795 5 10.2825 4.6825 10.025 4.17L9.5775 3.275C9.4925 3.105 9.32 2.9975 9.13 2.9975H6.865C6.675 2.9975 6.5025 3.1025 6.4175 3.2725L5.97 4.1675C5.715 4.68 5.2 4.9975 4.6275 4.9975H3.245L3.25 5Z" fill="#121212" fill-opacity="0.6"/>
<path d="M8 11.75C6.345 11.75 5 10.405 5 8.75C5 7.095 6.345 5.75 8 5.75C9.655 5.75 11 7.095 11 8.75C11 10.405 9.655 11.75 8 11.75ZM8 6.75C6.8975 6.75 6 7.6475 6 8.75C6 9.8525 6.8975 10.75 8 10.75C9.1025 10.75 10 9.8525 10 8.75C10 7.6475 9.1025 6.75 8 6.75Z" fill="#121212" fill-opacity="0.6"/>
</svg>
