<svg width="14" height="14" viewBox="0 0 14 14" fill="none" xmlns="http://www.w3.org/2000/svg">
<path fill-rule="evenodd" clip-rule="evenodd" d="M0.341246 0.83073C0.5598 0.627637 0.856198 0.51354 1.16525 0.51354C1.4743 0.51354 1.77069 0.627637 1.98926 0.83073L6.99274 5.48149L11.9962 0.83073C12.1037 0.72726 12.2324 0.644732 12.3746 0.587954C12.5167 0.531176 12.6697 0.501287 12.8244 0.500041C12.9792 0.498785 13.1326 0.526204 13.2758 0.580674C13.4191 0.635144 13.5493 0.715582 13.6587 0.817296C13.7681 0.919022 13.8546 1.03998 13.9132 1.17312C13.9719 1.30625 14.0014 1.4489 14 1.59275C13.9987 1.73659 13.9665 1.87875 13.9054 2.01092C13.8444 2.14309 13.7555 2.26263 13.6442 2.36257L8.64076 7.01333L13.6442 11.6641C13.8565 11.8685 13.974 12.1421 13.9714 12.4262C13.9687 12.7102 13.8461 12.9819 13.63 13.1828C13.4139 13.3836 13.1216 13.4976 12.816 13.5C12.5104 13.5024 12.216 13.3932 11.9962 13.196L6.99274 8.54521L1.98926 13.196C1.76943 13.3932 1.47503 13.5024 1.16945 13.5C0.863855 13.4976 0.571536 13.3836 0.355441 13.1828C0.139347 12.9819 0.0167718 12.7102 0.0141144 12.4262C0.0114571 12.1421 0.128939 11.8685 0.341246 11.6641L5.34473 7.01333L0.341246 2.36257C0.12275 2.15941 0 1.88391 0 1.59665C0 1.30938 0.12275 1.03389 0.341246 0.83073Z" fill="#121212" fill-opacity="0.6"/>
</svg>
