<svg width="14" height="15" viewBox="0 0 14 15" fill="none" xmlns="http://www.w3.org/2000/svg">
<path d="M7.34149 9.33272C7.79258 9.65045 8.26554 9.91768 8.75303 10.1199C9.05572 10.2296 9.53074 9.91878 9.87997 9.69024C9.96723 9.63312 10.0467 9.58116 10.1137 9.54212L10.1356 9.52981C10.4646 9.34508 10.8299 9.13992 11.2996 9.23879C11.7216 9.32547 13.1696 10.4665 13.5697 10.871C13.8317 11.131 13.9772 11.4054 13.999 11.687C14.0426 12.7343 12.6384 13.9114 12.3037 14.1136C11.5907 14.6336 10.6375 14.6263 9.48792 14.1063C8.25824 13.608 6.78849 12.5608 5.36971 11.2898C4.86182 10.8348 3.88647 9.8768 3.60891 9.55691C2.17552 8.00425 0.967695 6.33598 0.400176 4.98547C0.130976 4.41494 0 3.88773 0 3.41832C0 2.95613 0.130976 2.54447 0.385629 2.19058C0.538425 1.92338 1.76807 0.464565 2.8522 0.500658C3.12142 0.529533 3.3979 0.666772 3.66709 0.926756C4.07454 1.32395 5.24598 2.76111 5.33329 3.18721C5.4329 3.64628 5.22634 4.00864 5.04024 4.33513L5.02769 4.35717C4.98575 4.42963 4.9289 4.5156 4.86672 4.60958C4.63772 4.95578 4.33672 5.41075 4.44489 5.70046C4.71482 6.36485 5.10045 7.01487 5.56538 7.61424C6.08136 8.23115 6.89037 9.01493 7.34149 9.33272Z" fill="white"/>
</svg>
