<svg width="14" height="14" viewBox="0 0 14 14" fill="none" xmlns="http://www.w3.org/2000/svg">
<path fill-rule="evenodd" clip-rule="evenodd" d="M1.16669 7.00008C1.16669 3.77842 3.77836 1.16675 7.00002 1.16675C10.2217 1.16675 12.8334 3.77842 12.8334 7.00008C12.8334 10.2217 10.2217 12.8334 7.00002 12.8334C3.77836 12.8334 1.16669 10.2217 1.16669 7.00008ZM9.23541 8.49032C9.05668 8.75837 8.69449 8.83082 8.42645 8.65214L6.90966 7.64093C6.60166 7.4356 6.41669 7.08997 6.41669 6.71985V6.70842V4.08342C6.41669 3.76125 6.67785 3.50008 7.00002 3.50008C7.3222 3.50008 7.58335 3.76125 7.58335 4.08342V6.68788L9.0736 7.68136C9.34164 7.86009 9.41409 8.22228 9.23541 8.49032Z" fill="#121212"/>
</svg>
