<svg width="18" height="19" viewBox="0 0 18 19" fill="none" xmlns="http://www.w3.org/2000/svg">
<mask id="mask0_7601_15882" style="mask-type:alpha" maskUnits="userSpaceOnUse" x="0" y="0" width="18" height="19">
<rect y="0.5" width="18" height="18" fill="#D9D9D9"/>
</mask>
<g mask="url(#mask0_7601_15882)">
<path d="M9 17C7.675 17 6.59375 16.7906 5.75625 16.3719C4.91875 15.9531 4.5 15.4125 4.5 14.75C4.5 14.45 4.59063 14.1719 4.77188 13.9156C4.95312 13.6594 5.20625 13.4375 5.53125 13.25L6.7125 14.3563C6.6 14.4062 6.47813 14.4625 6.34688 14.525C6.21563 14.5875 6.1125 14.6625 6.0375 14.75C6.2 14.95 6.575 15.125 7.1625 15.275C7.75 15.425 8.3625 15.5 9 15.5C9.6375 15.5 10.2531 15.425 10.8469 15.275C11.4406 15.125 11.8188 14.95 11.9813 14.75C11.8938 14.65 11.7812 14.5688 11.6438 14.5063C11.5063 14.4438 11.375 14.3875 11.25 14.3375L12.4125 13.2125C12.7625 13.4125 13.0312 13.6406 13.2188 13.8969C13.4062 14.1531 13.5 14.4375 13.5 14.75C13.5 15.4125 13.0813 15.9531 12.2437 16.3719C11.4062 16.7906 10.325 17 9 17ZM9 14.75C7.2375 13.45 5.92188 12.1875 5.05313 10.9625C4.18438 9.7375 3.75 8.5375 3.75 7.3625C3.75 6.475 3.90937 5.69687 4.22812 5.02812C4.54688 4.35938 4.95625 3.8 5.45625 3.35C5.95625 2.9 6.51875 2.5625 7.14375 2.3375C7.76875 2.1125 8.3875 2 9 2C9.6125 2 10.2313 2.1125 10.8563 2.3375C11.4813 2.5625 12.0437 2.9 12.5438 3.35C13.0438 3.8 13.4531 4.35938 13.7719 5.02812C14.0906 5.69687 14.25 6.475 14.25 7.3625C14.25 8.5375 13.8156 9.7375 12.9469 10.9625C12.0781 12.1875 10.7625 13.45 9 14.75ZM9 8.75C9.4125 8.75 9.76563 8.60313 10.0594 8.30938C10.3531 8.01563 10.5 7.6625 10.5 7.25C10.5 6.8375 10.3531 6.48438 10.0594 6.19063C9.76563 5.89688 9.4125 5.75 9 5.75C8.5875 5.75 8.23438 5.89688 7.94063 6.19063C7.64688 6.48438 7.5 6.8375 7.5 7.25C7.5 7.6625 7.64688 8.01563 7.94063 8.30938C8.23438 8.60313 8.5875 8.75 9 8.75Z" fill="#121212"/>
</g>
</svg>
