<svg width="18" height="19" viewBox="0 0 18 19" fill="none" xmlns="http://www.w3.org/2000/svg">
<mask id="mask0_7601_15873" style="mask-type:alpha" maskUnits="userSpaceOnUse" x="0" y="0" width="18" height="19">
<rect y="0.5" width="18" height="18" fill="#D9D9D9"/>
</mask>
<g mask="url(#mask0_7601_15873)">
<path d="M14.9625 16.25C13.4 16.25 11.8563 15.9094 10.3313 15.2281C8.80625 14.5469 7.41875 13.5813 6.16875 12.3313C4.91875 11.0813 3.95312 9.69375 3.27188 8.16875C2.59063 6.64375 2.25 5.1 2.25 3.5375C2.25 3.3125 2.325 3.125 2.475 2.975C2.625 2.825 2.8125 2.75 3.0375 2.75H6.075C6.25 2.75 6.40625 2.80937 6.54375 2.92812C6.68125 3.04688 6.7625 3.1875 6.7875 3.35L7.275 5.975C7.3 6.175 7.29375 6.34375 7.25625 6.48125C7.21875 6.61875 7.15 6.7375 7.05 6.8375L5.23125 8.675C5.48125 9.1375 5.77812 9.58437 6.12187 10.0156C6.46562 10.4469 6.84375 10.8625 7.25625 11.2625C7.64375 11.65 8.05 12.0094 8.475 12.3406C8.9 12.6719 9.35 12.975 9.825 13.25L11.5875 11.4875C11.7 11.375 11.8469 11.2906 12.0281 11.2344C12.2094 11.1781 12.3875 11.1625 12.5625 11.1875L15.15 11.7125C15.325 11.7625 15.4688 11.8531 15.5812 11.9844C15.6937 12.1156 15.75 12.2625 15.75 12.425V15.4625C15.75 15.6875 15.675 15.875 15.525 16.025C15.375 16.175 15.1875 16.25 14.9625 16.25Z" fill="#121212"/>
</g>
</svg>
