<svg width="15" height="15" viewBox="0 0 15 15" fill="none" xmlns="http://www.w3.org/2000/svg">
<path fill-rule="evenodd" clip-rule="evenodd" d="M7.5 13.125C7.5 12.7798 7.77981 12.5 8.125 12.5H13.125C13.4702 12.5 13.75 12.7798 13.75 13.125C13.75 13.4702 13.4702 13.75 13.125 13.75H8.125C7.77981 13.75 7.5 13.4702 7.5 13.125Z" fill="#121212"/>
<path fill-rule="evenodd" clip-rule="evenodd" d="M12.9835 5.06246C13.9896 4.05238 13.9469 2.72595 13.1956 1.91364C12.8293 1.51756 12.3079 1.26456 11.7173 1.25061C11.1246 1.23661 10.5104 1.46329 9.94375 1.9374C9.92925 1.94953 9.91531 1.9623 9.902 1.97569L1.79654 10.1135C1.44652 10.4649 1.25 10.9407 1.25 11.4367V12.4951C1.25 13.1836 1.80748 13.75 2.50239 13.75H3.55166C4.05023 13.75 4.52828 13.5514 4.88012 13.1982L12.9835 5.06246ZM10.7544 3.62059C10.5104 3.37652 10.1146 3.37652 9.87056 3.62059C9.6265 3.86467 9.6265 4.2604 9.87056 4.50448L10.4956 5.12948C10.7396 5.37355 11.1354 5.37355 11.3794 5.12948C11.6235 4.8854 11.6235 4.48967 11.3794 4.24559L10.7544 3.62059Z" fill="#121212"/>
</svg>
