<svg width="14" height="15" viewBox="0 0 14 15" fill="none" xmlns="http://www.w3.org/2000/svg">
<path fill-rule="evenodd" clip-rule="evenodd" d="M1.1665 7.49996C1.1665 4.2783 3.77817 1.66663 6.99984 1.66663C10.2215 1.66663 12.8332 4.2783 12.8332 7.49996C12.8332 10.7216 10.2215 13.3333 6.99984 13.3333C3.77817 13.3333 1.1665 10.7216 1.1665 7.49996ZM9.23523 8.9902C9.0565 9.25824 8.6943 9.33069 8.42626 9.15202L6.90948 8.14081C6.60148 7.93548 6.4165 7.58985 6.4165 7.21973V7.20829V4.58329C6.4165 4.26113 6.67766 3.99996 6.99984 3.99996C7.32201 3.99996 7.58317 4.26113 7.58317 4.58329V7.18776L9.07341 8.18123C9.34145 8.35997 9.4139 8.72216 9.23523 8.9902Z" fill="#121212" fill-opacity="0.6"/>
</svg>
