<svg width="16" height="16" viewBox="0 0 16 16" fill="none" xmlns="http://www.w3.org/2000/svg">
<path fill-rule="evenodd" clip-rule="evenodd" d="M14.3996 8.0001C14.3996 11.5347 11.5342 14.4001 7.99961 14.4001C4.46499 14.4001 1.59961 11.5347 1.59961 8.0001C1.59961 4.46547 4.46499 1.6001 7.99961 1.6001C11.5342 1.6001 14.3996 4.46547 14.3996 8.0001ZM8.79961 4.8001C8.79961 5.24192 8.44145 5.6001 7.99961 5.6001C7.55779 5.6001 7.19961 5.24192 7.19961 4.8001C7.19961 4.35827 7.55779 4.0001 7.99961 4.0001C8.44145 4.0001 8.79961 4.35827 8.79961 4.8001ZM7.19961 7.2001C6.75778 7.2001 6.39961 7.55827 6.39961 8.0001C6.39961 8.44194 6.75778 8.8001 7.19961 8.8001V11.2001C7.19961 11.6419 7.55779 12.0001 7.99961 12.0001H8.79961C9.24145 12.0001 9.59961 11.6419 9.59961 11.2001C9.59961 10.7583 9.24145 10.4001 8.79961 10.4001V8.0001C8.79961 7.55827 8.44145 7.2001 7.99961 7.2001H7.19961Z" fill="#121212" fill-opacity="0.6"/>
</svg>
