<svg width="18" height="18" viewBox="0 0 18 18" fill="none" xmlns="http://www.w3.org/2000/svg">
<path fill-rule="evenodd" clip-rule="evenodd" d="M16.2008 8.99688C16.2008 12.9733 12.9773 16.1969 9.00078 16.1969C5.02433 16.1969 1.80078 12.9733 1.80078 8.99688C1.80078 5.02042 5.02433 1.79688 9.00078 1.79688C12.9773 1.79688 16.2008 5.02042 16.2008 8.99688ZM9.90078 5.39688C9.90078 5.89393 9.49785 6.29688 9.00078 6.29688C8.50373 6.29688 8.10078 5.89393 8.10078 5.39688C8.10078 4.89982 8.50373 4.49688 9.00078 4.49688C9.49785 4.49688 9.90078 4.89982 9.90078 5.39688ZM8.10078 8.09688C7.60373 8.09688 7.20078 8.49982 7.20078 8.99688C7.20078 9.49395 7.60373 9.89688 8.10078 9.89688V12.5969C8.10078 13.0939 8.50373 13.4969 9.00078 13.4969H9.90078C10.3979 13.4969 10.8008 13.0939 10.8008 12.5969C10.8008 12.0998 10.3979 11.6969 9.90078 11.6969V8.99688C9.90078 8.49982 9.49785 8.09688 9.00078 8.09688H8.10078Z" fill="#121212"/>
</svg>
