<svg width="16" height="16" viewBox="0 0 16 16" fill="none" xmlns="http://www.w3.org/2000/svg">
<path d="M6.38509 0.17009C7.44983 -0.0561569 8.54918 -0.0567008 9.61412 0.168491C9.68508 0.64302 9.8607 1.09524 10.1278 1.49155C10.395 1.88786 10.7469 2.21806 11.1572 2.4576C11.5673 2.69797 12.0256 2.84157 12.498 2.87771C12.9705 2.91385 13.4449 2.84161 13.8859 2.66635C14.6107 3.48862 15.1597 4.454 15.4984 5.50174C15.1285 5.80134 14.83 6.18155 14.625 6.61414C14.4201 7.04669 14.3139 7.5205 14.3145 8.0004C14.3145 9.01138 14.777 9.91279 15.5 10.4991C15.1593 11.546 14.6096 12.5105 13.8851 13.3329C13.4442 13.1577 12.9699 13.0855 12.4977 13.1217C12.0254 13.1578 11.5673 13.3013 11.1572 13.5416C10.7472 13.7811 10.3956 14.1111 10.1286 14.5071C9.86157 14.9031 9.68602 15.355 9.61491 15.8291C8.55037 16.0559 7.45094 16.057 6.38588 15.8323C6.31527 15.3574 6.13985 14.9047 5.87269 14.5079C5.60552 14.1112 5.25348 13.7806 4.84278 13.5408C4.43262 13.3005 3.9743 13.1571 3.50189 13.1211C3.02948 13.0851 2.55513 13.1574 2.11414 13.3329C1.38924 12.5103 0.840192 11.5447 0.501579 10.4967C0.871283 10.1972 1.1697 9.81729 1.37466 9.38498C1.57963 8.95268 1.68588 8.47918 1.68554 7.9996C1.68593 7.51962 1.57954 7.04573 1.37429 6.6131C1.16904 6.18052 0.870202 5.80038 0.5 5.50094C0.840721 4.45406 1.39043 3.48945 2.11493 2.66715C2.55588 2.84228 3.03011 2.91446 3.50237 2.87831C3.97464 2.84218 4.43279 2.69865 4.84278 2.4584C5.25286 2.21893 5.60445 1.88894 5.87146 1.49293C6.13846 1.09692 6.31401 0.64426 6.38509 0.17009ZM7.99998 10.3999C8.62803 10.3999 9.23036 10.1471 9.67442 9.69707C10.1185 9.24709 10.3679 8.63682 10.3679 8.0004C10.3679 7.36406 10.1185 6.75371 9.67442 6.30371C9.23036 5.85372 8.62803 5.60092 7.99998 5.60092C7.37201 5.60092 6.76968 5.85372 6.32564 6.30371C5.88157 6.75371 5.63209 7.36406 5.63209 8.0004C5.63209 8.63682 5.88157 9.24709 6.32564 9.69707C6.76968 10.1471 7.37201 10.3999 7.99998 10.3999Z" fill="#121212"/>
</svg>
