<svg width="18" height="17" viewBox="0 0 18 17" fill="none" xmlns="http://www.w3.org/2000/svg">
<path fill-rule="evenodd" clip-rule="evenodd" d="M0.747498 5.75955C0.747498 3.06201 2.93682 0.872681 5.63438 0.872681C6.95636 0.872681 8.13644 1.4813 8.99999 2.32143C9.86354 1.4813 11.0436 0.872681 12.3656 0.872681C15.0632 0.872681 17.2525 3.06201 17.2525 5.75955C17.2525 7.09077 16.7185 8.2956 15.8552 9.17415L15.853 9.1764L9.00008 16.0341L2.14558 9.17961L2.14404 9.17805C1.2816 8.2953 0.747498 7.09095 0.747498 5.75955ZM5.63438 1.62768C3.35378 1.62768 1.5025 3.47898 1.5025 5.75955C1.5025 6.88362 1.95215 7.90053 2.68257 8.64888L8.9999 14.9662L15.3167 8.64498C15.317 8.64459 15.3174 8.64423 15.3178 8.64387C16.0476 7.90065 16.4975 6.88404 16.4975 5.75955C16.4975 3.47898 14.6462 1.62768 12.3656 1.62768C11.1567 1.62768 10.0531 2.25084 9.28214 3.11817L8.99999 3.43557L8.71784 3.11817C7.94691 2.25084 6.84326 1.62768 5.63438 1.62768Z" fill="#121212"/>
</svg>
