<svg width="14" height="15" viewBox="0 0 14 15" fill="none" xmlns="http://www.w3.org/2000/svg">
<path d="M12.0553 2.5261L4.66797 5.16394V9.24729L5.1043 9.40304L4.44689 10.7179C4.37201 10.8673 4.33015 11.0312 4.32415 11.1983C4.31814 11.3653 4.34813 11.5317 4.41209 11.6862C4.47605 11.8407 4.57247 11.9796 4.69482 12.0935C4.81717 12.2074 4.96259 12.2938 5.12122 12.3465L7.50355 13.1405C7.77008 13.2273 8.05883 13.2161 8.31777 13.1088C8.57671 13.0016 8.78881 12.8053 8.9158 12.5554L9.67589 11.0352L12.0553 11.8851C12.1433 11.9165 12.2375 11.9263 12.3301 11.9136C12.4226 11.901 12.5108 11.8664 12.5872 11.8126C12.6636 11.7588 12.7259 11.6874 12.769 11.6045C12.8121 11.5217 12.8346 11.4296 12.8346 11.3362V3.07502C12.8346 2.9816 12.8121 2.88957 12.769 2.80666C12.7259 2.72376 12.6636 2.65241 12.5872 2.59861C12.5108 2.54482 12.4226 2.51015 12.3301 2.49754C12.2375 2.48491 12.1433 2.49471 12.0553 2.5261ZM7.87222 12.0339L5.49047 11.24L6.21089 9.79854L8.56872 10.6409L7.87222 12.0339ZM2.33464 9.24729H3.5013V5.16394H2.33464C1.69122 5.16394 1.16797 5.68719 1.16797 6.33063V8.08063C1.16797 8.72404 1.69122 9.24729 2.33464 9.24729Z" fill="#121212" fill-opacity="0.6"/>
</svg>
