<svg width="14" height="15" viewBox="0 0 14 15" fill="none" xmlns="http://www.w3.org/2000/svg">
<path fill-rule="evenodd" clip-rule="evenodd" d="M8.92498 1.66413C9.29499 1.6636 9.62323 1.66312 9.93018 1.78165C10.2372 1.90017 10.48 2.12108 10.7536 2.37013C11.1489 2.7299 11.5447 3.08915 11.9412 3.44769C12.2544 3.73093 12.5324 3.98245 12.6837 4.32409C12.8351 4.66573 12.8344 5.04069 12.8338 5.46294C12.8323 6.34837 12.8337 7.23381 12.8337 8.11925C12.8337 8.63638 12.8337 9.08193 12.7858 9.43875C12.7343 9.82113 12.6184 10.1877 12.3211 10.485C12.0238 10.7823 11.6573 10.8982 11.2749 10.9496C10.9181 10.9976 10.4725 10.9976 9.95538 10.9975H7.54528C7.02815 10.9976 6.5826 10.9976 6.22578 10.9496C5.8434 10.8982 5.47686 10.7823 5.17956 10.485C4.88226 10.1877 4.76632 9.82113 4.71491 9.43875C4.66694 9.08193 4.66696 8.63638 4.66699 8.11925L4.667 4.58087C4.667 4.04739 4.66576 3.5886 4.71491 3.22299C4.76632 2.84061 4.88226 2.47407 5.17956 2.17677C5.47686 1.87947 5.8434 1.76353 6.22578 1.71212C6.5826 1.66415 7.02815 1.66417 7.54528 1.6642H7.58366C8.03079 1.6642 8.47785 1.66478 8.92498 1.66413Z" fill="#121212" fill-opacity="0.6"/>
<path d="M9.3245 11.5773H7.51442C7.0222 11.5774 6.54393 11.5774 6.14808 11.5242C5.70138 11.4641 5.19102 11.3178 4.76709 10.8939C4.34316 10.47 4.19684 9.95962 4.13678 9.51296C4.08356 9.11705 4.08361 8.63877 4.08367 8.14661V4.50805C4.08364 4.33396 4.08362 4.16161 4.08596 3.99403C3.63823 3.99378 3.1878 3.97952 2.74241 4.03452C2.39198 4.07779 2.05267 4.17487 1.76437 4.42722C1.70608 4.47825 1.65123 4.5331 1.6002 4.5914C1.34784 4.8797 1.25077 5.219 1.20749 5.56944C1.16695 5.89776 1.16697 6.30483 1.16699 6.77712V10.4491C1.16696 10.9662 1.16694 11.4118 1.21491 11.7686C1.26632 12.151 1.38226 12.5175 1.67956 12.8148C1.97686 13.1121 2.3434 13.228 2.72578 13.2794C3.08258 13.3274 3.52815 13.3274 4.04526 13.3274H6.94427C7.2343 13.3274 7.48455 13.3274 7.69099 13.3114C7.90869 13.2946 8.12569 13.2576 8.33645 13.1572C8.69882 12.9845 8.99078 12.6925 9.16344 12.3302C9.27562 12.0948 9.31161 11.8352 9.3245 11.5773Z" fill="#121212" fill-opacity="0.6"/>
</svg>
