<svg width="12" height="13" viewBox="0 0 12 13" fill="none" xmlns="http://www.w3.org/2000/svg">
<path d="M5.99987 1.47656C3.13624 1.47656 0.806641 3.80616 0.806641 6.6698C0.806641 9.53343 3.13624 11.8635 5.99987 11.8635C8.86351 11.8635 11.1931 9.53343 11.1931 6.6698C11.1931 3.80616 8.86351 1.47656 5.99987 1.47656ZM6.1436 3.01855C6.77648 3.01855 7.29125 3.53375 7.29125 4.16663C7.29125 4.79951 6.77648 5.3145 6.1436 5.3145C5.51071 5.3145 4.99552 4.79951 4.99552 4.16663C4.99573 3.53375 5.51071 3.01855 6.1436 3.01855ZM7.71458 9.8903C7.62399 9.98682 7.52683 10.0074 7.46122 10.0074H4.82534C4.75951 10.0074 4.66214 9.98682 4.57197 9.8903C4.5017 9.81516 4.46614 9.71716 4.46614 9.59905C4.46614 9.47903 4.50085 9.37849 4.56901 9.30081C4.66003 9.19794 4.75824 9.17635 4.82534 9.17635H5.12463V6.97946H4.82534C4.75951 6.97946 4.66214 6.95914 4.57197 6.86241C4.5017 6.78727 4.46614 6.68927 4.46614 6.57095C4.46614 6.45114 4.50085 6.35103 4.56901 6.27335C4.66003 6.17005 4.75824 6.14846 4.82534 6.14846H7.03344C7.10456 6.14846 7.16235 6.20625 7.16235 6.27694V9.17614H7.46122C7.52768 9.17614 7.62653 9.19773 7.71712 9.3006C7.7857 9.37828 7.82042 9.47882 7.82042 9.59883C7.82042 9.71758 7.78486 9.81537 7.71458 9.8903Z" fill="#474A56"/>
</svg>
