<svg width="14" height="14" viewBox="0 0 14 14" fill="none" xmlns="http://www.w3.org/2000/svg">
<path d="M11.9437 4C11.7468 3.80313 11.4624 3.67188 11.1562 3.67188H2.84365C2.23115 3.67188 1.72803 4.175 1.72803 4.7875V9.22813C1.72803 9.84063 2.23115 10.3438 2.84365 10.3438H11.1124C11.7249 10.3438 12.228 9.84063 12.228 9.22813L12.2499 4.7875C12.2718 4.48125 12.1405 4.19687 11.9437 4ZM6.34365 6.66875C6.51865 6.66875 6.67178 6.82188 6.67178 6.99688C6.67178 7.17188 6.51865 7.325 6.34365 7.325C6.25615 7.325 6.14678 7.325 6.05928 7.325C5.55615 7.325 5.05303 7.325 4.5499 7.325L5.03115 7.80625C5.1624 7.9375 5.14053 8.13438 5.03115 8.26562C4.92178 8.39687 4.68115 8.39687 4.57178 8.26562C4.22178 7.91563 3.87178 7.56563 3.52178 7.21563C3.39053 7.08438 3.39053 6.8875 3.52178 6.75625L4.57178 5.70625C4.70303 5.575 4.8999 5.59688 5.03115 5.70625C5.1624 5.81563 5.1624 6.05625 5.03115 6.16563C4.87803 6.31875 4.70303 6.49375 4.5499 6.64688C5.14053 6.66875 5.73115 6.66875 6.34365 6.66875ZM10.4562 7.2375C10.1062 7.5875 9.75615 7.9375 9.40615 8.2875C9.2749 8.41875 9.07803 8.39688 8.94678 8.2875C8.81553 8.17813 8.81553 7.9375 8.94678 7.82812C9.0999 7.675 9.2749 7.5 9.42803 7.34687C8.8374 7.34687 8.26865 7.34687 7.67803 7.34687C7.50303 7.34687 7.3499 7.19375 7.3499 7.01875C7.3499 6.84375 7.50303 6.69063 7.67803 6.69063H7.9624H9.42803C9.2749 6.5375 9.0999 6.3625 8.94678 6.20938C8.81553 6.07812 8.8374 5.88125 8.94678 5.75C9.05615 5.61875 9.29678 5.61875 9.40615 5.75C9.75615 6.1 10.1062 6.45 10.4562 6.8C10.5874 6.8875 10.5874 7.10625 10.4562 7.2375Z" fill="#121212"/>
</svg>
