<svg width="14" height="14" viewBox="0 0 14 14" fill="none" xmlns="http://www.w3.org/2000/svg">
<path d="M1.40039 2.79998C1.40039 2.41338 1.71379 2.09998 2.10039 2.09998H3.50039C3.88699 2.09998 4.20039 2.41338 4.20039 2.79998V11.2C4.20039 11.5866 3.88699 11.9 3.50039 11.9H2.10039C1.71379 11.9 1.40039 11.5866 1.40039 11.2V2.79998Z" fill="#121212" fill-opacity="0.6"/>
<path d="M5.60059 2.79998C5.60059 2.41338 5.91399 2.09998 6.30059 2.09998H7.70059C8.0872 2.09998 8.40059 2.41338 8.40059 2.79998V11.2C8.40059 11.5866 8.0872 11.9 7.70059 11.9H6.30059C5.91399 11.9 5.60059 11.5866 5.60059 11.2V2.79998Z" fill="#121212" fill-opacity="0.6"/>
<path d="M10.5008 2.09998C10.1142 2.09998 9.80078 2.41338 9.80078 2.79998V11.2C9.80078 11.5866 10.1142 11.9 10.5008 11.9H11.9008C12.2874 11.9 12.6008 11.5866 12.6008 11.2V2.79998C12.6008 2.41338 12.2874 2.09998 11.9008 2.09998H10.5008Z" fill="#121212" fill-opacity="0.6"/>
</svg>
