<svg width="11" height="11" viewBox="0 0 11 11" fill="none" xmlns="http://www.w3.org/2000/svg">
<path fill-rule="evenodd" clip-rule="evenodd" d="M5.2 10.4C8.07186 10.4 10.4 8.07186 10.4 5.2C10.4 2.32812 8.07186 0 5.2 0C2.32812 0 0 2.32812 0 5.2C0 8.07186 2.32812 10.4 5.2 10.4ZM5.2 2.08C5.4872 2.08 5.72 2.31281 5.72 2.6V5.72C5.72 6.0072 5.4872 6.24 5.2 6.24C4.9128 6.24 4.68 6.0072 4.68 5.72V2.6C4.68 2.31281 4.9128 2.08 5.2 2.08ZM5.72 7.8C5.72 8.0872 5.4872 8.32 5.2 8.32C4.9128 8.32 4.68 8.0872 4.68 7.8C4.68 7.5128 4.9128 7.28 5.2 7.28C5.4872 7.28 5.72 7.5128 5.72 7.8Z" fill="#A0A0A0"/>
</svg>
