<svg width="16" height="16" viewBox="0 0 16 16" fill="none" xmlns="http://www.w3.org/2000/svg">
<path d="M14.4706 3.5306L12.4713 1.53127C12.4095 1.46924 12.336 1.42005 12.2551 1.38653C12.1742 1.353 12.0875 1.33581 11.9999 1.33594H3.99992C3.91236 1.33581 3.82563 1.353 3.74475 1.38653C3.66385 1.42005 3.59039 1.46924 3.52859 1.53127L1.52925 3.5306C1.46697 3.59239 1.41757 3.66592 1.38392 3.74695C1.35027 3.82797 1.33305 3.91487 1.33325 4.0026V12.6693C1.33325 13.4046 1.93125 14.0026 2.66659 14.0026H13.3333C14.0686 14.0026 14.6666 13.4046 14.6666 12.6693V4.0026C14.6668 3.91487 14.6496 3.82797 14.6159 3.74695C14.5823 3.66592 14.5329 3.59239 14.4706 3.5306ZM4.27592 2.66927H11.7239L12.3906 3.33594H3.60925L4.27592 2.66927ZM9.33325 9.33594V11.3359H6.66659V9.33594H4.66659L7.99992 6.0026L11.3333 9.33594H9.33325Z" fill="#121212"/>
</svg>
