<svg width="14" height="15" viewBox="0 0 14 15" fill="none" xmlns="http://www.w3.org/2000/svg">
<path fill-rule="evenodd" clip-rule="evenodd" d="M3.00476 3.50496C3.13602 3.37373 3.31404 3.30001 3.49966 3.30001C3.68527 3.30001 3.86329 3.37373 3.99456 3.50496L6.99966 6.51006L10.0048 3.50496C10.0693 3.4381 10.1466 3.38478 10.232 3.34809C10.3174 3.3114 10.4092 3.29209 10.5022 3.29129C10.5951 3.29047 10.6873 3.30819 10.7733 3.34339C10.8593 3.37858 10.9375 3.43056 11.0032 3.49628C11.069 3.56201 11.1209 3.64017 11.1561 3.7262C11.1913 3.81222 11.209 3.9044 11.2082 3.99734C11.2074 4.09029 11.1881 4.18214 11.1514 4.26754C11.1148 4.35295 11.0614 4.43019 10.9946 4.49476L7.98946 7.49986L10.9946 10.505C11.122 10.637 11.1926 10.8138 11.1911 10.9974C11.1894 11.1809 11.1158 11.3565 10.986 11.4862C10.8562 11.616 10.6807 11.6897 10.4971 11.6912C10.3136 11.6928 10.1368 11.6223 10.0048 11.4948L6.99966 8.48969L3.99456 11.4948C3.86253 11.6223 3.68571 11.6928 3.50218 11.6912C3.31864 11.6897 3.14307 11.616 3.01328 11.4862C2.8835 11.3565 2.80988 11.1809 2.80828 10.9974C2.80669 10.8138 2.87725 10.637 3.00476 10.505L6.00986 7.49986L3.00476 4.49476C2.87353 4.36349 2.7998 4.18547 2.7998 3.99986C2.7998 3.81424 2.87353 3.63623 3.00476 3.50496Z" fill="#121212"/>
</svg>
