<svg width="14" height="15" viewBox="0 0 14 15" fill="none" xmlns="http://www.w3.org/2000/svg">
<path d="M2.33203 4.69531V12.6286C2.33203 13.1441 2.74993 13.562 3.26536 13.562H10.732C11.2475 13.562 11.6654 13.1441 11.6654 12.6286V4.69531H2.33203ZM5.13203 11.6953C5.13203 11.9529 4.92296 12.162 4.66536 12.162C4.40776 12.162 4.1987 11.9529 4.1987 11.6953V6.56198C4.1987 6.30438 4.40776 6.09531 4.66536 6.09531C4.92296 6.09531 5.13203 6.30438 5.13203 6.56198V11.6953ZM7.46536 11.6953C7.46536 11.9529 7.2563 12.162 6.9987 12.162C6.7411 12.162 6.53203 11.9529 6.53203 11.6953V6.56198C6.53203 6.30438 6.7411 6.09531 6.9987 6.09531C7.2563 6.09531 7.46536 6.30438 7.46536 6.56198V11.6953ZM9.7987 11.6953C9.7987 11.9529 9.58963 12.162 9.33203 12.162C9.07443 12.162 8.86537 11.9529 8.86537 11.6953V6.56198C8.86537 6.30438 9.07443 6.09531 9.33203 6.09531C9.58963 6.09531 9.7987 6.30438 9.7987 6.56198V11.6953Z" fill="#121212"/>
<path d="M11.6661 2.36302H8.86615V2.12969C8.86615 1.74305 8.55255 1.42969 8.16615 1.42969H5.83281C5.44641 1.42969 5.13281 1.74305 5.13281 2.12969V2.36302H2.33281C1.94641 2.36302 1.63281 2.67639 1.63281 3.06302V3.76302H12.3661V3.06302C12.3661 2.67639 12.0525 2.36302 11.6661 2.36302Z" fill="#121212"/>
</svg>
