<svg width="14" height="15" viewBox="0 0 14 15" fill="none" xmlns="http://www.w3.org/2000/svg">
<path fill-rule="evenodd" clip-rule="evenodd" d="M6.3001 1.89844C6.03496 1.89844 5.79258 2.04824 5.674 2.28539L5.16748 3.29844H2.8001C2.4135 3.29844 2.1001 3.61184 2.1001 3.99844C2.1001 4.38503 2.4135 4.69844 2.8001 4.69844V11.6984C2.8001 12.4717 3.4269 13.0984 4.2001 13.0984H9.8001C10.5733 13.0984 11.2001 12.4717 11.2001 11.6984V4.69844C11.5867 4.69844 11.9001 4.38503 11.9001 3.99844C11.9001 3.61184 11.5867 3.29844 11.2001 3.29844H8.8327L8.32618 2.28539C8.2076 2.04824 7.96526 1.89844 7.7001 1.89844H6.3001ZM4.9001 6.09844C4.9001 5.71184 5.2135 5.39844 5.6001 5.39844C5.98669 5.39844 6.3001 5.71184 6.3001 6.09844V10.2984C6.3001 10.685 5.98669 10.9984 5.6001 10.9984C5.2135 10.9984 4.9001 10.685 4.9001 10.2984V6.09844ZM8.4001 5.39844C8.01349 5.39844 7.7001 5.71184 7.7001 6.09844V10.2984C7.7001 10.685 8.01349 10.9984 8.4001 10.9984C8.78671 10.9984 9.1001 10.685 9.1001 10.2984V6.09844C9.1001 5.71184 8.78671 5.39844 8.4001 5.39844Z" fill="#FF0000"/>
</svg>
