<svg width="18" height="19" viewBox="0 0 18 19" fill="none" xmlns="http://www.w3.org/2000/svg">
<g clip-path="url(#clip0_7498_21222)">
<path d="M12.75 2H15C15.1989 2 15.3897 2.07902 15.5303 2.21967C15.6709 2.36032 15.75 2.55108 15.75 2.75V16.25C15.75 16.4489 15.6709 16.6397 15.5303 16.7803C15.3897 16.9209 15.1989 17 15 17H3C2.80108 17 2.61032 16.9209 2.46967 16.7803C2.32902 16.6397 2.25 16.4489 2.25 16.25V2.75C2.25 2.55108 2.32902 2.36032 2.46967 2.21967C2.61032 2.07902 2.80108 2 3 2H5.25V0.5H6.75V2H11.25V0.5H12.75V2ZM5.25 6.5V8H12.75V6.5H5.25ZM5.25 9.5V11H12.75V9.5H5.25Z" fill="#5300C8" fill-opacity="0.8"/>
</g>
<defs>
<clipPath id="clip0_7498_21222">
<rect width="18" height="18" fill="white" transform="translate(0 0.5)"/>
</clipPath>
</defs>
</svg>
