<svg width="8" height="8" viewBox="0 0 8 8" fill="none" xmlns="http://www.w3.org/2000/svg">
<g clip-path="url(#clip0_7970_3796)">
<path fill-rule="evenodd" clip-rule="evenodd" d="M5.09964 0.664103C5.31107 0.663797 5.49864 0.663527 5.67404 0.731257C5.84947 0.798983 5.9882 0.925217 6.14457 1.06753C6.37047 1.27311 6.59664 1.4784 6.82317 1.68328C7.00214 1.84513 7.16104 1.98886 7.24751 2.18408C7.33397 2.3793 7.33361 2.59357 7.33324 2.83485C7.33241 3.34081 7.33317 3.84678 7.33317 4.35274C7.33321 4.64824 7.33321 4.90284 7.30581 5.10674C7.2764 5.32524 7.21017 5.53471 7.04027 5.70458C6.8704 5.87448 6.66094 5.94071 6.44244 5.97011C6.23854 5.99751 5.98394 5.99751 5.68844 5.99748H4.31124C4.01574 5.99751 3.76114 5.99751 3.55724 5.97011C3.33874 5.94071 3.12929 5.87448 2.9594 5.70458C2.78951 5.53471 2.72326 5.32524 2.69389 5.10674C2.66647 4.90284 2.66649 4.64824 2.6665 4.35274L2.66651 2.33081C2.66651 2.02596 2.6658 1.7638 2.69389 1.55488C2.72326 1.33637 2.78951 1.12692 2.9594 0.957037C3.12929 0.78715 3.33874 0.7209 3.55724 0.691523C3.76114 0.664113 4.01574 0.664127 4.31124 0.664143H4.33317C4.58867 0.664143 4.84414 0.66447 5.09964 0.664103Z" fill="#121212"/>
<path d="M5.32794 6.33436H4.2936C4.01234 6.33439 3.73904 6.33442 3.51284 6.30402C3.25758 6.26969 2.96595 6.18609 2.7237 5.94383C2.48145 5.70159 2.39784 5.40996 2.36353 5.15473C2.33311 4.92849 2.33314 4.65519 2.33317 4.37396V2.29478C2.33316 2.1953 2.33315 2.09681 2.33449 2.00105C2.07864 2.00091 1.82125 1.99276 1.56674 2.02419C1.3665 2.04892 1.17261 2.10439 1.00786 2.24859C0.974551 2.27775 0.943211 2.30909 0.914051 2.3424C0.769848 2.50715 0.714378 2.70104 0.689648 2.90129C0.666481 3.0889 0.666491 3.32151 0.666505 3.59139V5.68966C0.666488 5.98516 0.666475 6.23976 0.693888 6.44366C0.723265 6.66216 0.789511 6.87159 0.959398 7.04149C1.12929 7.21139 1.33874 7.27763 1.55724 7.30699C1.76113 7.33443 2.01573 7.33439 2.31123 7.33439H3.9678C4.13354 7.33439 4.27654 7.33439 4.3945 7.32529C4.5189 7.31569 4.6429 7.29453 4.76334 7.23713C4.9704 7.13846 5.13724 6.97163 5.2359 6.76456C5.3 6.63006 5.32057 6.48173 5.32794 6.33436Z" fill="#121212"/>
</g>
<defs>
<clipPath id="clip0_7970_3796">
<rect width="8" height="8" fill="white"/>
</clipPath>
</defs>
</svg>
