<svg width="14" height="15" viewBox="0 0 14 15" fill="none" xmlns="http://www.w3.org/2000/svg">
<path fill-rule="evenodd" clip-rule="evenodd" d="M1.16602 7.49984C1.16602 4.27817 3.77769 1.6665 6.99935 1.6665C10.221 1.6665 12.8327 4.27817 12.8327 7.49984C12.8327 10.7215 10.221 13.3332 6.99935 13.3332C3.77769 13.3332 1.16602 10.7215 1.16602 7.49984ZM9.23474 8.99008C9.05601 9.25812 8.69382 9.33057 8.42577 9.1519L6.90899 8.14069C6.60099 7.93535 6.41602 7.58973 6.41602 7.2196V7.20817V4.58317C6.41602 4.26101 6.67717 3.99984 6.99935 3.99984C7.32152 3.99984 7.58268 4.26101 7.58268 4.58317V7.18764L9.07292 8.18111C9.34097 8.35985 9.41342 8.72204 9.23474 8.99008Z" fill="#121212" fill-opacity="0.6"/>
</svg>
