<svg width="14" height="15" viewBox="0 0 14 15" fill="none" xmlns="http://www.w3.org/2000/svg">
<path fill-rule="evenodd" clip-rule="evenodd" d="M6.79497 3.50425C7.06834 3.7776 7.06834 4.22084 6.79497 4.49419L3.78994 7.49922L6.79497 10.5042C7.06834 10.7776 7.06834 11.2208 6.79497 11.4942C6.52162 11.7676 6.07838 11.7676 5.80503 11.4942L2.30503 7.9942C2.03168 7.72082 2.03168 7.2776 2.30503 7.00425L5.80503 3.50425C6.07838 3.2309 6.52162 3.2309 6.79497 3.50425Z" fill="#121212"/>
<path fill-rule="evenodd" clip-rule="evenodd" d="M10.9952 3.50425C11.2685 3.7776 11.2685 4.22084 10.9952 4.49419L7.99014 7.49922L10.9952 10.5042C11.2685 10.7776 11.2685 11.2208 10.9952 11.4942C10.7218 11.7676 10.2786 11.7676 10.0052 11.4942L6.50523 7.9942C6.23188 7.72082 6.23188 7.2776 6.50523 7.00425L10.0052 3.50425C10.2786 3.2309 10.7218 3.2309 10.9952 3.50425Z" fill="#121212"/>
</svg>
