<svg width="40" height="40" viewBox="0 0 40 40" fill="none" xmlns="http://www.w3.org/2000/svg">
<rect width="40" height="40" rx="20" fill="#D9D9D9"/>
<path fill-rule="evenodd" clip-rule="evenodd" d="M16.6533 13.3333C16.6533 12.8731 17.0264 12.5 17.4866 12.5H18.2746C19.1105 12.5 19.8911 12.9177 20.3548 13.6132L21.0319 14.6289C21.1864 14.8607 21.4466 15 21.7253 15H25.9381C27.2694 15 28.3484 16.051 28.3357 17.4043C28.3343 17.5534 28.3333 17.6766 28.3333 17.76V22.24C28.3333 22.6498 28.3237 23.0319 28.3009 23.3867C28.2715 23.8459 27.8754 24.1944 27.416 24.165C26.9568 24.1355 26.6083 23.7393 26.6377 23.28C26.6575 22.9703 26.6666 22.6253 26.6666 22.24V17.76C26.6666 17.6674 26.6677 17.5362 26.6691 17.3887C26.6729 16.984 26.365 16.6667 25.9381 16.6667H21.7253C20.8894 16.6667 20.1088 16.2489 19.6451 15.5534L18.968 14.5378C18.8134 14.3059 18.5533 14.1667 18.2746 14.1667H17.4866C17.0264 14.1667 16.6533 13.7936 16.6533 13.3333Z" fill="#121212" fill-opacity="0.6"/>
<path fill-rule="evenodd" clip-rule="evenodd" d="M13.0893 11.9108C12.7638 11.5854 12.2362 11.5854 11.9108 11.9108C11.5853 12.2363 11.5853 12.7639 11.9108 13.0893L12.5919 13.7705C12.3053 14.112 12.101 14.519 11.9609 14.9833C11.7336 15.7367 11.6667 16.6659 11.6667 17.7601V22.2401C11.6667 23.1704 11.7155 23.9749 11.8656 24.6504C12.0178 25.3353 12.2851 25.9377 12.7571 26.4097C13.2291 26.8817 13.8314 27.149 14.5163 27.3012C15.1918 27.4513 15.9963 27.5001 16.9267 27.5001H23.0734C24.2052 27.5001 25.1864 27.4312 25.9841 27.1627L26.9108 28.0893C27.2362 28.4147 27.7639 28.4147 28.0893 28.0893C28.4147 27.7639 28.4147 27.2362 28.0893 26.9108L13.0893 11.9108Z" fill="#121212" fill-opacity="0.6"/>
</svg>
