<svg width="12" height="12" viewBox="0 0 12 12" fill="none" xmlns="http://www.w3.org/2000/svg">
<path d="M11.25 10.668V2.5013C11.25 1.85789 10.7267 1.33464 10.0833 1.33464H8.91667V0.167969H7.75V1.33464H4.25V0.167969H3.08333V1.33464H1.91667C1.27325 1.33464 0.75 1.85789 0.75 2.5013V10.668C0.75 11.3114 1.27325 11.8346 1.91667 11.8346H10.0833C10.7267 11.8346 11.25 11.3114 11.25 10.668ZM4.25 9.5013H3.08333V8.33464H4.25V9.5013ZM4.25 7.16797H3.08333V6.0013H4.25V7.16797ZM6.58333 9.5013H5.41667V8.33464H6.58333V9.5013ZM6.58333 7.16797H5.41667V6.0013H6.58333V7.16797ZM8.91667 9.5013H7.75V8.33464H8.91667V9.5013ZM8.91667 7.16797H7.75V6.0013H8.91667V7.16797ZM10.0833 4.2513H1.91667V3.08464H10.0833V4.2513Z" fill="#121212" fill-opacity="0.6"/>
</svg>
