<svg width="14" height="15" viewBox="0 0 14 15" fill="none" xmlns="http://www.w3.org/2000/svg">
<path d="M12.1903 2.30849C11.6436 1.76175 10.7572 1.76175 10.2105 2.30849L4.90039 7.61856V9.59844H6.88028L12.1903 4.28838C12.7371 3.74165 12.7371 2.85522 12.1903 2.30849Z" fill="#121212"/>
<path fill-rule="evenodd" clip-rule="evenodd" d="M1.40039 4.69687C1.40039 3.92368 2.02719 3.29688 2.80039 3.29688H5.60039C5.98699 3.29688 6.30039 3.61028 6.30039 3.99687C6.30039 4.38347 5.98699 4.69687 5.60039 4.69687H2.80039V11.6969H9.80039V8.89687C9.80039 8.51026 10.1138 8.19688 10.5004 8.19688C10.887 8.19688 11.2004 8.51026 11.2004 8.89687V11.6969C11.2004 12.4701 10.5736 13.0969 9.80039 13.0969H2.80039C2.02719 13.0969 1.40039 12.4701 1.40039 11.6969V4.69687Z" fill="#121212"/>
</svg>
