<?xml version="1.0" standalone="no"?>
<!DOCTYPE svg PUBLIC "-//W3C//DTD SVG 20010904//EN"
 "http://www.w3.org/TR/2001/REC-SVG-20010904/DTD/svg10.dtd">
<svg version="1.0" xmlns="http://www.w3.org/2000/svg"
 width="40.000000pt" height="40.000000pt" viewBox="0 0 40.000000 40.000000"
 preserveAspectRatio="xMidYMid meet">

<g transform="translate(0.000000,40.000000) scale(0.100000,-0.100000)"
fill="#000000" stroke="none">
<path d="M42 227 c-4 -175 -7 -172 162 -173 67 0 128 -4 135 -8 7 -5 15 -5 19
-2 6 6 -296 316 -308 316 -3 0 -7 -60 -8 -133z"/>
<path d="M140 335 c0 -8 8 -15 19 -15 10 0 25 -10 33 -22 13 -19 27 -24 79
-28 l64 -5 3 -72 c4 -99 22 -93 22 7 0 92 -7 100 -85 100 -36 0 -54 6 -77 25
-33 28 -58 32 -58 10z"/>
</g>
</svg>
