<svg width="15" height="16" viewBox="0 0 15 16" fill="none" xmlns="http://www.w3.org/2000/svg">
<path d="M7.26519 6.82812H6.79644C6.64109 6.82829 6.49215 6.89007 6.3823 6.99992C6.27246 7.10977 6.21067 7.25871 6.21051 7.41406V8.9375C6.21051 8.99966 6.2352 9.05927 6.27915 9.10323C6.32311 9.14718 6.38272 9.17188 6.44488 9.17188C6.50704 9.17188 6.56666 9.14718 6.61061 9.10323C6.65456 9.05927 6.67926 8.99966 6.67926 8.9375V8.23438H7.38238V8.9375C7.38238 8.99966 7.40707 9.05927 7.45103 9.10323C7.49498 9.14718 7.5546 9.17188 7.61676 9.17188C7.67892 9.17188 7.73853 9.14718 7.78249 9.10323C7.82644 9.05927 7.85113 8.99966 7.85113 8.9375V7.41406C7.85097 7.25871 7.78918 7.10977 7.67933 6.99992C7.56949 6.89007 7.42054 6.82829 7.26519 6.82812ZM6.67926 7.76562V7.41406C6.6793 7.38299 6.69166 7.35321 6.71362 7.33124C6.73559 7.30927 6.76538 7.29692 6.79644 7.29688H7.26519C7.29626 7.29692 7.32605 7.30927 7.34801 7.33124C7.36998 7.35321 7.38234 7.38299 7.38238 7.41406V7.76562H6.67926ZM8.55426 6.82812C8.58504 6.82812 8.61552 6.83417 8.64396 6.84595C8.6724 6.85773 8.69824 6.87499 8.72 6.89675C8.74177 6.91852 8.75903 6.94436 8.77081 6.9728C8.78258 7.00124 8.78864 7.03172 8.78863 7.0625V8.9375C8.78863 8.99966 8.76394 9.05927 8.71999 9.10323C8.67603 9.14718 8.61642 9.17188 8.55426 9.17188C8.4921 9.17188 8.43248 9.14718 8.38853 9.10323C8.34457 9.05927 8.31988 8.99966 8.31988 8.9375V7.0625C8.31987 7.03172 8.32593 7.00124 8.33771 6.9728C8.34948 6.94436 8.36675 6.91852 8.38851 6.89675C8.41028 6.87499 8.43612 6.85773 8.46456 6.84595C8.493 6.83417 8.52348 6.82812 8.55426 6.82812ZM13.1879 4.71898C12.4837 3.49515 9.82544 4.05294 7.50366 5.14906L7.50325 5.14938C6.9647 4.89322 6.41073 4.67083 5.84456 4.48349C6.24801 2.87979 6.89818 1.90625 7.50526 1.90625C7.62948 1.91545 7.75048 1.95011 7.86073 2.00807C7.97098 2.06603 8.06813 2.14605 8.14613 2.24316C8.16729 2.2655 8.19265 2.28344 8.22074 2.29598C8.24884 2.30851 8.27913 2.31539 8.30988 2.31622C8.34064 2.31705 8.37125 2.31181 8.39998 2.30081C8.42871 2.2898 8.45499 2.27325 8.47733 2.25209C8.49966 2.23093 8.51761 2.20558 8.53014 2.17748C8.54268 2.14939 8.54955 2.1191 8.55038 2.08834C8.55121 2.05759 8.54597 2.02697 8.53497 1.99824C8.52397 1.96951 8.50741 1.94323 8.48625 1.9209C8.36547 1.77639 8.21581 1.65873 8.04687 1.57549C7.87792 1.49224 7.69344 1.44524 7.50526 1.4375C6.61313 1.4375 5.84301 2.58105 5.39475 4.34637C3.64243 3.85252 2.26798 3.94727 1.82259 4.71875C1.11407 5.94531 2.91962 7.95877 5.03646 9.4235C5.08385 10.0225 5.16886 10.6179 5.29099 11.2062C3.69513 11.6667 2.53915 11.5846 2.22817 11.0462C2.17406 10.9345 2.14354 10.8129 2.1385 10.689C2.13345 10.565 2.15401 10.4413 2.19887 10.3257C2.20759 10.2961 2.2104 10.2652 2.20716 10.2346C2.20392 10.204 2.19468 10.1743 2.17997 10.1473C2.16526 10.1203 2.14538 10.0964 2.12144 10.077C2.09751 10.0577 2.07 10.0432 2.04048 10.0345C2.01096 10.0258 1.98002 10.023 1.94941 10.0262C1.91881 10.0295 1.88914 10.0387 1.86211 10.0534C1.80751 10.0831 1.76694 10.1333 1.74934 10.1929C1.68491 10.3694 1.65815 10.5574 1.67076 10.7448C1.68338 10.9323 1.7351 11.115 1.82259 11.2812C2.08673 11.7388 2.67746 11.9585 3.48038 11.9585C4.12924 11.9428 4.77305 11.8399 5.39453 11.6528C5.84275 13.4186 6.61298 14.5625 7.50526 14.5625C8.92235 14.5625 9.76328 11.9925 9.97407 9.42447C10.4653 9.08623 10.9349 8.7177 11.3803 8.32104C12.5668 9.47211 13.0851 10.5214 12.7824 11.0462C12.7128 11.149 12.6229 11.2364 12.5182 11.3029C12.4134 11.3694 12.2961 11.4137 12.1735 11.433C12.1436 11.4402 12.1154 11.4531 12.0904 11.4712C12.0655 11.4893 12.0444 11.5121 12.0283 11.5383C12.0122 11.5645 12.0014 11.5937 11.9966 11.6241C11.9917 11.6545 11.9929 11.6855 12 11.7154C12.0145 11.7759 12.0524 11.8281 12.1053 11.8607C12.1316 11.8768 12.1607 11.8876 12.1911 11.8924C12.2215 11.8973 12.2525 11.8961 12.2825 11.8889C12.467 11.8552 12.6427 11.7838 12.7984 11.6793C12.9542 11.5747 13.0868 11.4392 13.1879 11.2812C13.6334 10.5092 13.0282 9.27088 11.724 8C13.0282 6.72913 13.6334 5.49085 13.1879 4.71898ZM4.97863 8C4.97863 8.27863 4.98574 8.552 4.99812 8.8206C2.96774 7.34215 1.78798 5.71584 2.22862 4.95312C2.53917 4.41514 3.69514 4.33301 5.29103 4.79364C5.07712 5.84887 4.97243 6.92332 4.97863 8ZM7.50526 14.0938C6.89818 14.0938 6.24802 13.1202 5.84456 11.5165C6.862 11.1747 7.84175 10.7296 8.76848 10.1881C9.01042 10.0483 9.24465 9.90542 9.47116 9.75946C9.20541 12.2587 8.38658 14.0938 7.50526 14.0938ZM8.5341 9.78207C7.64782 10.3007 6.71241 10.7304 5.74152 11.0649C5.53999 10.0559 5.44144 9.02897 5.44738 8C5.44143 6.97097 5.53999 5.94399 5.74155 4.93487C6.71245 5.26939 7.64785 5.69917 8.5341 6.21793C9.42521 6.72614 10.2626 7.3232 11.0335 7.99999C10.2626 8.6768 9.42522 9.27387 8.5341 9.78207ZM11.3803 7.67894C10.5757 6.96902 9.70056 6.34341 8.76848 5.81189C8.52651 5.67237 8.28572 5.54106 8.04613 5.41796C10.3421 4.40175 12.3451 4.19398 12.7819 4.95312C13.0849 5.47834 12.5668 6.52779 11.3803 7.67894ZM8.33153 3.28709C8.33153 3.42616 8.37277 3.5621 8.45003 3.67773C8.52729 3.79336 8.6371 3.88348 8.76558 3.9367C8.89406 3.98991 9.03543 4.00384 9.17183 3.97671C9.30822 3.94958 9.4335 3.88261 9.53184 3.78428C9.63017 3.68594 9.69714 3.56066 9.72427 3.42427C9.7514 3.28787 9.73747 3.1465 9.68426 3.01802C9.63104 2.88954 9.54092 2.77973 9.42529 2.70247C9.30966 2.62521 9.17372 2.58397 9.03465 2.58397C8.84824 2.58417 8.66951 2.65832 8.53769 2.79013C8.40588 2.92195 8.33173 3.10068 8.33153 3.28709ZM9.03465 3.05272C9.08101 3.05272 9.12632 3.06646 9.16486 3.09222C9.20341 3.11797 9.23345 3.15458 9.25119 3.1974C9.26893 3.24023 9.27357 3.28735 9.26452 3.33282C9.25548 3.37828 9.23316 3.42004 9.20038 3.45282C9.1676 3.4856 9.12584 3.50792 9.08038 3.51697C9.03491 3.52601 8.98779 3.52137 8.94496 3.50363C8.90214 3.48589 8.86553 3.45585 8.83978 3.41731C8.81402 3.37876 8.80028 3.33345 8.80028 3.28709C8.80032 3.22495 8.82503 3.16536 8.86897 3.12141C8.91292 3.07747 8.97251 3.05276 9.03465 3.05272ZM2.65915 9.73515C2.79821 9.73515 2.93416 9.69392 3.04978 9.61666C3.16541 9.53939 3.25553 9.42958 3.30875 9.3011C3.36197 9.17262 3.37589 9.03125 3.34876 8.89486C3.32163 8.75846 3.25467 8.63318 3.15633 8.53484C3.058 8.43651 2.93272 8.36954 2.79632 8.34241C2.65993 8.31528 2.51855 8.32921 2.39008 8.38242C2.2616 8.43564 2.15178 8.52576 2.07452 8.64139C1.99726 8.75702 1.95602 8.89296 1.95602 9.03203C1.95623 9.21845 2.03037 9.39717 2.16219 9.52899C2.29401 9.66081 2.47273 9.73495 2.65915 9.73515ZM2.65915 8.79765C2.7055 8.79765 2.75082 8.8114 2.78936 8.83715C2.8279 8.86291 2.85794 8.89951 2.87568 8.94234C2.89342 8.98516 2.89806 9.03229 2.88902 9.07775C2.87998 9.12322 2.85766 9.16498 2.82488 9.19776C2.7921 9.23053 2.75034 9.25286 2.70487 9.2619C2.65941 9.27094 2.61228 9.2663 2.56946 9.24856C2.52663 9.23082 2.49003 9.20078 2.46427 9.16224C2.43852 9.1237 2.42477 9.07838 2.42477 9.03203C2.42482 8.96988 2.44952 8.91029 2.49347 8.86635C2.53741 8.8224 2.597 8.79769 2.65915 8.79765ZM10.822 10.9778C10.6829 10.9778 10.547 11.019 10.4314 11.0963C10.3157 11.1735 10.2256 11.2833 10.1724 11.4118C10.1192 11.5403 10.1052 11.6817 10.1324 11.8181C10.1595 11.9544 10.2265 12.0797 10.3248 12.1781C10.4231 12.2764 10.5484 12.3434 10.6848 12.3705C10.8212 12.3976 10.9626 12.3837 11.0911 12.3305C11.2195 12.2773 11.3294 12.1871 11.4066 12.0715C11.4839 11.9559 11.5251 11.8199 11.5251 11.6809C11.5249 11.4945 11.4508 11.3157 11.319 11.1839C11.1871 11.0521 11.0084 10.978 10.822 10.9778ZM10.822 11.9153C10.7756 11.9153 10.7303 11.9015 10.6918 11.8758C10.6532 11.85 10.6232 11.8134 10.6055 11.7706C10.5877 11.7277 10.5831 11.6806 10.5921 11.6352C10.6012 11.5897 10.6235 11.5479 10.6563 11.5152C10.689 11.4824 10.7308 11.4601 10.7763 11.451C10.8217 11.442 10.8689 11.4466 10.9117 11.4643C10.9545 11.4821 10.9911 11.5121 11.0169 11.5507C11.0426 11.5892 11.0564 11.6345 11.0564 11.6809C11.0563 11.743 11.0316 11.8026 10.9877 11.8466C10.9437 11.8905 10.8841 11.9152 10.822 11.9153Z" fill="url(#paint0_linear_7918_6731)"/>
<defs>
<linearGradient id="paint0_linear_7918_6731" x1="1.66598" y1="8" x2="13.3332" y2="8" gradientUnits="userSpaceOnUse">
<stop stop-color="#FF81FF"/>
<stop offset="1" stop-color="#A93AFF"/>
</linearGradient>
</defs>
</svg>
