<svg width="15" height="16" viewBox="0 0 15 16" fill="none" xmlns="http://www.w3.org/2000/svg">
<path d="M7.26562 6.82812H6.79687C6.64152 6.82829 6.49258 6.89007 6.38273 6.99992C6.27288 7.10977 6.2111 7.25871 6.21093 7.41406V8.9375C6.21093 8.99966 6.23563 9.05927 6.27958 9.10323C6.32353 9.14718 6.38315 9.17188 6.44531 9.17188C6.50747 9.17188 6.56708 9.14718 6.61104 9.10323C6.65499 9.05927 6.67968 8.99966 6.67968 8.9375V8.23438H7.38281V8.9375C7.38281 8.99966 7.4075 9.05927 7.45146 9.10323C7.49541 9.14718 7.55502 9.17188 7.61718 9.17188C7.67934 9.17188 7.73896 9.14718 7.78291 9.10323C7.82687 9.05927 7.85156 8.99966 7.85156 8.9375V7.41406C7.8514 7.25871 7.78961 7.10977 7.67976 6.99992C7.56991 6.89007 7.42097 6.82829 7.26562 6.82812ZM6.67968 7.76562V7.41406C6.67972 7.38299 6.69208 7.35321 6.71405 7.33124C6.73602 7.30927 6.7658 7.29692 6.79687 7.29688H7.26562C7.29669 7.29692 7.32647 7.30927 7.34844 7.33124C7.37041 7.35321 7.38277 7.38299 7.38281 7.41406V7.76562H6.67968ZM8.55468 6.82812C8.58546 6.82812 8.61595 6.83417 8.64439 6.84595C8.67282 6.85773 8.69867 6.87499 8.72043 6.89675C8.7422 6.91852 8.75946 6.94436 8.77123 6.9728C8.78301 7.00124 8.78907 7.03172 8.78906 7.0625V8.9375C8.78906 8.99966 8.76437 9.05927 8.72041 9.10323C8.67646 9.14718 8.61684 9.17188 8.55468 9.17188C8.49252 9.17188 8.43291 9.14718 8.38896 9.10323C8.345 9.05927 8.32031 8.99966 8.32031 8.9375V7.0625C8.3203 7.03172 8.32636 7.00124 8.33813 6.9728C8.34991 6.94436 8.36717 6.91852 8.38894 6.89675C8.4107 6.87499 8.43654 6.85773 8.46498 6.84595C8.49342 6.83417 8.5239 6.82812 8.55468 6.82812ZM13.1884 4.71898C12.4841 3.49515 9.82587 4.05294 7.50409 5.14906L7.50368 5.14938C6.96513 4.89322 6.41116 4.67083 5.84498 4.48349C6.24843 2.87979 6.89861 1.90625 7.50569 1.90625C7.62991 1.91545 7.75091 1.95011 7.86116 2.00807C7.97141 2.06603 8.06856 2.14605 8.14656 2.24316C8.16772 2.2655 8.19307 2.28344 8.22117 2.29598C8.24927 2.30851 8.27956 2.31539 8.31031 2.31622C8.34106 2.31705 8.37168 2.31181 8.40041 2.30081C8.42914 2.2898 8.45542 2.27325 8.47775 2.25209C8.50009 2.23093 8.51803 2.20558 8.53057 2.17748C8.5431 2.14939 8.54998 2.1191 8.55081 2.08834C8.55164 2.05759 8.5464 2.02697 8.5354 1.99824C8.52439 1.96951 8.50784 1.94323 8.48668 1.9209C8.3659 1.77639 8.21623 1.65873 8.04729 1.57549C7.87835 1.49224 7.69387 1.44524 7.50569 1.4375C6.61355 1.4375 5.84343 2.58105 5.39517 4.34637C3.64285 3.85252 2.26841 3.94727 1.82302 4.71875C1.1145 5.94531 2.92004 7.95877 5.03689 9.4235C5.08428 10.0225 5.16929 10.6179 5.29142 11.2062C3.69556 11.6667 2.53957 11.5846 2.22859 11.0462C2.17449 10.9345 2.14396 10.8129 2.13892 10.689C2.13388 10.565 2.15443 10.4413 2.1993 10.3257C2.20801 10.2961 2.21083 10.2652 2.20759 10.2346C2.20435 10.204 2.19511 10.1743 2.1804 10.1473C2.16569 10.1203 2.1458 10.0964 2.12187 10.077C2.09793 10.0577 2.07042 10.0432 2.04091 10.0345C2.01139 10.0258 1.98045 10.023 1.94984 10.0262C1.91923 10.0295 1.88957 10.0387 1.86253 10.0534C1.80793 10.0831 1.76737 10.1333 1.74977 10.1929C1.68534 10.3694 1.65858 10.5574 1.67119 10.7448C1.68381 10.9323 1.73552 11.115 1.82302 11.2812C2.08716 11.7388 2.67789 11.9585 3.48081 11.9585C4.12967 11.9428 4.77348 11.8399 5.39496 11.6528C5.84318 13.4186 6.61341 14.5625 7.50569 14.5625C8.92277 14.5625 9.76371 11.9925 9.9745 9.42447C10.4657 9.08623 10.9354 8.7177 11.3807 8.32104C12.5672 9.47211 13.0855 10.5214 12.7828 11.0462C12.7133 11.149 12.6233 11.2364 12.5186 11.3029C12.4139 11.3694 12.2966 11.4137 12.174 11.433C12.144 11.4402 12.1158 11.4531 12.0909 11.4712C12.066 11.4893 12.0448 11.5121 12.0287 11.5383C12.0126 11.5645 12.0018 11.5937 11.997 11.6241C11.9921 11.6545 11.9933 11.6855 12.0005 11.7154C12.0149 11.7759 12.0528 11.8281 12.1058 11.8607C12.132 11.8768 12.1611 11.8876 12.1915 11.8924C12.2219 11.8973 12.253 11.8961 12.2829 11.8889C12.4675 11.8552 12.6431 11.7838 12.7989 11.6793C12.9546 11.5747 13.0872 11.4392 13.1884 11.2812C13.6338 10.5092 13.0286 9.27088 11.7244 8C13.0286 6.72913 13.6338 5.49085 13.1884 4.71898ZM4.97906 8C4.97906 8.27863 4.98617 8.552 4.99854 8.8206C2.96817 7.34215 1.78841 5.71584 2.22905 4.95312C2.5396 4.41514 3.69557 4.33301 5.29146 4.79364C5.07754 5.84887 4.97286 6.92332 4.97906 8ZM7.50569 14.0938C6.89861 14.0938 6.24844 13.1202 5.84498 11.5165C6.86242 11.1747 7.84218 10.7296 8.7689 10.1881C9.01085 10.0483 9.24507 9.90542 9.47158 9.75946C9.20584 12.2587 8.387 14.0938 7.50569 14.0938ZM8.53453 9.78207C7.64825 10.3007 6.71283 10.7304 5.74195 11.0649C5.54042 10.0559 5.44187 9.02897 5.44781 8C5.44186 6.97097 5.54042 5.94399 5.74198 4.93487C6.71287 5.26939 7.64828 5.69917 8.53453 6.21793C9.42563 6.72614 10.263 7.3232 11.0339 7.99999C10.263 8.6768 9.42564 9.27387 8.53453 9.78207ZM11.3807 7.67894C10.5762 6.96902 9.70099 6.34341 8.7689 5.81189C8.52693 5.67237 8.28615 5.54106 8.04656 5.41796C10.3425 4.40175 12.3455 4.19398 12.7823 4.95312C13.0853 5.47834 12.5672 6.52779 11.3807 7.67894ZM8.33196 3.28709C8.33196 3.42616 8.37319 3.5621 8.45045 3.67773C8.52771 3.79336 8.63753 3.88348 8.76601 3.9367C8.89448 3.98991 9.03586 4.00384 9.17225 3.97671C9.30865 3.94958 9.43393 3.88261 9.53226 3.78428C9.6306 3.68594 9.69757 3.56066 9.7247 3.42427C9.75183 3.28787 9.7379 3.1465 9.68468 3.01802C9.63146 2.88954 9.54134 2.77973 9.42572 2.70247C9.31009 2.62521 9.17415 2.58397 9.03508 2.58397C8.84866 2.58417 8.66994 2.65832 8.53812 2.79013C8.4063 2.92195 8.33216 3.10068 8.33196 3.28709ZM9.03508 3.05272C9.08144 3.05272 9.12675 3.06646 9.16529 3.09222C9.20383 3.11797 9.23387 3.15458 9.25161 3.1974C9.26935 3.24023 9.274 3.28735 9.26495 3.33282C9.25591 3.37828 9.23359 3.42004 9.20081 3.45282C9.16803 3.4856 9.12627 3.50792 9.0808 3.51697C9.03534 3.52601 8.98822 3.52137 8.94539 3.50363C8.90256 3.48589 8.86596 3.45585 8.8402 3.41731C8.81445 3.37876 8.80071 3.33345 8.80071 3.28709C8.80075 3.22495 8.82545 3.16536 8.8694 3.12141C8.91334 3.07747 8.97293 3.05276 9.03508 3.05272ZM2.65958 9.73515C2.79864 9.73515 2.93458 9.69392 3.05021 9.61666C3.16584 9.53939 3.25596 9.42958 3.30918 9.3011C3.3624 9.17262 3.37632 9.03125 3.34919 8.89486C3.32206 8.75846 3.2551 8.63318 3.15676 8.53484C3.05843 8.43651 2.93314 8.36954 2.79675 8.34241C2.66036 8.31528 2.51898 8.32921 2.3905 8.38242C2.26202 8.43564 2.15221 8.52576 2.07495 8.64139C1.99769 8.75702 1.95645 8.89296 1.95645 9.03203C1.95666 9.21845 2.0308 9.39717 2.16262 9.52899C2.29443 9.66081 2.47316 9.73495 2.65958 9.73515ZM2.65958 8.79765C2.70593 8.79765 2.75125 8.8114 2.78979 8.83715C2.82833 8.86291 2.85837 8.89951 2.87611 8.94234C2.89385 8.98516 2.89849 9.03229 2.88945 9.07775C2.8804 9.12322 2.85808 9.16498 2.8253 9.19776C2.79253 9.23053 2.75077 9.25286 2.7053 9.2619C2.65984 9.27094 2.61271 9.2663 2.56989 9.24856C2.52706 9.23082 2.49045 9.20078 2.4647 9.16224C2.43895 9.1237 2.4252 9.07838 2.4252 9.03203C2.42524 8.96988 2.44995 8.91029 2.49389 8.86635C2.53784 8.8224 2.59743 8.79769 2.65958 8.79765ZM10.8224 10.9778C10.6834 10.9778 10.5474 11.019 10.4318 11.0963C10.3162 11.1735 10.226 11.2833 10.1728 11.4118C10.1196 11.5403 10.1057 11.6817 10.1328 11.8181C10.1599 11.9544 10.2269 12.0797 10.3252 12.1781C10.4236 12.2764 10.5489 12.3434 10.6852 12.3705C10.8216 12.3976 10.963 12.3837 11.0915 12.3305C11.22 12.2773 11.3298 12.1871 11.407 12.0715C11.4843 11.9559 11.5255 11.8199 11.5255 11.6809C11.5253 11.4945 11.4512 11.3157 11.3194 11.1839C11.1876 11.0521 11.0088 10.978 10.8224 10.9778ZM10.8224 11.9153C10.7761 11.9153 10.7308 11.9015 10.6922 11.8758C10.6537 11.85 10.6236 11.8134 10.6059 11.7706C10.5881 11.7277 10.5835 11.6806 10.5925 11.6352C10.6016 11.5897 10.6239 11.5479 10.6567 11.5152C10.6895 11.4824 10.7312 11.4601 10.7767 11.451C10.8222 11.442 10.8693 11.4466 10.9121 11.4643C10.9549 11.4821 10.9915 11.5121 11.0173 11.5507C11.043 11.5892 11.0568 11.6345 11.0568 11.6809C11.0568 11.743 11.032 11.8026 10.9881 11.8466C10.9442 11.8905 10.8846 11.9152 10.8224 11.9153Z" fill="white"/>
</svg>
