<svg width="16" height="16" viewBox="0 0 16 16" fill="none" xmlns="http://www.w3.org/2000/svg">
<mask id="mask0_7077_10918" style="mask-type:alpha" maskUnits="userSpaceOnUse" x="0" y="0" width="16" height="16">
<rect width="16" height="16" fill="#D9D9D9"/>
</mask>
<g mask="url(#mask0_7077_10918)">
<path d="M11.9998 9.33073V7.33073H9.99984V5.9974H11.9998V3.9974H13.3332V5.9974H15.3332V7.33073H13.3332V9.33073H11.9998ZM5.99984 7.9974C5.2665 7.9974 4.63873 7.73629 4.1165 7.21406C3.59428 6.69184 3.33317 6.06406 3.33317 5.33073C3.33317 4.5974 3.59428 3.96962 4.1165 3.4474C4.63873 2.92517 5.2665 2.66406 5.99984 2.66406C6.73317 2.66406 7.36095 2.92517 7.88317 3.4474C8.40539 3.96962 8.6665 4.5974 8.6665 5.33073C8.6665 6.06406 8.40539 6.69184 7.88317 7.21406C7.36095 7.73629 6.73317 7.9974 5.99984 7.9974ZM0.666504 13.3307V11.4641C0.666504 11.0863 0.763726 10.7391 0.958171 10.4224C1.15262 10.1057 1.41095 9.86406 1.73317 9.6974C2.42206 9.35295 3.12206 9.09462 3.83317 8.9224C4.54428 8.75017 5.2665 8.66406 5.99984 8.66406C6.73317 8.66406 7.45539 8.75017 8.1665 8.9224C8.87761 9.09462 9.57762 9.35295 10.2665 9.6974C10.5887 9.86406 10.8471 10.1057 11.0415 10.4224C11.2359 10.7391 11.3332 11.0863 11.3332 11.4641V13.3307H0.666504Z" fill="#121212"/>
</g>
</svg>
