<svg width="12" height="13" viewBox="0 0 12 13" fill="none" xmlns="http://www.w3.org/2000/svg">
<path fill-rule="evenodd" clip-rule="evenodd" d="M5.9999 0.900024C2.90711 0.900024 0.399902 3.40723 0.399902 6.50002C0.399902 9.59279 2.90711 12.1 5.9999 12.1C9.09267 12.1 11.5999 9.59279 11.5999 6.50002C11.5999 3.40723 9.09267 0.900024 5.9999 0.900024ZM7.21454 6.22019C6.99586 6.43893 6.64127 6.43893 6.42259 6.22019C6.20391 6.00151 6.20391 5.64698 6.42259 5.42824L6.88448 4.9664H4.0399C3.73063 4.9664 3.4799 5.21712 3.4799 5.52641V5.94002C3.4799 6.24931 3.22918 6.50002 2.9199 6.50002C2.61063 6.50002 2.3599 6.24931 2.3599 5.94002V5.52641C2.3599 4.59856 3.11207 3.8464 4.0399 3.8464H6.88857L6.42259 3.38042C6.20391 3.16172 6.20391 2.80715 6.42259 2.58846C6.64127 2.36977 6.99586 2.36977 7.21454 2.58846L8.63448 4.00836C8.85316 4.22705 8.85316 4.58163 8.63448 4.80032L7.21454 6.22019ZM4.78493 10.4118C5.00361 10.6305 5.3582 10.6305 5.57688 10.4118C5.79556 10.1931 5.79556 9.83852 5.57688 9.61984L5.11236 9.15526H7.9599C8.88777 9.15526 9.6399 8.40313 9.6399 7.47526V7.06002C9.6399 6.75074 9.38919 6.50002 9.0799 6.50002C8.77061 6.50002 8.5199 6.75074 8.5199 7.06002V7.47526C8.5199 7.78455 8.26919 8.03526 7.9599 8.03526H5.11359L5.57688 7.57198C5.79556 7.3533 5.79556 6.9987 5.57688 6.78002C5.3582 6.56134 5.00361 6.56134 4.78493 6.78002L3.36502 8.1999C3.14632 8.41864 3.14632 8.77318 3.36502 8.99186L4.78493 10.4118Z" fill="#121212" fill-opacity="0.6"/>
</svg>
